<svg xmlns="http://www.w3.org/2000/svg" width="90" height="113.682" viewBox="0 0 90 113.682">
  <g id="_24-hours_1_" data-name="24-hours (1)" transform="translate(-90.226 0)">
    <g id="Group_111" data-name="Group 111" transform="translate(126.938 21.94)">
      <g id="Group_110" data-name="Group 110" transform="translate(0)">
        <path id="Path_115" data-name="Path 115" d="M389.638,193.549a4.157,4.157,0,0,0-2.577-.686H375.8a12.283,12.283,0,0,1,1.06-1.413,34.872,34.872,0,0,1,4.489-4.157q3.263-2.66,4.655-3.907a15.206,15.206,0,0,0,2.723-3.45,9.269,9.269,0,0,0,1.33-4.9,8.958,8.958,0,0,0-2.432-6.11,8.5,8.5,0,0,0-2.723-1.891,13.884,13.884,0,0,0-5.674-1.039,12.987,12.987,0,0,0-4.8.811,9.932,9.932,0,0,0-3.388,2.078,8.958,8.958,0,0,0-2.078,2.951,8.169,8.169,0,0,0-.665,3.117A2.639,2.639,0,0,0,369,176.9a2.431,2.431,0,0,0,1.808.707,2.286,2.286,0,0,0,1.87-.79,7.417,7.417,0,0,0,1.143-2.245,10.77,10.77,0,0,1,.727-1.787,5.071,5.071,0,0,1,4.468-2.494,5.2,5.2,0,0,1,2.494.6,4.592,4.592,0,0,1,1.808,1.7,4.717,4.717,0,0,1,.665,2.494,6.238,6.238,0,0,1-.623,2.619,10.059,10.059,0,0,1-1.683,2.66,19.1,19.1,0,0,1-3.014,2.536,34.272,34.272,0,0,0-3.263,2.826q-2.328,2.078-5.217,5.133a7.425,7.425,0,0,0-1.289,2.078,5.383,5.383,0,0,0-.582,2.078,2.868,2.868,0,0,0,.914,2.078,3.45,3.45,0,0,0,2.536.894h15.982a2.827,2.827,0,0,0,2.078-.748,2.515,2.515,0,0,0,.707-1.808A2.266,2.266,0,0,0,389.638,193.549Z" transform="translate(-368.289 -165.985)" fill="#59c2ff"/>
      </g>
    </g>
    <g id="Group_113" data-name="Group 113" transform="translate(152.247 21.695)">
      <g id="Group_112" data-name="Group 112" transform="translate(0)">
        <path id="Path_116" data-name="Path 116" d="M582.961,185.039a6.609,6.609,0,0,0-2.681-.457h-.935v-16.71q0-3.783-3.3-3.783a2.452,2.452,0,0,0-1.746.686,17.442,17.442,0,0,0-1.85,2.2l-11.493,15.379-.811,1.06q-.332.436-.623.894a4.4,4.4,0,0,0-.457.894,2.452,2.452,0,0,0-.145.831,3.263,3.263,0,0,0,1.039,2.536,4.49,4.49,0,0,0,3.055.956h10.807v4.032a3.575,3.575,0,0,0,.748,2.473,2.91,2.91,0,0,0,4.053.021,3.617,3.617,0,0,0,.727-2.494v-4.032h1.33a4.343,4.343,0,0,0,2.473-.582,2.078,2.078,0,0,0,.831-1.829A1.954,1.954,0,0,0,582.961,185.039Zm-9.145-.374h-9.248l9.248-12.615Z" transform="translate(-558.912 -164.089)" fill="#59c2ff"/>
      </g>
    </g>
    <g id="Group_115" data-name="Group 115" transform="translate(90.226 0)">
      <g id="Group_114" data-name="Group 114" transform="translate(0 0)">
        <path id="Path_117" data-name="Path 117" d="M178.023,109.449l-.063-.19c-7.809.339-10.772-4.529-14.222-10.159-3.048-4.973-6.476-10.582-13.714-10.582a10.786,10.786,0,0,0,.889-2.73c.889-5.333-1.524-13.566-18.031-22.349a2.117,2.117,0,0,0-1.968,0L125.368,66.3c-1.333,0-7.365-.529-13.9-13.291-5.5-13.566-2.349-18.561-1.672-19.428l5.693-2.5a2.116,2.116,0,0,0,1.227-1.545c3.556-18.37-1.333-25.4-6.032-28.084A12.7,12.7,0,0,0,104.627.011,11.175,11.175,0,0,0,93.685,7.186c-3.407,8.465-7.323,26.73,4.529,52.02C110.4,84.306,127,92.645,135.8,95.4a11.771,11.771,0,0,0,3.513.55,11.089,11.089,0,0,0,7.386-2.921,2.092,2.092,0,0,0,.36,0c6.772-1.376,9.27,2.116,13.122,8.465,3.344,5.439,7.471,12.19,17.1,12.19h.91a2.118,2.118,0,1,0-.169-4.233Zm-31.3-24.465a8.465,8.465,0,0,1-7.471,6.624,7.58,7.58,0,0,1-2.243-.36c-8.19-2.54-23.534-10.328-35.026-33.968S94.405,16.5,97.558,8.646a7.111,7.111,0,0,1,7.005-4.508,8.467,8.467,0,0,1,3.979.889c4.8,2.73,6.349,10.688,4.233,22.5l-5.037,2.116a2.115,2.115,0,0,0-.487.3c-.741.614-6.984,6.349.4,24.592,7.28,14.243,14.815,15.767,17.608,15.767a5.836,5.836,0,0,0,1.27-.127,2.115,2.115,0,0,0,.487-.19l4.889-2.518C142.362,73.386,147.632,79.544,146.722,84.983Z" transform="translate(-90.226 0)" fill="#59c2ff"/>
      </g>
    </g>
  </g>
</svg>
