<svg id="collaboration" xmlns="http://www.w3.org/2000/svg" width="122.297" height="122.297" viewBox="0 0 122.297 122.297">
  <g id="Group_51" data-name="Group 51" transform="translate(48.919)">
    <g id="Group_50" data-name="Group 50">
      <path id="Path_56" data-name="Path 56" d="M204.23,0a12.23,12.23,0,1,0,12.23,12.23A12.23,12.23,0,0,0,204.23,0Zm0,20.383a8.153,8.153,0,1,1,8.153-8.153A8.153,8.153,0,0,1,204.23,20.383Z" transform="translate(-192)" fill="#59c2ff"/>
    </g>
  </g>
  <g id="Group_53" data-name="Group 53" transform="translate(42.804 26.498)">
    <g id="Group_52" data-name="Group 52">
      <path id="Path_57" data-name="Path 57" d="M194.5,104h-.481l-.43.214a16.248,16.248,0,0,1-14.484,0l-.43-.214h-.481A10.2,10.2,0,0,0,168,114.191v12.23a6.115,6.115,0,0,0,6.115,6.115h24.459a6.115,6.115,0,0,0,6.115-6.115v-12.23A10.2,10.2,0,0,0,194.5,104Zm6.115,22.421a2.038,2.038,0,0,1-2.038,2.038H174.115a2.038,2.038,0,0,1-2.038-2.038v-12.23a6.115,6.115,0,0,1,5.681-6.1,20.4,20.4,0,0,0,17.175,0,6.115,6.115,0,0,1,5.681,6.1Z" transform="translate(-168 -104)" fill="#59c2ff"/>
    </g>
  </g>
  <g id="Group_55" data-name="Group 55" transform="translate(91.723 67.263)">
    <g id="Group_54" data-name="Group 54">
      <path id="Path_58" data-name="Path 58" d="M372.23,264a12.23,12.23,0,1,0,12.23,12.23A12.23,12.23,0,0,0,372.23,264Zm0,20.383a8.153,8.153,0,1,1,8.153-8.153A8.153,8.153,0,0,1,372.23,284.383Z" transform="translate(-360 -264)" fill="#59c2ff"/>
    </g>
  </g>
  <g id="Group_57" data-name="Group 57" transform="translate(85.608 93.761)">
    <g id="Group_56" data-name="Group 56">
      <path id="Path_59" data-name="Path 59" d="M362.5,368h-.481l-.43.2a16.25,16.25,0,0,1-14.484,0l-.43-.2h-.481A10.2,10.2,0,0,0,336,378.191v12.23a6.115,6.115,0,0,0,6.115,6.115h24.459a6.115,6.115,0,0,0,6.115-6.115v-12.23A10.2,10.2,0,0,0,362.5,368Zm6.115,22.421a2.038,2.038,0,0,1-2.038,2.038H342.115a2.038,2.038,0,0,1-2.038-2.038v-12.23a6.115,6.115,0,0,1,5.681-6.1,20.4,20.4,0,0,0,17.175,0,6.115,6.115,0,0,1,5.681,6.1Z" transform="translate(-336 -368)" fill="#59c2ff"/>
    </g>
  </g>
  <g id="Group_59" data-name="Group 59" transform="translate(6.115 67.263)">
    <g id="Group_58" data-name="Group 58">
      <path id="Path_60" data-name="Path 60" d="M36.23,264a12.23,12.23,0,1,0,12.23,12.23A12.23,12.23,0,0,0,36.23,264Zm0,20.383a8.153,8.153,0,1,1,8.153-8.153A8.153,8.153,0,0,1,36.23,284.383Z" transform="translate(-24 -264)" fill="#59c2ff"/>
    </g>
  </g>
  <g id="Group_61" data-name="Group 61" transform="translate(0 93.761)">
    <g id="Group_60" data-name="Group 60">
      <path id="Path_61" data-name="Path 61" d="M26.5,368h-.481l-.43.2a16.25,16.25,0,0,1-14.484,0l-.43-.2h-.481A10.2,10.2,0,0,0,0,378.191v12.23a6.115,6.115,0,0,0,6.115,6.115H30.574a6.115,6.115,0,0,0,6.115-6.115v-12.23A10.2,10.2,0,0,0,26.5,368Zm6.115,22.421a2.038,2.038,0,0,1-2.038,2.038H6.115a2.038,2.038,0,0,1-2.038-2.038v-12.23a6.115,6.115,0,0,1,5.681-6.1,20.4,20.4,0,0,0,17.175,0,6.115,6.115,0,0,1,5.681,6.1Z" transform="translate(0 -368)" fill="#59c2ff"/>
    </g>
  </g>
  <g id="Group_63" data-name="Group 63" transform="translate(40.765 99.875)">
    <g id="Group_62" data-name="Group 62">
      <path id="Path_62" data-name="Path 62" d="M200.6,395.634l0-.007a2.038,2.038,0,0,0-2.674-1.076h0a45.213,45.213,0,0,1-29.072,2l1.908-.561a2.039,2.039,0,1,0-1.146-3.913l-8.153,2.391c-.031,0-.053.035-.082.045a2.02,2.02,0,0,0-.526.291,1.782,1.782,0,0,0-.2.128,1.974,1.974,0,0,0-.5.693,2.041,2.041,0,0,0-.155.842,6.284,6.284,0,0,0,.2.815c.012.029,0,.061.022.09l4.077,7.8a2.039,2.039,0,0,0,3.616-1.887l-1.659-3.172a49.063,49.063,0,0,0,33.263-1.81A2.038,2.038,0,0,0,200.6,395.634Z" transform="translate(-159.998 -391.995)" fill="#59c2ff"/>
    </g>
  </g>
  <g id="Group_65" data-name="Group 65" transform="translate(77.454 15.955)">
    <g id="Group_64" data-name="Group 64">
      <path id="Path_63" data-name="Path 63" d="M342.128,100.259a2.038,2.038,0,0,0-2.882,0l-2.884,2.884a48.845,48.845,0,0,0-29.526-40.358,2.038,2.038,0,0,0-1.6,3.75,44.775,44.775,0,0,1,26.96,36.023l-2.3-2.3a2.038,2.038,0,0,0-2.882,2.882l6.115,6.115a2.038,2.038,0,0,0,2.883,0l0,0,6.115-6.115A2.038,2.038,0,0,0,342.128,100.259Z" transform="translate(-303.998 -62.622)" fill="#59c2ff"/>
    </g>
  </g>
  <g id="Group_67" data-name="Group 67" transform="translate(12.23 12.264)">
    <g id="Group_66" data-name="Group 66">
      <path id="Path_64" data-name="Path 64" d="M80.553,53.52a1.9,1.9,0,0,0-.053-.353c0-.018-.022-.031-.031-.051s0-.035,0-.051a1.955,1.955,0,0,0-.192-.281,2.058,2.058,0,0,0-.232-.336,1.913,1.913,0,0,0-.4-.271,1.794,1.794,0,0,0-.228-.165l-8.153-3.724a2.038,2.038,0,0,0-1.692,3.706l4.221,1.93A48.844,48.844,0,0,0,48,97.019a2.038,2.038,0,1,0,4.077,0,44.773,44.773,0,0,1,22.06-38.613l-1.474,3.08a2.038,2.038,0,0,0,.952,2.717,2.007,2.007,0,0,0,.883.2,2.038,2.038,0,0,0,1.834-1.156l4.077-8.506a.093.093,0,0,1,.016-.063,1.96,1.96,0,0,0,.11-.432,2.109,2.109,0,0,0,.077-.336A2.032,2.032,0,0,0,80.553,53.52Z" transform="translate(-48 -48.134)" fill="#59c2ff"/>
    </g>
  </g>
</svg>
