<svg xmlns="http://www.w3.org/2000/svg" width="116.599" height="116.594" viewBox="0 0 116.599 116.594">
  <g id="credit-card" transform="translate(0 -0.011)">
    <g id="Group_69" data-name="Group 69" transform="translate(0 0.011)">
      <g id="Group_68" data-name="Group 68">
        <path id="Path_65" data-name="Path 65" d="M113.5,40.022,76.582,3.1a10.608,10.608,0,0,0-14.969,0L3.091,61.624a10.607,10.607,0,0,0,0,14.968l4.553,4.553h0l30.6,30.6H34.007a2.429,2.429,0,0,0,0,4.858H82.588a2.429,2.429,0,1,0,0-4.858H56.748L113.5,54.991A10.6,10.6,0,0,0,113.5,40.022Zm-3.435,11.533L51.545,110.079a5.685,5.685,0,0,1-4.04,1.667h-.018a5.682,5.682,0,0,1-4.039-1.667L12.8,79.429,69,23.226a2.429,2.429,0,1,0-3.435-3.435l-56.2,56.2L6.525,73.158a5.75,5.75,0,0,1,0-8.1L65.049,6.536a5.751,5.751,0,0,1,8.1,0L86.288,19.677l-56.2,56.2a2.429,2.429,0,0,0,3.435,3.435l56.2-56.2,20.345,20.345A5.734,5.734,0,0,1,110.068,51.556Z" transform="translate(0 -0.011)" fill="#59c2ff"/>
        <path id="Path_66" data-name="Path 66" d="M183.919,305.652a2.43,2.43,0,0,0-3.435,0L161.37,324.766A2.429,2.429,0,1,0,164.8,328.2l19.114-19.114A2.429,2.429,0,0,0,183.919,305.652Z" transform="translate(-124.071 -235.498)" fill="#59c2ff"/>
        <path id="Path_67" data-name="Path 67" d="M199.377,385.328l-7.84,7.84a2.429,2.429,0,1,0,3.435,3.435l7.84-7.84a2.429,2.429,0,1,0-3.435-3.435Z" transform="translate(-147.369 -297.03)" fill="#59c2ff"/>
        <path id="Path_68" data-name="Path 68" d="M254.146,353.653l-1.03,1.03a2.429,2.429,0,1,0,3.435,3.435l1.03-1.03a2.429,2.429,0,0,0-3.435-3.435Z" transform="translate(-194.924 -272.568)" fill="#59c2ff"/>
        <path id="Path_69" data-name="Path 69" d="M358.063,161.38a2.429,2.429,0,0,0-3.435,0l-10.306,10.306a2.429,2.429,0,0,0,0,3.435l6.871,6.87a2.429,2.429,0,0,0,3.435,0l10.306-10.305a2.429,2.429,0,0,0,0-3.435Zm-5.153,15.458-3.435-3.435,6.871-6.87,3.435,3.435Z" transform="translate(-265.359 -124.082)" fill="#59c2ff"/>
        <path id="Path_70" data-name="Path 70" d="M312.1,60.216a2.42,2.42,0,0,0,1.718-.712l1.031-1.031a2.429,2.429,0,0,0-3.436-3.434l-1.031,1.031a2.429,2.429,0,0,0,1.718,4.146Z" transform="translate(-239.15 -41.957)" fill="#59c2ff"/>
        <path id="Path_71" data-name="Path 71" d="M101.308,355.644l-1.03,1.03a2.429,2.429,0,0,0,3.435,3.435l1.03-1.03a2.429,2.429,0,1,0-3.435-3.435Z" transform="translate(-76.892 -274.106)" fill="#59c2ff"/>
      </g>
    </g>
  </g>
</svg>
