<svg xmlns="http://www.w3.org/2000/svg" xmlns:xlink="http://www.w3.org/1999/xlink" width="561.828" height="345.79" viewBox="0 0 561.828 345.79">
  <defs>
    <linearGradient id="linear-gradient" x1="0.5" x2="0.5" y2="1" gradientUnits="objectBoundingBox">
      <stop offset="0" stop-color="#ff8359"/>
      <stop offset="1" stop-color="#ffdf40"/>
    </linearGradient>
    <linearGradient id="linear-gradient-3" x1="0.5" x2="0.5" y2="1" gradientUnits="objectBoundingBox">
      <stop offset="0" stop-color="#ffdf40"/>
      <stop offset="1" stop-color="#ff8359"/>
    </linearGradient>
    <linearGradient id="linear-gradient-4" x1="0.904" x2="0.034" y2="0.719" gradientUnits="objectBoundingBox">
      <stop offset="0" stop-color="#46eeaa"/>
      <stop offset="1" stop-color="#29b3ba"/>
    </linearGradient>
    <filter id="Rectangle_121" x="52.519" y="38.435" width="162" height="59" filterUnits="userSpaceOnUse">
      <feOffset dy="3" input="SourceAlpha"/>
      <feGaussianBlur stdDeviation="3" result="blur"/>
      <feFlood flood-opacity="0.161"/>
      <feComposite operator="in" in2="blur"/>
      <feComposite in="SourceGraphic"/>
    </filter>
    <filter id="Rectangle_122" x="52.519" y="94.435" width="377" height="107" filterUnits="userSpaceOnUse">
      <feOffset dy="3" input="SourceAlpha"/>
      <feGaussianBlur stdDeviation="3" result="blur-2"/>
      <feFlood flood-opacity="0.161"/>
      <feComposite operator="in" in2="blur-2"/>
      <feComposite in="SourceGraphic"/>
    </filter>
  </defs>
  <g id="formimg2" transform="translate(-162.894 411.595)">
    <g id="g22" transform="translate(162.894 -424.83)">
      <g id="Group_8484" data-name="Group 8484" transform="translate(0)">
        <g id="g104" transform="translate(13.731 13.235)">
          <path id="path106" d="M128.59,95.645H-303.337a21.222,21.222,0,0,1-21.222-21.22V-220.186a21.221,21.221,0,0,1,21.222-21.22H128.59a21.219,21.219,0,0,1,21.22,21.22V74.425a21.22,21.22,0,0,1-21.22,21.22" transform="translate(324.559 241.406)" fill="#e3eaff"/>
        </g>
        <g id="g108" transform="translate(19.972 17.668)">
          <path id="path110" d="M126.3,93.129H-301.95a16.821,16.821,0,0,1-16.821-16.82V-218.234a16.822,16.822,0,0,1,16.821-16.821H126.3a16.821,16.821,0,0,1,16.82,16.821V76.309a16.819,16.819,0,0,1-16.82,16.82" transform="translate(318.771 235.055)" fill="#6b68ed"/>
        </g>
        <g id="g112" transform="translate(39.948 33.114)">
          <path id="path114" d="M116.793,80.528H-284.422a10.362,10.362,0,0,1-10.362-10.362V-192.89a10.362,10.362,0,0,1,10.362-10.362H116.793a10.362,10.362,0,0,1,10.362,10.362V70.167a10.362,10.362,0,0,1-10.362,10.362" transform="translate(294.783 203.252)" fill="#fff"/>
        </g>
        <g id="g116" transform="translate(240.732 22.023)">
          <path id="path118" d="M2.255,1.127A3.972,3.972,0,0,1-1.717,5.1,3.973,3.973,0,0,1-5.692,1.127,3.973,3.973,0,0,1-1.717-2.845,3.972,3.972,0,0,1,2.255,1.127" transform="translate(5.692 2.845)" fill="#5400ff"/>
        </g>
        <g id="g120" transform="translate(0 332.81)">
          <path id="path122" d="M.628,0A17.589,17.589,0,0,0-1.585,8.426,17.789,17.789,0,0,0,16.2,26.215H482.461A17.788,17.788,0,0,0,500.249,8.426,17.589,17.589,0,0,0,498.035,0Z" transform="translate(1.585)" fill="#e3eaff"/>
        </g>
        <g id="g124" transform="translate(2.213 349.663)">
          <path id="path126" d="M0,0A17.714,17.714,0,0,0,15.576,9.362H481.833A17.711,17.711,0,0,0,497.407,0Z" fill="#c8d6f2"/>
        </g>
        <g id="g220" transform="translate(225.418 249.56)">
          <path id="path222" d="M7.442.489H-17.921a.861.861,0,0,1-.862-.862.861.861,0,0,1,.862-.862H7.442A.861.861,0,0,1,8.3-.373a.861.861,0,0,1-.862.862" transform="translate(18.783 1.235)" fill="#fff"/>
        </g>
        <g id="g236" transform="translate(367.934 238.458)">
          <path id="path238" d="M2.031,0,4.24,4.479,9.187,5.2,5.609,8.686l.843,4.924L2.031,11.285-2.392,13.61l.845-4.924L-5.125,5.2l4.946-.719Z" transform="translate(5.125)" fill="#fff"/>
        </g>
        <g id="g240" transform="translate(387.797 238.458)">
          <path id="path242" d="M2.03,0,4.242,4.479,9.186,5.2,5.608,8.686l.845,4.924L2.03,11.285-2.391,13.61l.845-4.924L-5.124,5.2-.18,4.479Z" transform="translate(5.124)" fill="#fff"/>
        </g>
        <g id="g276" transform="translate(436.633 34.595)">
          <path id="path278" d="M-1.127-3.04c-2.895,7.921-3.3,15.834-.976,22.318A18.3,18.3,0,0,0,9.275,30.867c7.616,2.557,15.572-1.591,20.083-6.84,5.009-5.836,6.208-12.8,3.2-18.625C24.472-10.283,5.768-5.47-1.127-3.04m-27.23,105.955A127.278,127.278,0,0,1-38.667,61.672c-1.317-20.651,3.584-48.646,34.409-64.74.1-.048.9-.417,2.229-.908A50.9,50.9,0,0,1,2.4-12.867C10.9-26.493,24.8-35.9,38.257-44.99c23.1-15.616,43.051-29.1,29.954-59.305l1.078-.467c13.482,31.1-7.821,45.5-30.375,60.746C25.564-34.993,11.759-25.662,3.4-12.247A50.447,50.447,0,0,0-.568-4.491,46.747,46.747,0,0,1,10.627-6.813C21.3-7.6,29.259-3.561,33.605,4.867c3.182,6.17,1.9,13.806-3.358,19.927C25.484,30.34,17.03,34.708,8.9,31.983A19.46,19.46,0,0,1-3.207,19.675C-5.534,13.193-5.244,5.36-2.558-2.507c-.73.287-1.15.476-1.182.491C-33.98,13.775-38.79,41.294-37.5,61.6a125.816,125.816,0,0,0,10.2,40.811Z" transform="translate(38.857 195.709)" fill="url(#linear-gradient)"/>
        </g>
        <g id="g284" transform="translate(510.906 93)">
          <path id="path286" d="M0,0,25.333,57.313l16.2-13.92S49.5,55.652,49.67,53.575s0-14.535,0-14.535L65.618,28.655Z" transform="translate(-14.697 -15.33)" fill="url(#linear-gradient)"/>
        </g>
        <g id="g288" transform="translate(499.519 81.259)">
          <path id="path290" d="M0,0,46.035,36.64l.352,11.952L41.081,40.08Z" fill="url(#linear-gradient-3)"/>
        </g>
      </g>
    </g>
    <g transform="matrix(1, 0, 0, 1, 162.89, -411.6)" filter="url(#Rectangle_121)">
      <rect id="Rectangle_121-2" data-name="Rectangle 121" width="144" height="41" rx="20.5" transform="translate(61.52 44.43)" fill="url(#linear-gradient-4)"/>
    </g>
    <g transform="matrix(1, 0, 0, 1, 162.89, -411.6)" filter="url(#Rectangle_122)">
      <rect id="Rectangle_122-2" data-name="Rectangle 122" width="359" height="89" rx="21" transform="translate(61.52 100.43)" fill="url(#linear-gradient-4)"/>
    </g>
    <text id="Hello_AA" data-name="Hello AA" transform="translate(250.413 -338.161)" fill="#fff" font-size="20" font-family="SegoeUI-Semibold, Segoe UI" font-weight="600"><tspan x="0" y="0">Hello AA</tspan></text>
    <text id="Lorem_ipsum_dolor_sit_amet_consectetur_adipiscing_elit_sed_do_eiusmod_tempor_incididunt_ut_labore_et_dolore_magna_aliqua._Ut_enim_ad_minim_veniam_quis_nostrud" data-name="Lorem ipsum dolor sit amet, consectetur adipiscing elit, sed do eiusmod tempor incididunt ut labore et dolore magna aliqua. Ut enim ad minim veniam, quis nostrud" transform="translate(250.413 -304.161)" fill="#fff" font-size="18" font-family="SegoeUI, Segoe UI" letter-spacing="-0.004em"><tspan x="0" y="19">Lorem ipsum dolor sit amet, consectetur </tspan><tspan x="0" y="44">adipiscing elit, sed do eiusmod tempor </tspan><tspan x="0" y="69">incididunt ut labore et dolore magna </tspan></text>
  </g>
</svg>
