<svg xmlns="http://www.w3.org/2000/svg" xmlns:xlink="http://www.w3.org/1999/xlink" width="801.975" height="889.657" viewBox="0 0 801.975 889.657">
  <defs>
    <linearGradient id="linear-gradient" x1="1" y1="0.5" x2="0" y2="0.5" gradientUnits="objectBoundingBox">
      <stop offset="0" stop-color="#46eeaa"/>
      <stop offset="1" stop-color="#29b3ba"/>
    </linearGradient>
    <linearGradient id="linear-gradient-3" y1="0.5" x2="0" y2="0.5" xlink:href="#linear-gradient"/>
  </defs>
  <g id="Group_79" data-name="Group 79" transform="translate(-1118.116 -697.507)">
    <g id="Group_70" data-name="Group 70">
      <g id="about_us" data-name="about us" transform="translate(-101.884 670.641)" opacity="0.45">
        <g id="Group_1" data-name="Group 1" transform="translate(1220 26.865)">
          <path id="Path_1" data-name="Path 1" d="M234.436,890.112c122.037,46.962,567.539-21.8,567.539-21.8V40.909s-268.5-75.812-427.181,41.8C283.5,150.31,255.811,354.582,57.33,520.106-103.455,654.251,112.4,843.256,234.436,890.112Z" transform="translate(0 -16.865)" opacity="0.2" fill="url(#linear-gradient)"/>
          <path id="Path_2" data-name="Path 2" d="M218.21,849.322C340.142,896.283,747,835.528,747,835.528V89.409S478.5,13.6,319.82,131.211c-91.291,67.6-82.656,210.695-226.279,331.679C-127.262,648.841,96.174,802.466,218.21,849.322Z" transform="translate(54.974 -14.297)" opacity="0.25" fill="url(#linear-gradient)"/>
          <path id="Path_3" data-name="Path 3" d="M196.406,809.194c109.823,42.223,476.143-12.425,476.143-12.425V124.988S430.9,56.757,287.907,162.579c-82.235,60.86-74.443,189.636-203.745,298.616C-114.53,628.614,86.583,766.971,196.406,809.194Z" transform="translate(129.426 -12.286)" opacity="0.3" fill="url(#linear-gradient-3)"/>
        </g>
      </g>
      <g id="customer-service" transform="translate(1427.878 995.133)">
        <g id="Group_72" data-name="Group 72" transform="translate(58.925 53.773)">
          <g id="Group_71" data-name="Group 71">
            <path id="Path_79" data-name="Path 79" d="M147.91,112.435a35.474,35.474,0,0,0-70.949,0v17.924a35.447,35.447,0,0,0,56.268,28.714l5.119,5.119a5.6,5.6,0,0,0,7.92-7.921l-5.119-5.119a35.27,35.27,0,0,0,6.76-20.794Zm-11.2,17.924a24.119,24.119,0,0,1-3.619,12.732l-1.756-1.756a5.6,5.6,0,1,0-7.921,7.921l1.756,1.756a24.258,24.258,0,0,1-37.005-20.653V112.435a24.272,24.272,0,1,1,48.544,0v17.924Z" transform="translate(-76.961 -76.961)" fill="#29b3ba"/>
          </g>
        </g>
        <g id="Group_74" data-name="Group 74" transform="translate(214.265 23.898)">
          <g id="Group_73" data-name="Group 73">
            <path id="Path_80" data-name="Path 80" d="M370.095,116.217,354.308,47.808a17.471,17.471,0,0,0-17.1-13.6h-4.887a17.472,17.472,0,0,0-17.1,13.6l-15.786,68.409a5.6,5.6,0,0,0,10.917,2.52L314.86,99.18h39.8l4.513,19.557a5.6,5.6,0,0,0,10.917-2.52ZM317.446,87.977l8.688-37.649a6.321,6.321,0,0,1,6.186-4.921h4.887a6.32,6.32,0,0,1,6.186,4.921l8.688,37.649Z" transform="translate(-299.287 -34.204)" fill="#29b3ba"/>
          </g>
        </g>
        <g id="Group_76" data-name="Group 76" transform="translate(17.102)">
          <g id="Group_75" data-name="Group 75">
            <path id="Path_81" data-name="Path 81" d="M321.438,0H178.045a29.533,29.533,0,0,0-29.5,29.5v.373H46.6a29.533,29.533,0,0,0-29.5,29.5v83.646a29.533,29.533,0,0,0,29.5,29.5h72.07v15.7a53.729,53.729,0,0,0-18.3-3.006c-22.316,0-38.527,11.3-48.182,33.583C44.9,235.622,41.241,259.02,41,290.33a11.137,11.137,0,0,0,6.665,10.195,94.483,94.483,0,0,0,12.03,4.386l-12.816,7.324a23.577,23.577,0,0,0-11.853,20.426v7.522a17.57,17.57,0,0,0,17.551,17.551h95.595a17.57,17.57,0,0,0,17.551-17.551v-7.522a23.575,23.575,0,0,0-11.854-20.426l-12.816-7.324a94.258,94.258,0,0,0,12.03-4.386,11.142,11.142,0,0,0,6.666-10.195c-.241-31.309-3.9-54.708-11.191-71.533q-6.174-14.249-15.891-22.479l23.8-23.8H190a29.545,29.545,0,0,0,28.71-22.743l21.1,21.1a5.6,5.6,0,0,0,9.562-3.96V142.645h72.07a29.533,29.533,0,0,0,29.5-29.5V29.5A29.536,29.536,0,0,0,321.438,0ZM148.312,321.963a12.349,12.349,0,0,1,6.208,10.7v7.522a6.356,6.356,0,0,1-6.348,6.348H52.576a6.356,6.356,0,0,1-6.348-6.348v-7.522a12.35,12.35,0,0,1,6.209-10.7l13.842-7.909C68.718,317.5,80.837,333.6,98.6,339.524a5.606,5.606,0,0,0,3.542,0c17.766-5.921,29.885-22.02,32.324-25.47ZM87.148,296.957l4.2,2.518a17.521,17.521,0,0,0,18.06,0l4.2-2.518a17.581,17.581,0,0,0,7.939,9.707l3.143,1.8c-2.8,3.75-11.895,14.928-24.308,19.792-12.345-4.845-21.5-16.043-24.306-19.794l3.14-1.794A17.579,17.579,0,0,0,87.148,296.957ZM76.1,270.288V244.047c3.715-.184,8.934-.572,14.609-1.381,11.86-1.694,20.953-4.557,27.135-8.532l6.8,6.8v29.354a12.384,12.384,0,0,1-5.983,10.566L103.64,289.87a6.34,6.34,0,0,1-6.532,0l-15.023-9.015A12.387,12.387,0,0,1,76.1,270.288Zm62.175-47.036c6.67,15.4,10.028,37.323,10.267,67.03l-.042.022a97.9,97.9,0,0,1-21.659,6.466,6.354,6.354,0,0,1-2.944-5.343v-.648l.528-.317a23.644,23.644,0,0,0,11.422-20.173V238.614a5.6,5.6,0,0,0-1.641-3.96L122.259,222.7a5.6,5.6,0,0,0-7.921,0c-3.949,3.949-12.856,7.093-25.08,8.853A149.746,149.746,0,0,1,70.5,233.013a5.6,5.6,0,0,0-5.6,5.6v31.674a23.644,23.644,0,0,0,11.422,20.173l.528.316v.649a6.353,6.353,0,0,1-2.946,5.344A97.88,97.88,0,0,1,52.246,290.3a.375.375,0,0,1-.042-.022c.238-29.707,3.6-51.635,10.267-67.03,7.823-18.057,20.221-26.834,37.9-26.834S130.454,205.2,138.277,223.251Zm70.015-80.232a18.318,18.318,0,0,1-18.3,18.3H154.146a5.6,5.6,0,0,0-3.96,1.641l-20.312,20.312V166.918a5.6,5.6,0,0,0-5.6-5.6H46.6a18.318,18.318,0,0,1-18.3-18.3V59.373a18.318,18.318,0,0,1,18.3-18.3H148.545v72.07a29.533,29.533,0,0,0,29.5,29.5h30.247v.374Zm131.443-29.874a18.318,18.318,0,0,1-18.3,18.3H243.767a5.6,5.6,0,0,0-5.6,5.6V153.4l-20.312-20.312a5.6,5.6,0,0,0-3.96-1.641H178.045a18.318,18.318,0,0,1-18.3-18.3V29.5a18.318,18.318,0,0,1,18.3-18.3H321.438a18.318,18.318,0,0,1,18.3,18.3Z" transform="translate(-17.102)" fill="#29b3ba"/>
          </g>
        </g>
        <g id="Group_78" data-name="Group 78" transform="translate(190.367 179.241)">
          <g id="Group_77" data-name="Group 77">
            <path id="Path_82" data-name="Path 82" d="M404.415,378,376,367.343a6.382,6.382,0,0,1-3.825-4.045l2.832-2.124a23.5,23.5,0,0,0,9.358-17.255l1.338-20.069v-.006L388.094,288a29.5,29.5,0,0,0-29.435-31.462H326.1A29.5,29.5,0,0,0,296.669,288l3.728,55.922a23.5,23.5,0,0,0,9.358,17.255l2.832,2.124a6.379,6.379,0,0,1-3.825,4.045L280.349,378a23.634,23.634,0,0,0-15.265,22.027v17.452a17.57,17.57,0,0,0,17.551,17.551H402.128a17.57,17.57,0,0,0,17.551-17.551V400.026A23.633,23.633,0,0,0,404.415,378Zm-96.567-90.746A18.3,18.3,0,0,1,326.1,267.737H358.66a18.3,18.3,0,0,1,18.258,19.515l-.055.826c-19.038,10.843-57.2,15.036-67.891,16.025Zm3.729,55.921-1.859-27.882c9.986-.891,44.029-4.53,66.284-14.3L374.527,323.1a18.811,18.811,0,0,1-18.256,17.076H342.383a5.6,5.6,0,1,0,0,11.2h13.888A29.062,29.062,0,0,0,372.55,346.3a12.3,12.3,0,0,1-4.261,5.908l-12.537,9.4a12.4,12.4,0,0,1-7.394,2.464H336.408a12.4,12.4,0,0,1-7.394-2.464l-12.537-9.4A12.308,12.308,0,0,1,311.576,343.173Zm25.2,80.653H282.635a6.356,6.356,0,0,1-6.348-6.348V400.026a12.379,12.379,0,0,1,8-11.538l20.1-7.536,32.4,21.6Zm-20.094-48.135a17.69,17.69,0,0,0,5.035-5.543l.57.428a23.671,23.671,0,0,0,14.115,4.705h11.949a23.671,23.671,0,0,0,14.115-4.705l.569-.427a17.7,17.7,0,0,0,5.035,5.543l-25.694,17.129Zm91.791,41.786h0a6.356,6.356,0,0,1-6.348,6.348H347.983V402.552l32.4-21.6,20.1,7.536a12.38,12.38,0,0,1,8,11.538Z" transform="translate(-265.084 -256.535)" fill="#29b3ba"/>
          </g>
        </g>
      </g>
      <g id="customer-service-2" data-name="customer-service" transform="translate(1420.878 991.133)">
        <g id="Group_72-2" data-name="Group 72" transform="translate(58.925 53.773)">
          <g id="Group_71-2" data-name="Group 71">
            <path id="Path_79-2" data-name="Path 79" d="M147.91,112.435a35.474,35.474,0,0,0-70.949,0v17.924a35.447,35.447,0,0,0,56.268,28.714l5.119,5.119a5.6,5.6,0,0,0,7.92-7.921l-5.119-5.119a35.27,35.27,0,0,0,6.76-20.794Zm-11.2,17.924a24.119,24.119,0,0,1-3.619,12.732l-1.756-1.756a5.6,5.6,0,1,0-7.921,7.921l1.756,1.756a24.258,24.258,0,0,1-37.005-20.653V112.435a24.272,24.272,0,1,1,48.544,0v17.924Z" transform="translate(-76.961 -76.961)" fill="#fff"/>
          </g>
        </g>
        <g id="Group_74-2" data-name="Group 74" transform="translate(214.265 23.898)">
          <g id="Group_73-2" data-name="Group 73">
            <path id="Path_80-2" data-name="Path 80" d="M370.095,116.217,354.308,47.808a17.471,17.471,0,0,0-17.1-13.6h-4.887a17.472,17.472,0,0,0-17.1,13.6l-15.786,68.409a5.6,5.6,0,0,0,10.917,2.52L314.86,99.18h39.8l4.513,19.557a5.6,5.6,0,0,0,10.917-2.52ZM317.446,87.977l8.688-37.649a6.321,6.321,0,0,1,6.186-4.921h4.887a6.32,6.32,0,0,1,6.186,4.921l8.688,37.649Z" transform="translate(-299.287 -34.204)" fill="#fff"/>
          </g>
        </g>
        <g id="Group_76-2" data-name="Group 76" transform="translate(17.102)">
          <g id="Group_75-2" data-name="Group 75">
            <path id="Path_81-2" data-name="Path 81" d="M321.438,0H178.045a29.533,29.533,0,0,0-29.5,29.5v.373H46.6a29.533,29.533,0,0,0-29.5,29.5v83.646a29.533,29.533,0,0,0,29.5,29.5h72.07v15.7a53.729,53.729,0,0,0-18.3-3.006c-22.316,0-38.527,11.3-48.182,33.583C44.9,235.622,41.241,259.02,41,290.33a11.137,11.137,0,0,0,6.665,10.195,94.483,94.483,0,0,0,12.03,4.386l-12.816,7.324a23.577,23.577,0,0,0-11.853,20.426v7.522a17.57,17.57,0,0,0,17.551,17.551h95.595a17.57,17.57,0,0,0,17.551-17.551v-7.522a23.575,23.575,0,0,0-11.854-20.426l-12.816-7.324a94.258,94.258,0,0,0,12.03-4.386,11.142,11.142,0,0,0,6.666-10.195c-.241-31.309-3.9-54.708-11.191-71.533q-6.174-14.249-15.891-22.479l23.8-23.8H190a29.545,29.545,0,0,0,28.71-22.743l21.1,21.1a5.6,5.6,0,0,0,9.562-3.96V142.645h72.07a29.533,29.533,0,0,0,29.5-29.5V29.5A29.536,29.536,0,0,0,321.438,0ZM148.312,321.963a12.349,12.349,0,0,1,6.208,10.7v7.522a6.356,6.356,0,0,1-6.348,6.348H52.576a6.356,6.356,0,0,1-6.348-6.348v-7.522a12.35,12.35,0,0,1,6.209-10.7l13.842-7.909C68.718,317.5,80.837,333.6,98.6,339.524a5.606,5.606,0,0,0,3.542,0c17.766-5.921,29.885-22.02,32.324-25.47ZM87.148,296.957l4.2,2.518a17.521,17.521,0,0,0,18.06,0l4.2-2.518a17.581,17.581,0,0,0,7.939,9.707l3.143,1.8c-2.8,3.75-11.895,14.928-24.308,19.792-12.345-4.845-21.5-16.043-24.306-19.794l3.14-1.794A17.579,17.579,0,0,0,87.148,296.957ZM76.1,270.288V244.047c3.715-.184,8.934-.572,14.609-1.381,11.86-1.694,20.953-4.557,27.135-8.532l6.8,6.8v29.354a12.384,12.384,0,0,1-5.983,10.566L103.64,289.87a6.34,6.34,0,0,1-6.532,0l-15.023-9.015A12.387,12.387,0,0,1,76.1,270.288Zm62.175-47.036c6.67,15.4,10.028,37.323,10.267,67.03l-.042.022a97.9,97.9,0,0,1-21.659,6.466,6.354,6.354,0,0,1-2.944-5.343v-.648l.528-.317a23.644,23.644,0,0,0,11.422-20.173V238.614a5.6,5.6,0,0,0-1.641-3.96L122.259,222.7a5.6,5.6,0,0,0-7.921,0c-3.949,3.949-12.856,7.093-25.08,8.853A149.746,149.746,0,0,1,70.5,233.013a5.6,5.6,0,0,0-5.6,5.6v31.674a23.644,23.644,0,0,0,11.422,20.173l.528.316v.649a6.353,6.353,0,0,1-2.946,5.344A97.88,97.88,0,0,1,52.246,290.3a.375.375,0,0,1-.042-.022c.238-29.707,3.6-51.635,10.267-67.03,7.823-18.057,20.221-26.834,37.9-26.834S130.454,205.2,138.277,223.251Zm70.015-80.232a18.318,18.318,0,0,1-18.3,18.3H154.146a5.6,5.6,0,0,0-3.96,1.641l-20.312,20.312V166.918a5.6,5.6,0,0,0-5.6-5.6H46.6a18.318,18.318,0,0,1-18.3-18.3V59.373a18.318,18.318,0,0,1,18.3-18.3H148.545v72.07a29.533,29.533,0,0,0,29.5,29.5h30.247v.374Zm131.443-29.874a18.318,18.318,0,0,1-18.3,18.3H243.767a5.6,5.6,0,0,0-5.6,5.6V153.4l-20.312-20.312a5.6,5.6,0,0,0-3.96-1.641H178.045a18.318,18.318,0,0,1-18.3-18.3V29.5a18.318,18.318,0,0,1,18.3-18.3H321.438a18.318,18.318,0,0,1,18.3,18.3Z" transform="translate(-17.102)" fill="#fff"/>
          </g>
        </g>
        <g id="Group_78-2" data-name="Group 78" transform="translate(190.367 179.241)">
          <g id="Group_77-2" data-name="Group 77">
            <path id="Path_82-2" data-name="Path 82" d="M404.415,378,376,367.343a6.382,6.382,0,0,1-3.825-4.045l2.832-2.124a23.5,23.5,0,0,0,9.358-17.255l1.338-20.069v-.006L388.094,288a29.5,29.5,0,0,0-29.435-31.462H326.1A29.5,29.5,0,0,0,296.669,288l3.728,55.922a23.5,23.5,0,0,0,9.358,17.255l2.832,2.124a6.379,6.379,0,0,1-3.825,4.045L280.349,378a23.634,23.634,0,0,0-15.265,22.027v17.452a17.57,17.57,0,0,0,17.551,17.551H402.128a17.57,17.57,0,0,0,17.551-17.551V400.026A23.633,23.633,0,0,0,404.415,378Zm-96.567-90.746A18.3,18.3,0,0,1,326.1,267.737H358.66a18.3,18.3,0,0,1,18.258,19.515l-.055.826c-19.038,10.843-57.2,15.036-67.891,16.025Zm3.729,55.921-1.859-27.882c9.986-.891,44.029-4.53,66.284-14.3L374.527,323.1a18.811,18.811,0,0,1-18.256,17.076H342.383a5.6,5.6,0,1,0,0,11.2h13.888A29.062,29.062,0,0,0,372.55,346.3a12.3,12.3,0,0,1-4.261,5.908l-12.537,9.4a12.4,12.4,0,0,1-7.394,2.464H336.408a12.4,12.4,0,0,1-7.394-2.464l-12.537-9.4A12.308,12.308,0,0,1,311.576,343.173Zm25.2,80.653H282.635a6.356,6.356,0,0,1-6.348-6.348V400.026a12.379,12.379,0,0,1,8-11.538l20.1-7.536,32.4,21.6Zm-20.094-48.135a17.69,17.69,0,0,0,5.035-5.543l.57.428a23.671,23.671,0,0,0,14.115,4.705h11.949a23.671,23.671,0,0,0,14.115-4.705l.569-.427a17.7,17.7,0,0,0,5.035,5.543l-25.694,17.129Zm91.791,41.786h0a6.356,6.356,0,0,1-6.348,6.348H347.983V402.552l32.4-21.6,20.1,7.536a12.38,12.38,0,0,1,8,11.538Z" transform="translate(-265.084 -256.535)" fill="#fff"/>
          </g>
        </g>
      </g>
    </g>
  </g>
</svg>
