<svg xmlns="http://www.w3.org/2000/svg" xmlns:xlink="http://www.w3.org/1999/xlink" width="801.975" height="889.657" viewBox="0 0 801.975 889.657">
  <defs>
    <linearGradient id="linear-gradient" x1="1" y1="0.5" x2="0" y2="0.5" gradientUnits="objectBoundingBox">
      <stop offset="0" stop-color="#46eeaa"/>
      <stop offset="1" stop-color="#29b3ba"/>
    </linearGradient>
    <linearGradient id="linear-gradient-3" y1="0.5" x2="0" y2="0.5" xlink:href="#linear-gradient"/>
  </defs>
  <g id="Group_70" data-name="Group 70" transform="translate(-1118.116 -697.507)">
    <g id="about_us" data-name="about us" transform="translate(-101.884 670.641)" opacity="0.45">
      <g id="Group_1" data-name="Group 1" transform="translate(1220 26.865)">
        <path id="Path_1" data-name="Path 1" d="M234.436,890.112c122.037,46.962,567.539-21.8,567.539-21.8V40.909s-268.5-75.812-427.181,41.8C283.5,150.31,255.811,354.582,57.33,520.106-103.455,654.251,112.4,843.256,234.436,890.112Z" transform="translate(0 -16.865)" opacity="0.2" fill="url(#linear-gradient)"/>
        <path id="Path_2" data-name="Path 2" d="M218.21,849.322C340.142,896.283,747,835.528,747,835.528V89.409S478.5,13.6,319.82,131.211c-91.291,67.6-82.656,210.695-226.279,331.679C-127.262,648.841,96.174,802.466,218.21,849.322Z" transform="translate(54.974 -14.297)" opacity="0.25" fill="url(#linear-gradient)"/>
        <path id="Path_3" data-name="Path 3" d="M196.406,809.194c109.823,42.223,476.143-12.425,476.143-12.425V124.988S430.9,56.757,287.907,162.579c-82.235,60.86-74.443,189.636-203.745,298.616C-114.53,628.614,86.583,766.971,196.406,809.194Z" transform="translate(129.426 -12.286)" opacity="0.3" fill="url(#linear-gradient-3)"/>
      </g>
    </g>
    <g id="property" transform="translate(1465.559 956)">
      <path id="Path_50" data-name="Path 50" d="M71.083,49H43.817A6.817,6.817,0,0,0,37,55.817v40.9a6.817,6.817,0,0,0,6.817,6.817H71.083A6.817,6.817,0,0,0,77.9,96.717v-40.9A6.817,6.817,0,0,0,71.083,49ZM64.267,89.9H50.633V62.633H64.267Z" transform="translate(186.133 273.383)" fill="#29b3ba"/>
      <path id="Path_51" data-name="Path 51" d="M81.083,49H53.817A6.817,6.817,0,0,0,47,55.817v40.9a6.817,6.817,0,0,0,6.817,6.817H81.083A6.817,6.817,0,0,0,87.9,96.717v-40.9A6.817,6.817,0,0,0,81.083,49ZM74.267,89.9H60.633V62.633H74.267Z" transform="translate(244.3 273.383)" fill="#29b3ba"/>
      <path id="Path_52" data-name="Path 52" d="M27.817,103.533H55.083A6.817,6.817,0,0,0,61.9,96.717v-40.9A6.817,6.817,0,0,0,55.083,49H27.817A6.817,6.817,0,0,0,21,55.817v40.9A6.817,6.817,0,0,0,27.817,103.533Zm6.817-40.9H48.267V89.9H34.633Z" transform="translate(93.067 273.383)" fill="#29b3ba"/>
      <path id="Path_53" data-name="Path 53" d="M20.038,16.584l6.817,11.806a146.055,146.055,0,0,1,15.951-7.948L37.5,7.893a159.282,159.282,0,0,0-17.464,8.691Z" transform="translate(87.471 34.278)" fill="#29b3ba"/>
      <path id="Path_54" data-name="Path 54" d="M11.239,66.326l12.318,5.849A132.755,132.755,0,0,1,66.5,21.452L58.581,10.361A146.463,146.463,0,0,0,11.239,66.326Z" transform="translate(36.29 48.633)" fill="#29b3ba"/>
      <path id="Path_55" data-name="Path 55" d="M195.867,220.133V168.865a61.732,61.732,0,0,1,77.281,1.841,6.817,6.817,0,0,0,9.039,0,61.643,61.643,0,0,1,79.578,0A6.817,6.817,0,0,0,373.1,165.6C373.1,75.4,290.537,2,189.05,2S5,75.4,5,165.6a6.817,6.817,0,0,0,11.336,5.106,61.643,61.643,0,0,1,79.578,0,6.817,6.817,0,0,0,9.039,0,61.732,61.732,0,0,1,77.281-1.84v24h-81.8a6.817,6.817,0,0,0-2.318.45c-.211.082-.4.191-.607.286a6.72,6.72,0,0,0-1.547,1.029c-.109.1-.245.129-.348.232L7,283.481A6.817,6.817,0,0,0,5,288.3V404.183A6.817,6.817,0,0,0,11.817,411H366.283a6.817,6.817,0,0,0,6.817-6.817V288.3c0-.15-.075-.273-.082-.423a6.764,6.764,0,0,0-.368-1.8,6.473,6.473,0,0,0-.225-.641,6.9,6.9,0,0,0-1.3-1.936h0l-88.617-88.617a6.817,6.817,0,0,0-4.84-2.018h-61.35V206.5h58.528l74.983,74.983H191.872L116.889,206.5h65.345v13.633Zm-95.433-63.3a76.5,76.5,0,0,0-81.118-4.867C27.168,75.654,100.3,15.633,189.05,15.633S350.932,75.654,358.785,151.967a76.5,76.5,0,0,0-81.118,4.84,76.231,76.231,0,0,0-88.617,0,76.238,76.238,0,0,0-88.617.027Zm95.433,138.283h163.6v102.25h-163.6ZM86.8,397.367H59.533v-61.35H86.8Zm95.433-106.245V397.367h-81.8V329.2a6.817,6.817,0,0,0-6.817-6.817h-40.9A6.817,6.817,0,0,0,45.9,329.2v68.167H18.633V291.122l81.8-81.8Z" transform="translate(0)" fill="#29b3ba"/>
    </g>
    <g id="property-2" data-name="property" transform="translate(1474.559 952)">
      <path id="Path_50-2" data-name="Path 50" d="M71.083,49H43.817A6.817,6.817,0,0,0,37,55.817v40.9a6.817,6.817,0,0,0,6.817,6.817H71.083A6.817,6.817,0,0,0,77.9,96.717v-40.9A6.817,6.817,0,0,0,71.083,49ZM64.267,89.9H50.633V62.633H64.267Z" transform="translate(186.133 273.383)" fill="#fff"/>
      <path id="Path_51-2" data-name="Path 51" d="M81.083,49H53.817A6.817,6.817,0,0,0,47,55.817v40.9a6.817,6.817,0,0,0,6.817,6.817H81.083A6.817,6.817,0,0,0,87.9,96.717v-40.9A6.817,6.817,0,0,0,81.083,49ZM74.267,89.9H60.633V62.633H74.267Z" transform="translate(244.3 273.383)" fill="#fff"/>
      <path id="Path_52-2" data-name="Path 52" d="M27.817,103.533H55.083A6.817,6.817,0,0,0,61.9,96.717v-40.9A6.817,6.817,0,0,0,55.083,49H27.817A6.817,6.817,0,0,0,21,55.817v40.9A6.817,6.817,0,0,0,27.817,103.533Zm6.817-40.9H48.267V89.9H34.633Z" transform="translate(93.067 273.383)" fill="#fff"/>
      <path id="Path_53-2" data-name="Path 53" d="M20.038,16.584l6.817,11.806a146.055,146.055,0,0,1,15.951-7.948L37.5,7.893a159.282,159.282,0,0,0-17.464,8.691Z" transform="translate(87.471 34.278)" fill="#fff"/>
      <path id="Path_54-2" data-name="Path 54" d="M11.239,66.326l12.318,5.849A132.755,132.755,0,0,1,66.5,21.452L58.581,10.361A146.463,146.463,0,0,0,11.239,66.326Z" transform="translate(36.29 48.633)" fill="#fff"/>
      <path id="Path_55-2" data-name="Path 55" d="M195.867,220.133V168.865a61.732,61.732,0,0,1,77.281,1.841,6.817,6.817,0,0,0,9.039,0,61.643,61.643,0,0,1,79.578,0A6.817,6.817,0,0,0,373.1,165.6C373.1,75.4,290.537,2,189.05,2S5,75.4,5,165.6a6.817,6.817,0,0,0,11.336,5.106,61.643,61.643,0,0,1,79.578,0,6.817,6.817,0,0,0,9.039,0,61.732,61.732,0,0,1,77.281-1.84v24h-81.8a6.817,6.817,0,0,0-2.318.45c-.211.082-.4.191-.607.286a6.72,6.72,0,0,0-1.547,1.029c-.109.1-.245.129-.348.232L7,283.481A6.817,6.817,0,0,0,5,288.3V404.183A6.817,6.817,0,0,0,11.817,411H366.283a6.817,6.817,0,0,0,6.817-6.817V288.3c0-.15-.075-.273-.082-.423a6.764,6.764,0,0,0-.368-1.8,6.473,6.473,0,0,0-.225-.641,6.9,6.9,0,0,0-1.3-1.936h0l-88.617-88.617a6.817,6.817,0,0,0-4.84-2.018h-61.35V206.5h58.528l74.983,74.983H191.872L116.889,206.5h65.345v13.633Zm-95.433-63.3a76.5,76.5,0,0,0-81.118-4.867C27.168,75.654,100.3,15.633,189.05,15.633S350.932,75.654,358.785,151.967a76.5,76.5,0,0,0-81.118,4.84,76.231,76.231,0,0,0-88.617,0,76.238,76.238,0,0,0-88.617.027Zm95.433,138.283h163.6v102.25h-163.6ZM86.8,397.367H59.533v-61.35H86.8Zm95.433-106.245V397.367h-81.8V329.2a6.817,6.817,0,0,0-6.817-6.817h-40.9A6.817,6.817,0,0,0,45.9,329.2v68.167H18.633V291.122l81.8-81.8Z" transform="translate(0)" fill="#fff"/>
    </g>
  </g>
</svg>
