<svg xmlns="http://www.w3.org/2000/svg" xmlns:xlink="http://www.w3.org/1999/xlink" width="1062.334" height="931.538" viewBox="0 0 1062.334 931.538">
  <defs>
    <linearGradient id="linear-gradient" x1="0.5" x2="0.5" y2="1" gradientUnits="objectBoundingBox">
      <stop offset="0" stop-color="#ff63de"/>
      <stop offset="1" stop-color="#59c2ff"/>
    </linearGradient>
  </defs>
  <g id="Group_80" data-name="Group 80" transform="translate(392.334 -1704.666)">
    <g id="peoplebg" transform="translate(-392.334 1704.666)">
      <path id="Ellipse_51" data-name="Ellipse 51" d="M531.167,0C736.514,0,854.541,117.986,942.895,274.831c37.931,67.335,119.439,132.959,119.439,213.943,0,269.942-237.812,442.764-531.167,442.764S0,758.716,0,488.774,237.812,0,531.167,0Z" transform="translate(0 0)" opacity="0.15" fill="url(#linear-gradient)"/>
      <path id="Ellipse_52" data-name="Ellipse 52" d="M433.118,0C605.344,0,694.511,104.757,764.407,236.106c27.046,50.825,101.829,93.79,101.829,154.139,0,215.527-193.914,345.195-433.118,345.195S0,605.772,0,390.245,193.913,0,433.118,0Z" transform="translate(98.049 98.049)" opacity="0.15" fill="url(#linear-gradient)"/>
      <path id="Ellipse_53" data-name="Ellipse 53" d="M322.914,0c114.85,0,183.46,71,240.613,148.95,31.741,43.289,82.3,75.3,82.3,130.176,0,154.157-144.573,235.906-322.914,235.906S0,433.283,0,279.126,144.573,0,322.914,0Z" transform="translate(208.253 208.253)" opacity="0.15" fill="url(#linear-gradient)"/>
    </g>
    <g id="_24-hours" data-name="24-hours" transform="translate(91.445 1994.173)">
      <path id="Path_83" data-name="Path 83" d="M172.267,93.031A108.236,108.236,0,1,0,280.5,201.267,108.238,108.238,0,0,0,172.267,93.031Zm0,205.648a97.412,97.412,0,1,1,97.412-97.412A97.412,97.412,0,0,1,172.267,298.679Zm0,0" transform="translate(-20.707 -30.099)" fill="#b122e5"/>
      <path id="Path_84" data-name="Path 84" d="M96.031,245.031h10.824v10.824H96.031Zm0,0" transform="translate(-31.06 -79.275)" fill="#b122e5"/>
      <path id="Path_85" data-name="Path 85" d="M216.031,365.031h10.824v10.824H216.031Zm0,0" transform="translate(-69.884 -118.098)" fill="#b122e5"/>
      <path id="Path_86" data-name="Path 86" d="M336.031,245.031h10.824v10.824H336.031Zm0,0" transform="translate(-108.707 -79.275)" fill="#b122e5"/>
      <path id="Path_87" data-name="Path 87" d="M216.031,125.031h10.824v10.824H216.031Zm0,0" transform="translate(-69.884 -40.451)" fill="#b122e5"/>
      <path id="Path_88" data-name="Path 88" d="M200.5,256.325H178.855V245.5H195.09a5.412,5.412,0,0,0,5.412-5.412V218.443a5.412,5.412,0,0,0-5.412-5.412H173.443a5.412,5.412,0,0,0-5.412,5.412v10.824h10.824v-5.412h10.824v10.824H173.443a5.412,5.412,0,0,0-5.412,5.412v21.647a5.412,5.412,0,0,0,5.412,5.412H200.5Zm0,0" transform="translate(-54.354 -68.922)" fill="#b122e5"/>
      <path id="Path_89" data-name="Path 89" d="M253.678,234.678H242.855V213.031H232.031V240.09a5.412,5.412,0,0,0,5.412,5.412h16.235v21.647H264.5V213.031H253.678Zm0,0" transform="translate(-75.06 -68.922)" fill="#b122e5"/>
      <path id="Path_90" data-name="Path 90" d="M292.266,171.168A140.705,140.705,0,1,1,139.491,31L126.546,46.438l8.287,6.955L155.705,28.5a5.413,5.413,0,0,0-.666-7.626L130.145,0l-6.936,8.324,14.28,11.992a151.531,151.531,0,1,0,165.6,150.853Zm0,0" transform="translate(0)" fill="#b122e5"/>
      <path id="Path_91" data-name="Path 91" d="M417.207,173.94l10.147-3.76c-1.295-3.5-2.74-6.981-4.286-10.364l-9.846,4.508c1.44,3.139,2.777,6.374,3.985,9.616Zm0,0" transform="translate(-133.68 -51.705)" fill="#b122e5"/>
      <path id="Path_92" data-name="Path 92" d="M403.748,145.631l9.481-5.222c-1.786-3.248-3.729-6.5-5.774-9.616l-9.072,5.914c1.905,2.912,3.707,5.917,5.364,8.924Zm0,0" transform="translate(-128.88 -42.316)" fill="#b122e5"/>
      <path id="Path_93" data-name="Path 93" d="M426.421,203.991l10.591-2.209c-.758-3.67-1.667-7.333-2.706-10.895l-10.4,3c.965,3.322,1.8,6.7,2.518,10.1Zm0,0" transform="translate(-137.136 -61.757)" fill="#b122e5"/>
      <path id="Path_94" data-name="Path 94" d="M431.2,235.137l10.824-.629c-.217-3.723-.568-7.478-1.083-11.164l-10.731,1.419c.454,3.425.79,6.915.991,10.374Zm0,0" transform="translate(-139.175 -72.258)" fill="#b122e5"/>
      <path id="Path_95" data-name="Path 95" d="M386.331,119.683l8.6-6.577c-2.273-2.97-4.675-5.882-7.132-8.657l-8.118,7.185c2.312,2.576,4.569,5.282,6.651,8.049Zm0,0" transform="translate(-122.828 -33.793)" fill="#b122e5"/>
      <path id="Path_96" data-name="Path 96" d="M319.675,51.547c-3.311-1.71-6.73-3.316-10.158-4.778l-4.236,9.962c3.182,1.353,6.358,2.841,9.436,4.431Zm0,0" transform="translate(-98.759 -15.132)" fill="#b122e5"/>
      <path id="Path_97" data-name="Path 97" d="M289.59,39.327c-3.512-1.194-7.137-2.278-10.763-3.213l-2.706,10.477c3.367.869,6.725,1.871,9.978,2.981Zm0,0" transform="translate(-89.324 -11.684)" fill="#b122e5"/>
      <path id="Path_98" data-name="Path 98" d="M258.074,31.811c-3.649-.658-7.388-1.189-11.106-1.58L245.848,41c3.454.357,6.923.848,10.282,1.461Zm0,0" transform="translate(-79.53 -9.781)" fill="#b122e5"/>
      <path id="Path_99" data-name="Path 99" d="M347.663,68.194c-3.02-2.164-6.165-4.265-9.352-6.218L332.656,71.2c2.96,1.818,5.877,3.787,8.659,5.774Zm0,0" transform="translate(-107.615 -20.051)" fill="#b122e5"/>
      <path id="Path_100" data-name="Path 100" d="M372.909,88.875c-2.661-2.592-5.459-5.126-8.324-7.523l-6.952,8.292c2.65,2.228,5.259,4.577,7.732,6.987Zm0,0" transform="translate(-115.696 -26.32)" fill="#b122e5"/>
    </g>
    <g id="_24-hours-2" data-name="24-hours" transform="translate(84.445 1991.173)">
      <path id="Path_83-2" data-name="Path 83" d="M172.267,93.031A108.236,108.236,0,1,0,280.5,201.267,108.238,108.238,0,0,0,172.267,93.031Zm0,205.648a97.412,97.412,0,1,1,97.412-97.412A97.412,97.412,0,0,1,172.267,298.679Zm0,0" transform="translate(-20.707 -30.099)" fill="#fff"/>
      <path id="Path_84-2" data-name="Path 84" d="M96.031,245.031h10.824v10.824H96.031Zm0,0" transform="translate(-31.06 -79.275)" fill="#fff"/>
      <path id="Path_85-2" data-name="Path 85" d="M216.031,365.031h10.824v10.824H216.031Zm0,0" transform="translate(-69.884 -118.098)" fill="#fff"/>
      <path id="Path_86-2" data-name="Path 86" d="M336.031,245.031h10.824v10.824H336.031Zm0,0" transform="translate(-108.707 -79.275)" fill="#fff"/>
      <path id="Path_87-2" data-name="Path 87" d="M216.031,125.031h10.824v10.824H216.031Zm0,0" transform="translate(-69.884 -40.451)" fill="#fff"/>
      <path id="Path_88-2" data-name="Path 88" d="M200.5,256.325H178.855V245.5H195.09a5.412,5.412,0,0,0,5.412-5.412V218.443a5.412,5.412,0,0,0-5.412-5.412H173.443a5.412,5.412,0,0,0-5.412,5.412v10.824h10.824v-5.412h10.824v10.824H173.443a5.412,5.412,0,0,0-5.412,5.412v21.647a5.412,5.412,0,0,0,5.412,5.412H200.5Zm0,0" transform="translate(-54.354 -68.922)" fill="#fff"/>
      <path id="Path_89-2" data-name="Path 89" d="M253.678,234.678H242.855V213.031H232.031V240.09a5.412,5.412,0,0,0,5.412,5.412h16.235v21.647H264.5V213.031H253.678Zm0,0" transform="translate(-75.06 -68.922)" fill="#fff"/>
      <path id="Path_90-2" data-name="Path 90" d="M292.266,171.168A140.705,140.705,0,1,1,139.491,31L126.546,46.438l8.287,6.955L155.705,28.5a5.413,5.413,0,0,0-.666-7.626L130.145,0l-6.936,8.324,14.28,11.992a151.531,151.531,0,1,0,165.6,150.853Zm0,0" transform="translate(0)" fill="#fff"/>
      <path id="Path_91-2" data-name="Path 91" d="M417.207,173.94l10.147-3.76c-1.295-3.5-2.74-6.981-4.286-10.364l-9.846,4.508c1.44,3.139,2.777,6.374,3.985,9.616Zm0,0" transform="translate(-133.68 -51.705)" fill="#fff"/>
      <path id="Path_92-2" data-name="Path 92" d="M403.748,145.631l9.481-5.222c-1.786-3.248-3.729-6.5-5.774-9.616l-9.072,5.914c1.905,2.912,3.707,5.917,5.364,8.924Zm0,0" transform="translate(-128.88 -42.316)" fill="#fff"/>
      <path id="Path_93-2" data-name="Path 93" d="M426.421,203.991l10.591-2.209c-.758-3.67-1.667-7.333-2.706-10.895l-10.4,3c.965,3.322,1.8,6.7,2.518,10.1Zm0,0" transform="translate(-137.136 -61.757)" fill="#fff"/>
      <path id="Path_94-2" data-name="Path 94" d="M431.2,235.137l10.824-.629c-.217-3.723-.568-7.478-1.083-11.164l-10.731,1.419c.454,3.425.79,6.915.991,10.374Zm0,0" transform="translate(-139.175 -72.258)" fill="#fff"/>
      <path id="Path_95-2" data-name="Path 95" d="M386.331,119.683l8.6-6.577c-2.273-2.97-4.675-5.882-7.132-8.657l-8.118,7.185c2.312,2.576,4.569,5.282,6.651,8.049Zm0,0" transform="translate(-122.828 -33.793)" fill="#fff"/>
      <path id="Path_96-2" data-name="Path 96" d="M319.675,51.547c-3.311-1.71-6.73-3.316-10.158-4.778l-4.236,9.962c3.182,1.353,6.358,2.841,9.436,4.431Zm0,0" transform="translate(-98.759 -15.132)" fill="#fff"/>
      <path id="Path_97-2" data-name="Path 97" d="M289.59,39.327c-3.512-1.194-7.137-2.278-10.763-3.213l-2.706,10.477c3.367.869,6.725,1.871,9.978,2.981Zm0,0" transform="translate(-89.324 -11.684)" fill="#fff"/>
      <path id="Path_98-2" data-name="Path 98" d="M258.074,31.811c-3.649-.658-7.388-1.189-11.106-1.58L245.848,41c3.454.357,6.923.848,10.282,1.461Zm0,0" transform="translate(-79.53 -9.781)" fill="#fff"/>
      <path id="Path_99-2" data-name="Path 99" d="M347.663,68.194c-3.02-2.164-6.165-4.265-9.352-6.218L332.656,71.2c2.96,1.818,5.877,3.787,8.659,5.774Zm0,0" transform="translate(-107.615 -20.051)" fill="#fff"/>
      <path id="Path_100-2" data-name="Path 100" d="M372.909,88.875c-2.661-2.592-5.459-5.126-8.324-7.523l-6.952,8.292c2.65,2.228,5.259,4.577,7.732,6.987Zm0,0" transform="translate(-115.696 -26.32)" fill="#fff"/>
    </g>
  </g>
</svg>
