<svg xmlns="http://www.w3.org/2000/svg" xmlns:xlink="http://www.w3.org/1999/xlink" width="107.892" height="100.167" viewBox="0 0 107.892 100.167">
  <defs>
    <linearGradient id="linear-gradient" x1="0.5" x2="0.5" y2="1" gradientUnits="objectBoundingBox">
      <stop offset="0" stop-color="#ffdf40"/>
      <stop offset="1" stop-color="#ff8359"/>
    </linearGradient>
  </defs>
  <g id="hand" transform="translate(0 -0.5)">
    <path id="Path_23" data-name="Path 23" d="M192.786,25.357c-.645,0-.888-.136-2.6-1.2-.82-.51-2.083-1.324-3.447-2.3-3.651-2.6-5.887-4.792-6.837-6.691a11.329,11.329,0,0,1-.971-7.431,9.39,9.39,0,0,1,3.791-5.862A7.89,7.89,0,0,1,189.138.737a7.24,7.24,0,0,1,3.649,2.193A7.234,7.234,0,0,1,196.435.737a7.892,7.892,0,0,1,6.414,1.139,9.4,9.4,0,0,1,3.791,5.862,11.338,11.338,0,0,1-.971,7.431c-.95,1.9-3.186,4.088-6.837,6.691-1.363.973-2.627,1.785-3.447,2.3-1.711,1.065-1.953,1.2-2.6,1.2Zm-5.623-20.64a3.6,3.6,0,0,0-2.065.641,5.21,5.21,0,0,0-2.046,3.27,7.105,7.105,0,0,0,.621,4.655c1.167,2.335,6.649,6.031,9.112,7.533,2.463-1.5,7.945-5.2,9.112-7.533a7.105,7.105,0,0,0,.621-4.655,5.213,5.213,0,0,0-2.045-3.27,3.732,3.732,0,0,0-3.074-.519c-.784.184-1.184.579-2.329,1.8-.239.254-.494.524-.775.813a2.107,2.107,0,0,1-3.024,0c-.281-.289-.536-.56-.775-.813-1.145-1.217-1.544-1.612-2.329-1.8a4.384,4.384,0,0,0-1.008-.122Zm0,0" transform="translate(-141.034)" fill="url(#linear-gradient)"/>
    <path id="Path_24" data-name="Path 24" d="M157.816,305.64a2.106,2.106,0,0,1-.411-.042,2.177,2.177,0,0,1-.394-.12,2.283,2.283,0,0,1-.365-.194,2.036,2.036,0,0,1-.581-.581,2.281,2.281,0,0,1-.194-.365,2.182,2.182,0,0,1-.12-.394,2.125,2.125,0,0,1,.575-1.9,2.129,2.129,0,0,1,.685-.455,2.18,2.18,0,0,1,.394-.12,2.1,2.1,0,0,1,.824,0,2.179,2.179,0,0,1,.394.12,2.129,2.129,0,0,1,.685.455,2.1,2.1,0,0,1,.575,1.9,2.182,2.182,0,0,1-.12.394,2.282,2.282,0,0,1-.194.365,2.489,2.489,0,0,1-.261.32,2.162,2.162,0,0,1-.32.261,2.282,2.282,0,0,1-.365.194,2.176,2.176,0,0,1-.394.12A2.111,2.111,0,0,1,157.816,305.64Zm0,0" transform="translate(-122.898 -237.512)" fill="url(#linear-gradient)"/>
    <path id="Path_25" data-name="Path 25" d="M107.888,176.943a9.066,9.066,0,0,0-9.071-8.683h-.612V143.434l.552.4a2.107,2.107,0,0,0,3.354-1.7V131.622a2.105,2.105,0,0,0-.859-1.7L73.015,109.181a2.106,2.106,0,0,0-2.495,0L57.848,118.49v-3.267a2.108,2.108,0,0,0-2.107-2.107H47.764a2.108,2.108,0,0,0-2.107,2.107v12.221l-3.375,2.48a2.107,2.107,0,0,0-.859,1.7v4.041c-6.9-3-17-2.782-23.089-2.287v-2a2.107,2.107,0,0,0-2.107-2.107H2.107A2.107,2.107,0,0,0,0,131.381v33.611A2.108,2.108,0,0,0,2.107,167.1H16.226a2.108,2.108,0,0,0,2.107-2.107V159.9H21.4a40.371,40.371,0,0,1,1.66,7.1c2.119,12.318,9.607,19.1,21.084,19.1l54.814.014a8.931,8.931,0,0,0,8.929-9.181Zm-13.9-8.683H81.835V147.1A2.108,2.108,0,0,0,79.728,145H63.807A2.107,2.107,0,0,0,61.7,147.1v5.219L48.647,140.944l23.118-16.933,22.226,16.326Zm-16.623,0a8.88,8.88,0,0,0-3.089-4.97L65.914,156v-6.784H77.62V168.26Zm-27.5-50.93h3.761v4.256l-3.761,2.762Zm-4.235,15.359,26.13-19.195L97.9,132.689v5.289L73.015,119.7a2.107,2.107,0,0,0-2.493,0L45.637,137.924Zm-31.518,30.2h-9.9v-29.4h9.9Zm88.223,17.6a4.681,4.681,0,0,1-3.381,1.427l-54.815-.014c-11.775,0-15.707-8.484-16.931-15.6a57.742,57.742,0,0,0-1.5-6.79c-.41-1.333-1.173-3.814-3.313-3.814h-4.07V137.607c6.1-.514,19.2-.984,24.393,3.765l.036.033,28.779,25.089c.022.02.044.039.067.057a4.717,4.717,0,0,1-5.885,7.375L41.646,154.4a2.108,2.108,0,0,0-2.655,3.274L63.08,177.207a8.865,8.865,0,0,0,5.564,1.96,9.116,9.116,0,0,0,1-.056,8.932,8.932,0,0,0,7.662-6.637h21.51a4.822,4.822,0,0,1,4.857,4.584,4.685,4.685,0,0,1-1.334,3.423Zm0,0" transform="translate(0 -85.456)" fill="url(#linear-gradient)"/>
  </g>
</svg>
