<?xml version="1.0" encoding="utf-8"?>
<!-- Generator: Adobe Illustrator 23.0.1, SVG Export Plug-In . SVG Version: 6.00 Build 0)  -->
<svg version="1.1" xmlns="http://www.w3.org/2000/svg" xmlns:xlink="http://www.w3.org/1999/xlink" x="0px" y="0px"
	 viewBox="0 0 1250 750" style="enable-background:new 0 0 1250 750;" xml:space="preserve">
<style type="text/css">
	.st0{fill:#FFFFFF;}
	.st1{fill:#272425;}
	.st2{fill:#46EEAA;}
	.st3{opacity:0.2;}
	.st4{fill:#FF63DE;}
	.st5{fill:#E5E5E6;}
	.st6{fill:#A5A6A9;}
	.st7{fill:#B122E5;}
	.st8{fill:#97CAEA;}
	.st9{fill:#CFD1D2;}
	.st10{fill:#D5EDFA;}
</style>
<g id="Bg">
</g>
<g id="Object">
	<g>
		<g>
			<g>
				<g>
					<path class="st0" d="M664.6,451.8c0-52.4-51.5-95.4-114.4-95.4s-114.4,42.9-114.4,95.4v177.6h228.9V451.8z"/>
				</g>
			</g>
		</g>
		<g>
			<g>
				<polygon class="st0" points="241.8,629.3 163.9,629.3 163.9,274.5 202.1,250.2 241.8,274.5 				"/>
			</g>
		</g>
		<g>
			<g>
				<rect x="853.2" y="275.9" class="st0" width="86.7" height="353"/>
			</g>
		</g>
		<g>
			<g>
				<rect x="868.4" y="266.5" class="st0" width="56.2" height="63.7"/>
			</g>
		</g>
		<g>
			<g>
				<rect x="323.2" y="298.3" class="st0" width="56.2" height="331.1"/>
			</g>
		</g>
		<g>
			<g>
				<polygon class="st0" points="1112.3,630.4 1002.6,630.4 1002.6,323.3 1112.3,369.3 				"/>
			</g>
		</g>
	</g>
	<g>
		<g>
			<g>
				<g>
					<rect x="1074.8" y="611.7" class="st1" width="2.5" height="19.4"/>
				</g>
			</g>
			<g>
				<g>
					<path class="st2" d="M1090.9,599.5c1.5-1.2,2.5-3.1,2.5-5.2c0-3.5-2.7-6.4-6.1-6.6c0.4-1,0.6-2.2,0.6-3.4
						c0-5.4-4.4-9.8-9.8-9.8c-4.7,0-8.6,3.3-9.6,7.8c-1.5-0.7-3.1-1.1-4.8-1.1c-6,0-10.9,4.9-10.9,10.9c0,4.9,3.2,9,7.7,10.4
						c-0.1,0.3-0.1,0.7-0.1,1c0,2.7,2.2,4.8,4.8,4.8c0.4,0,0.7,0,1.1-0.1c1.8,3.8,5.7,6.4,10.2,6.4c3.3,0,6.3-1.4,8.4-3.7
						c0.6,0.2,1.2,0.3,1.8,0.3c3.6,0,6.5-2.9,6.5-6.5C1093.3,602.5,1092.4,600.7,1090.9,599.5z"/>
				</g>
			</g>
			<g class="st3">
				<g>
					<g>
						<path class="st1" d="M1081.6,613.2c-3.9,0-7.4-2.3-8.9-5.7c-0.3,0.1-0.6,0.1-1,0.1c-2.3,0-4.2-1.9-4.2-4.2
							c0-0.3,0-0.6,0.1-0.9c-3.9-1.2-6.7-4.8-6.7-9.1c0-5.3,4.3-9.5,9.5-9.5c1.5,0,2.9,0.4,4.2,1c0.8-3.9,4.2-6.8,8.4-6.8
							c1.1,0,2.2,0.2,3.2,0.6c-1.8-2.5-4.7-4.2-8-4.2c-4.7,0-8.6,3.3-9.6,7.8c-1.5-0.7-3.1-1.1-4.8-1.1c-6,0-10.9,4.9-10.9,10.9
							c0,4.9,3.2,9,7.7,10.4c-0.1,0.3-0.1,0.7-0.1,1c0,2.7,2.2,4.8,4.8,4.8c0.4,0,0.7,0,1.1-0.1c1.8,3.8,5.7,6.4,10.2,6.4
							c1.9,0,3.8-0.5,5.4-1.4C1081.8,613.2,1081.7,613.2,1081.6,613.2z"/>
					</g>
				</g>
			</g>
			<g>
				<g>
					<path class="st1" d="M1076.6,615.8c-4.5,0-8.7-2.5-10.9-6.3c-0.1,0-0.3,0-0.4,0c-3.4,0-6.1-2.7-6.1-6.1c0-0.1,0-0.1,0-0.2
						c-4.6-1.8-7.6-6.2-7.6-11.2c0-6.7,5.4-12.1,12.1-12.1c1.4,0,2.7,0.2,4,0.7c1.5-4.3,5.7-7.3,10.4-7.3c6.1,0,11,4.9,11,11
						c0,0.8-0.1,1.6-0.3,2.4c3.4,0.9,5.8,4,5.8,7.6c0,2-0.7,3.8-2,5.3c1.2,1.4,1.9,3.2,1.9,5.1c0,4.3-3.5,7.8-7.8,7.8
						c-0.5,0-0.9,0-1.4-0.1C1083,614.5,1079.9,615.8,1076.6,615.8z M1067.1,606.7l0.4,0.9c1.7,3.5,5.2,5.7,9.1,5.7
						c2.8,0,5.6-1.2,7.5-3.3l0.5-0.6l0.7,0.2c0.5,0.1,1,0.2,1.5,0.2c2.9,0,5.3-2.4,5.3-5.3c0-1.6-0.7-3.1-2-4.1l-1.2-1l1.2-1
						c1.3-1,2.1-2.6,2.1-4.3c0-2.8-2.2-5.2-5-5.4l-1.6-0.1l0.6-1.5c0.3-0.9,0.5-1.9,0.5-2.9c0-4.7-3.8-8.5-8.5-8.5
						c-4,0-7.5,2.8-8.3,6.8l-0.3,1.6l-1.4-0.7c-1.3-0.7-2.8-1-4.3-1c-5.3,0-9.6,4.3-9.6,9.6c0,4.3,2.7,8,6.8,9.2l1.1,0.3l-0.2,1.1
						c-0.1,0.3-0.1,0.5-0.1,0.8c0,2,1.6,3.6,3.6,3.6c0.3,0,0.5,0,0.8-0.1L1067.1,606.7z"/>
				</g>
			</g>
		</g>
		<g class="st3">
			<g>
				<path class="st1" d="M1083.4,605.5c-2.4-1.3-3.6-3.9-3.3-6.4c-1.3,0.1-2.7-0.1-4-0.8c-3.2-1.8-4.4-5.9-2.6-9.1
					c0.2-0.4,0.4-0.7,0.7-1c-1.1,0.6-2,1.5-2.7,2.6c-1.8,3.2-0.6,7.3,2.6,9.1c1.3,0.7,2.7,1,4,0.8c-0.3,2.5,0.9,5.1,3.3,6.4
					c2.8,1.6,6.2,0.8,8.2-1.5C1087.8,606.6,1085.4,606.6,1083.4,605.5z"/>
			</g>
		</g>
	</g>
	<g>
		<g>
			<g>
				<g>
					<rect x="901.7" y="603.7" class="st1" width="2.5" height="28.6"/>
				</g>
			</g>
			<g>
				<g>
					<path class="st2" d="M878.4,577.6c0.4,0,0.9,0,1.3,0.1c0.3-3.2,1.9-6.1,4.3-8.1c-2.6-2.1-4.3-5.3-4.3-8.9
						c0-6.2,5-11.3,11.3-11.3c6.2,0,11.2,5,11.3,11.2c1.2-0.7,2.6-1,4-1c1.2,0,2.3,0.2,3.3,0.7c0.5-5.3,4.9-9.4,10.3-9.4
						c5.7,0,10.4,4.6,10.4,10.4c0,1.1-0.2,2.2-0.5,3.2c0.2,0,0.3,0,0.5,0c4.4,0,8,3.6,8,8c0,4.4-3.6,8-8,8c-1.2,0-2.4-0.3-3.4-0.8
						c-0.1,0.8-0.4,1.6-0.7,2.4c2.4,1.1,4.1,3.5,4.1,6.3c0,3.8-3.1,6.9-6.9,6.9c-1.1,0-2.1-0.2-2.9-0.7c0,0.2,0,0.4,0,0.7
						c0,10-8.1,18.2-18.2,18.2c-9.4,0-17.1-7.1-18.1-16.2c-1.6,1-3.6,1.7-5.7,1.7c-5.9,0-10.7-4.8-10.7-10.7
						C867.7,582.4,872.5,577.6,878.4,577.6z"/>
				</g>
			</g>
			<g class="st3">
				<g>
					<g>
						<path class="st1" d="M881.9,567.2c-0.1,0-0.1,0.1-0.2,0.2c-0.2-0.2-0.3-0.5-0.5-0.7C881.5,566.8,881.7,567,881.9,567.2z"/>
					</g>
				</g>
				<g>
					<g>
						<path class="st1" d="M877.1,592.9c1.8,0,3.6-0.5,5-1.4c0.2,2.1,0.9,4.1,1.8,5.9c-1.6,1-3.5,1.6-5.5,1.6
							c-5.9,0-10.7-4.8-10.7-10.7c0-0.8,0.1-1.6,0.3-2.4C869,589.9,872.7,592.9,877.1,592.9z"/>
					</g>
				</g>
				<g>
					<g>
						<path class="st1" d="M897.9,605.7c8.8,0,15.9-7.1,15.9-15.9c0-0.2,0-0.4,0-0.6c0.8,0.4,1.7,0.6,2.6,0.6c3.3,0,6.1-2.7,6.1-6.1
							c0-2.5-1.5-4.6-3.6-5.5c0.3-0.7,0.5-1.4,0.6-2.1c0.9,0.4,1.9,0.7,3,0.7c3.9,0,7-3.1,7-7c0-3.9-3.1-7-7-7c-0.1,0-0.3,0-0.4,0
							c0.3-0.9,0.4-1.8,0.4-2.8c0-3.9-2.4-7.2-5.9-8.5c1-0.3,2.1-0.5,3.2-0.5c5.7,0,10.4,4.6,10.4,10.4c0,1.1-0.2,2.2-0.5,3.2
							c0.2,0,0.3,0,0.5,0c4.4,0,8,3.6,8,8c0,4.4-3.6,8-8,8c-1.2,0-2.4-0.3-3.4-0.8c-0.1,0.8-0.4,1.6-0.7,2.4
							c2.4,1.1,4.1,3.5,4.1,6.3c0,3.8-3.1,6.9-6.9,6.9c-1.1,0-2.1-0.2-2.9-0.7c0,0.2,0,0.4,0,0.7c0,10-8.1,18.2-18.2,18.2
							c-9.2,0-16.8-6.8-18-15.7C886.9,602.5,892.1,605.7,897.9,605.7z"/>
					</g>
				</g>
			</g>
			<g>
				<g>
					<path class="st1" d="M902.2,614.7c-9.3,0-17.2-6.6-19-15.5c-1.5,0.6-3.1,1-4.7,1c-6.6,0-11.9-5.3-11.9-11.9
						c0-6.6,5.3-11.9,11.9-11.9c0.1,0,0.1,0,0.2,0c0.5-2.5,1.7-4.9,3.5-6.8c-2.4-2.3-3.7-5.5-3.7-8.9c0-6.9,5.6-12.5,12.5-12.5
						c6.3,0,11.5,4.6,12.4,10.6c1.7-0.5,3.5-0.6,5.2-0.2c1.2-5.2,5.8-9,11.3-9c6.4,0,11.6,5.2,11.6,11.6c0,0.7-0.1,1.3-0.2,2
						c4.6,0.5,8.2,4.5,8.2,9.2c0,5.1-4.2,9.3-9.3,9.3c-0.9,0-1.7-0.1-2.6-0.4c0,0,0,0.1,0,0.1c2.4,1.5,3.8,4.1,3.8,6.9
						c0,4.5-3.7,8.2-8.2,8.2c-0.6,0-1.2-0.1-1.7-0.2C921,606.5,912.5,614.7,902.2,614.7z M885.1,595.1l0.2,2
						c0.9,8.6,8.2,15.1,16.8,15.1c9.3,0,16.9-7.6,16.9-16.9c0-0.2,0-0.4,0-0.6l-0.1-2l1.9,0.9c0.8,0.4,1.6,0.5,2.4,0.5
						c3.1,0,5.7-2.5,5.7-5.7c0-2.2-1.3-4.3-3.4-5.2l-1.1-0.5l0.4-1.1c0.3-0.7,0.5-1.4,0.6-2.1l0.3-1.6l1.5,0.7
						c0.9,0.4,1.9,0.7,2.9,0.7c3.7,0,6.8-3,6.8-6.8c0-3.7-3-6.8-6.8-6.8c-0.1,0-0.3,0-0.4,0l-1.8,0.1l0.6-1.7
						c0.3-0.9,0.4-1.8,0.4-2.8c0-5-4.1-9.1-9.1-9.1c-4.7,0-8.6,3.5-9.1,8.2l-0.2,1.7l-1.6-0.7c-2-0.9-4.3-0.7-6.2,0.3l-1.8,1l0-2.1
						c0-5.5-4.5-10-10-10c-5.5,0-10,4.5-10,10c0,3.1,1.4,6,3.8,7.9l1.2,0.9l-1.1,1c-2.2,1.9-3.5,4.5-3.8,7.3l-0.1,1.3l-1.3-0.1
						c-0.4,0-0.8-0.1-1.1-0.1c-5.2,0-9.4,4.2-9.4,9.4c0,5.2,4.2,9.4,9.4,9.4c1.8,0,3.5-0.5,5-1.5L885.1,595.1z"/>
				</g>
			</g>
		</g>
		<g class="st3">
			<g>
				<path class="st1" d="M899.6,592c2.2-2.8,2.3-6.5,0.7-9.3c1.7-0.5,3.2-1.5,4.4-3c3-3.8,2.3-9.2-1.4-12.2
					c-0.4-0.3-0.9-0.6-1.4-0.9c1.6,0.2,3.2,0.8,4.5,1.8c3.8,3,4.4,8.4,1.4,12.2c-1.2,1.5-2.7,2.5-4.4,3c1.6,2.9,1.4,6.6-0.7,9.3
					c-2.6,3.2-7,4.1-10.6,2.2C894.9,595.5,897.7,594.4,899.6,592z"/>
			</g>
		</g>
	</g>
	<g>
		<g>
			<polygon class="st4" points="867.6,631.5 715.9,631.5 715.9,416.8 790.3,358.6 867.6,416.8 			"/>
		</g>
		<g>
			<path class="st1" d="M868.8,632.7H714.7V416.2l75.6-59.2l78.6,59.2V632.7z M717.2,630.2h149.2V417.4l-76.1-57.3l-73.1,57.2V630.2
				z"/>
		</g>
	</g>
	<g class="st3">
		<g>
			<polygon class="st1" points="788.6,368 788.6,631.5 738.2,631.5 738.2,406.2 			"/>
		</g>
	</g>
	<g>
		<g>
			<g>
				<polygon class="st5" points="876.1,434.1 788.6,368 704.6,434 695.3,422.2 788.4,349.1 885.1,422.1 				"/>
			</g>
			<g>
				<path class="st1" d="M876.3,435.8l-87.7-66.2l-84.2,66.1L693.6,422l94.8-74.4l98.5,74.3L876.3,435.8z M788.6,366.4l87.3,65.9
					l7.5-10l-94.9-71.7l-91.3,71.7l7.7,9.8L788.6,366.4z"/>
			</g>
		</g>
	</g>
	<g>
		<g>
			<rect x="730.3" y="473" class="st0" width="53.6" height="9.1"/>
		</g>
		<g>
			<path class="st1" d="M785.2,483.3h-56.1v-11.6h56.1V483.3z M731.6,480.8h51.2v-6.6h-51.2V480.8z"/>
		</g>
	</g>
	<g class="st3">
		<g>
			<rect x="795.5" y="476.3" class="st1" width="53.6" height="9.1"/>
		</g>
	</g>
	<g class="st3">
		<g>
			<rect x="795.5" y="496.5" class="st1" width="53.6" height="9.1"/>
		</g>
	</g>
	<g class="st3">
		<g>
			<rect x="795.5" y="516.7" class="st1" width="53.6" height="9.1"/>
		</g>
	</g>
	<g class="st3">
		<g>
			<rect x="795.5" y="536.9" class="st1" width="53.6" height="9.1"/>
		</g>
	</g>
	<g class="st3">
		<g>
			<rect x="795.5" y="557.1" class="st1" width="53.6" height="9.1"/>
		</g>
	</g>
	<g>
		<g>
			<rect x="799.6" y="473" class="st0" width="53.6" height="9.1"/>
		</g>
		<g>
			<path class="st1" d="M854.4,483.3h-56.1v-11.6h56.1V483.3z M800.8,480.8h51.2v-6.6h-51.2V480.8z"/>
		</g>
	</g>
	<g>
		<g>
			<rect x="730.3" y="493.2" class="st0" width="53.6" height="9.1"/>
		</g>
		<g>
			<path class="st1" d="M785.2,503.5h-56.1v-11.6h56.1V503.5z M731.6,501h51.2v-6.6h-51.2V501z"/>
		</g>
	</g>
	<g>
		<g>
			<rect x="799.6" y="493.2" class="st0" width="53.6" height="9.1"/>
		</g>
		<g>
			<path class="st1" d="M854.4,503.5h-56.1v-11.6h56.1V503.5z M800.8,501h51.2v-6.6h-51.2V501z"/>
		</g>
	</g>
	<g>
		<g>
			<rect x="730.3" y="513.4" class="st0" width="53.6" height="9.1"/>
		</g>
		<g>
			<path class="st1" d="M785.2,523.7h-56.1v-11.6h56.1V523.7z M731.6,521.2h51.2v-6.6h-51.2V521.2z"/>
		</g>
	</g>
	<g>
		<g>
			<rect x="799.6" y="513.4" class="st0" width="53.6" height="9.1"/>
		</g>
		<g>
			<path class="st1" d="M854.4,523.7h-56.1v-11.6h56.1V523.7z M800.8,521.2h51.2v-6.6h-51.2V521.2z"/>
		</g>
	</g>
	<g>
		<g>
			<rect x="730.3" y="533.6" class="st0" width="53.6" height="9.1"/>
		</g>
		<g>
			<path class="st1" d="M785.2,543.9h-56.1v-11.6h56.1V543.9z M731.6,541.4h51.2v-6.6h-51.2V541.4z"/>
		</g>
	</g>
	<g>
		<g>
			<rect x="799.6" y="533.6" class="st0" width="53.6" height="9.1"/>
		</g>
		<g>
			<path class="st1" d="M854.4,543.9h-56.1v-11.6h56.1V543.9z M800.8,541.4h51.2v-6.6h-51.2V541.4z"/>
		</g>
	</g>
	<g>
		<g>
			<rect x="730.3" y="553.8" class="st0" width="53.6" height="9.1"/>
		</g>
		<g>
			<path class="st1" d="M785.2,564.1h-56.1v-11.6h56.1V564.1z M731.6,561.6h51.2V555h-51.2V561.6z"/>
		</g>
	</g>
	<g>
		<g>
			<rect x="799.6" y="553.8" class="st0" width="53.6" height="9.1"/>
		</g>
		<g>
			<path class="st1" d="M854.4,564.1h-56.1v-11.6h56.1V564.1z M800.8,561.6h51.2V555h-51.2V561.6z"/>
		</g>
	</g>
	<g>
		<g>
			
				<rect x="692.3" y="387.3" transform="matrix(0.7886 -0.6149 0.6149 0.7886 -81.1699 540.8805)" class="st1" width="107.6" height="2.5"/>
		</g>
	</g>
	<g>
		<g>
			
				<rect x="710.6" y="414.5" transform="matrix(0.7886 -0.6149 0.6149 0.7886 -103.6389 530.0426)" class="st1" width="17.1" height="2.5"/>
		</g>
	</g>
	<g>
		<g>
			<polygon class="st6" points="217.4,394.3 511.1,394.3 550.1,491.8 175.5,491.8 			"/>
		</g>
		<g>
			<path class="st1" d="M552,493H173.6l43-100H512l0.3,0.8L552,493z M177.4,490.5h370.9l-38-95H218.2L177.4,490.5z"/>
		</g>
	</g>
	<g>
		<g>
			<rect x="264.8" y="503.7" class="st4" width="279.4" height="127.9"/>
		</g>
		<g>
			<path class="st1" d="M545.4,632.9H263.5V502.5h281.9V632.9z M266,630.4h276.9V505H266V630.4z"/>
		</g>
	</g>
	<g>
		<g>
			<rect x="592.2" y="352" class="st4" width="155.3" height="279.7"/>
		</g>
		<g>
			<path class="st1" d="M748.7,632.9H590.9V350.7h157.8V632.9z M593.4,630.4h152.8V353.2H593.4V630.4z"/>
		</g>
	</g>
	<g class="st3">
		<g>
			<polygon class="st1" points="510.7,471.4 501.8,480.3 335.5,480.3 375.9,440 			"/>
		</g>
	</g>
	<g class="st3">
		<g>
			<polygon class="st1" points="544.2,505.6 355.6,524.3 355.6,631.6 335.6,631.6 335.6,498.5 			"/>
		</g>
	</g>
	<g>
		<g>
			<rect x="170.5" y="491.4" class="st5" width="393.4" height="14.2"/>
		</g>
		<g>
			<path class="st1" d="M565.2,506.9H169.3v-16.7h395.9V506.9z M171.8,504.4h390.9v-11.7H171.8V504.4z"/>
		</g>
	</g>
	<g>
		<g>
			<polygon class="st4" points="342.1,631.6 190.4,631.6 190.4,516.6 264.8,458.4 342.1,516.6 			"/>
		</g>
		<g>
			<path class="st1" d="M343.3,632.9H189.2V516l75.6-59.2l78.6,59.2V632.9z M191.7,630.4h149.2V517.2L264.8,460l-73.1,57.2V630.4z"
				/>
		</g>
	</g>
	<g class="st3">
		<g>
			<polygon class="st1" points="342.1,527.5 263.1,476.2 190.4,535.1 190.4,516.6 263.1,459.7 342.1,516.6 			"/>
		</g>
	</g>
	<g>
		<g>
			<g>
				<polygon class="st5" points="350.6,533.9 263.1,467.8 179.1,533.8 169.8,522 262.9,448.9 359.6,521.9 				"/>
			</g>
			<g>
				<path class="st1" d="M350.8,535.6l-87.7-66.2l-84.2,66.1l-10.8-13.7l94.8-74.4l98.5,74.3L350.8,535.6z M263,466.3l87.3,65.9
					l7.5-10l-94.9-71.7l-91.3,71.7l7.7,9.8L263,466.3z"/>
			</g>
		</g>
	</g>
	<g>
		<g>
			<g>
				<path class="st4" d="M495.5,432.6c0-33.4-26.4-60.7-58.8-60.7c-32.3,0-58.8,27.3-58.8,60.7v35.8h117.5V432.6z"/>
			</g>
			<g>
				<path class="st1" d="M496.8,469.6h-120v-37c0-34.1,26.9-61.9,60-61.9s60,27.8,60,61.9V469.6z M379.3,467.1h115v-34.5
					c0-32.8-25.8-59.4-57.5-59.4c-31.7,0-57.5,26.7-57.5,59.4V467.1z"/>
			</g>
		</g>
	</g>
	<g class="st3">
		<g>
			<path class="st1" d="M394.2,432.3c0-28.5,16.8-45.6,50.1-51.7c1.4-0.3,3.5-2.1,4.9-2c-5.8-2.4-12.7-1.5-19.3-1.5
				c-27.6,0-50.1,23.3-50.1,51.7v30.5h14.4V432.3z"/>
		</g>
	</g>
	<g>
		<g>
			<g>
				<g>
					<path class="st5" d="M503,468.4h-15v-35.8c0-14.2-5.4-27.6-15.2-37.6c-9.7-10-22.5-15.5-36.1-15.5c-13.6,0-26.4,5.5-36.1,15.5
						c-9.8,10.1-15.2,23.5-15.2,37.6v35.8h-15v-35.8c0-18.1,6.9-35.2,19.4-48.1c6.1-6.3,13.2-11.2,21.1-14.7
						c8.2-3.6,16.9-5.4,25.8-5.4c8.9,0,17.6,1.8,25.8,5.4c7.9,3.5,15,8.4,21.1,14.7c12.5,12.9,19.4,30,19.4,48.1V468.4z"/>
				</g>
				<g>
					<path class="st1" d="M504.3,469.6h-17.5v-37c0-13.9-5.3-26.9-14.8-36.8c-9.5-9.8-22-15.2-35.2-15.2s-25.8,5.4-35.2,15.2
						c-9.5,9.9-14.8,22.9-14.8,36.8v37h-17.5v-37c0-18.4,7-35.8,19.7-48.9c6.2-6.4,13.4-11.4,21.4-15c8.4-3.7,17.2-5.5,26.3-5.5
						c9.1,0,18,1.9,26.3,5.5c8,3.5,15.3,8.6,21.4,15c12.7,13.1,19.7,30.5,19.7,48.9V469.6z M489.3,467.1h12.5v-34.5
						c0-17.8-6.8-34.5-19-47.2c-6-6.2-12.9-11-20.7-14.4c-8-3.5-16.6-5.3-25.3-5.3c-8.8,0-17.3,1.8-25.3,5.3
						c-7.7,3.4-14.7,8.2-20.7,14.4c-12.3,12.7-19,29.4-19,47.2v34.5h12.5v-34.5c0-14.5,5.5-28.2,15.5-38.5
						c9.9-10.3,23.1-15.9,37-15.9s27.1,5.7,37,15.9c10,10.3,15.5,24,15.5,38.5V467.1z"/>
				</g>
			</g>
		</g>
	</g>
	<g>
		<g>
			<rect x="362.8" y="458.4" class="st0" width="147.9" height="13"/>
		</g>
		<g>
			<path class="st1" d="M512,472.6H361.6v-15.5H512V472.6z M364.1,470.1h145.4v-10.5H364.1V470.1z"/>
		</g>
	</g>
	<g>
		<g>
			<rect x="211.9" y="559.7" class="st7" width="46.4" height="72"/>
		</g>
		<g>
			<path class="st1" d="M259.5,632.9h-48.9v-74.5h48.9V632.9z M213.1,630.4H257v-69.5h-43.9V630.4z"/>
		</g>
	</g>
	<g class="st3">
		<g>
			<circle class="st1" cx="258.3" cy="522" r="28.4"/>
		</g>
	</g>
	<g>
		<g>
			<g>
				<circle class="st0" cx="263.1" cy="518.1" r="28.4"/>
			</g>
		</g>
		<g>
			<g>
				<path class="st1" d="M263.1,547.7c-16.3,0-29.6-13.3-29.6-29.6c0-16.3,13.3-29.6,29.6-29.6c16.3,0,29.6,13.3,29.6,29.6
					C292.7,534.4,279.4,547.7,263.1,547.7z M263.1,491c-14.9,0-27.1,12.2-27.1,27.1c0,14.9,12.2,27.1,27.1,27.1
					c14.9,0,27.1-12.2,27.1-27.1C290.2,503.1,278,491,263.1,491z"/>
			</g>
		</g>
	</g>
	<g>
		<g>
			<g>
				<circle class="st8" cx="263.1" cy="518.1" r="22.1"/>
			</g>
		</g>
		<g>
			<g>
				<path class="st1" d="M263.1,541.5c-12.9,0-23.4-10.5-23.4-23.4c0-12.9,10.5-23.4,23.4-23.4c12.9,0,23.4,10.5,23.4,23.4
					C286.5,531,276,541.5,263.1,541.5z M263.1,497.2c-11.5,0-20.9,9.4-20.9,20.9c0,11.5,9.4,20.9,20.9,20.9
					c11.5,0,20.9-9.4,20.9-20.9C284,506.6,274.6,497.2,263.1,497.2z"/>
			</g>
		</g>
	</g>
	<g>
		<g>
			<rect x="240.9" y="516.8" class="st1" width="44.3" height="2.5"/>
		</g>
	</g>
	<g>
		<g>
			<rect x="261.8" y="495.9" class="st1" width="2.5" height="44.3"/>
		</g>
	</g>
	<g class="st3">
		<g>
			<rect x="271.6" y="563.9" class="st1" width="48.4" height="48.4"/>
		</g>
	</g>
	<g>
		<g>
			<rect x="276.2" y="559.7" class="st5" width="48.4" height="48.4"/>
		</g>
		<g>
			<path class="st1" d="M325.9,609.3H275v-50.9h50.9V609.3z M277.5,606.8h45.9v-45.9h-45.9V606.8z"/>
		</g>
	</g>
	<g>
		<g>
			<g>
				<rect x="283.7" y="567.2" class="st8" width="33.4" height="33.4"/>
			</g>
		</g>
		<g>
			<g>
				<path class="st1" d="M318.4,601.8h-35.9v-35.9h35.9V601.8z M285,599.3h30.9v-30.9H285V599.3z"/>
			</g>
		</g>
	</g>
	<g>
		<g>
			<g>
				<path class="st8" d="M473.3,427.3c0-19.1-16.4-34.7-36.5-34.7c-20.1,0-36.5,15.6-36.5,34.7v20.4h73V427.3z"/>
			</g>
			<g>
				<path class="st1" d="M474.5,449H399v-21.7c0-19.8,16.9-35.9,37.8-35.9s37.8,16.1,37.8,35.9V449z M401.5,446.5H472v-19.2
					c0-18.4-15.8-33.4-35.3-33.4s-35.3,15-35.3,33.4V446.5z"/>
			</g>
		</g>
	</g>
	<g>
		<g>
			<rect x="435.5" y="392.6" class="st1" width="2.5" height="55.1"/>
		</g>
	</g>
	<g>
		<g>
			<rect x="370.5" y="618.6" class="st6" width="145.7" height="13.1"/>
		</g>
	</g>
	<g>
		<g>
			<rect x="370.5" y="577.5" class="st9" width="145.7" height="13.7"/>
		</g>
	</g>
	<g>
		<g>
			<rect x="370.5" y="604.9" class="st9" width="145.7" height="13.7"/>
		</g>
	</g>
	<g>
		<g>
			<rect x="370.5" y="591.2" class="st6" width="145.7" height="13.7"/>
		</g>
	</g>
	<g>
		<g>
			<rect x="370.5" y="563.9" class="st6" width="145.7" height="13.7"/>
		</g>
	</g>
	<g>
		<g>
			<rect x="370.5" y="537.2" class="st6" width="145.7" height="13"/>
		</g>
	</g>
	<g>
		<g>
			<rect x="370.5" y="550.2" class="st9" width="145.7" height="13.7"/>
		</g>
	</g>
	<g class="st3">
		<g>
			<path class="st1" d="M250.7,592.8c0,2.3-1.9,4.1-4.1,4.1c-2.3,0-4.1-1.9-4.1-4.1c0-2.3,1.9-4.1,4.1-4.1
				C248.9,588.6,250.7,590.5,250.7,592.8z"/>
		</g>
	</g>
	<g>
		<g>
			<path class="st1" d="M517.5,632.9H369.3V536h148.2V632.9z M371.8,630.4H515v-91.9H371.8V630.4z"/>
		</g>
	</g>
	<g>
		<g>
			<g>
				
					<rect x="242.4" y="505.5" transform="matrix(0.707 -0.7072 0.7072 0.707 -284.4931 326.916)" class="st10" width="19.8" height="2.5"/>
			</g>
		</g>
	</g>
	<g>
		<g>
			<g>
				
					<rect x="252.5" y="509.1" transform="matrix(0.707 -0.7072 0.7072 0.707 -285.7728 330.8823)" class="st10" width="7.9" height="2.5"/>
			</g>
		</g>
	</g>
	<g>
		<g>
			<g>
				
					<rect x="264" y="527.2" transform="matrix(0.707 -0.7072 0.7072 0.707 -293.4326 348.4947)" class="st10" width="19.8" height="2.5"/>
			</g>
		</g>
	</g>
	<g>
		<g>
			<g>
				
					<rect x="265.7" y="523.6" transform="matrix(0.707 -0.7072 0.7072 0.707 -292.1428 344.498)" class="st10" width="7.9" height="2.5"/>
			</g>
		</g>
	</g>
	<g class="st3">
		<g>
			<circle class="st1" cx="784.9" cy="428.6" r="32"/>
		</g>
	</g>
	<g>
		<g>
			
				<ellipse transform="matrix(0.3827 -0.9239 0.9239 0.3827 95.9982 991.9685)" class="st0" cx="790.3" cy="424.1" rx="32" ry="32"/>
		</g>
		<g>
			<path class="st1" d="M790.3,457.4c-18.4,0-33.3-14.9-33.3-33.3c0-18.4,14.9-33.3,33.3-33.3c18.4,0,33.3,14.9,33.3,33.3
				C823.6,442.5,808.6,457.4,790.3,457.4z M790.3,393.4c-17,0-30.8,13.8-30.8,30.8c0,17,13.8,30.8,30.8,30.8
				c17,0,30.8-13.8,30.8-30.8C821.1,407.2,807.3,393.4,790.3,393.4z"/>
		</g>
	</g>
	<g>
		<g>
			
				<ellipse transform="matrix(0.9239 -0.3827 0.3827 0.9239 -102.1573 334.7182)" class="st8" cx="790.3" cy="424.1" rx="25" ry="25"/>
		</g>
		<g>
			<path class="st1" d="M790.3,450.4c-14.5,0-26.3-11.8-26.3-26.3s11.8-26.3,26.3-26.3c14.5,0,26.3,11.8,26.3,26.3
				S804.8,450.4,790.3,450.4z M790.3,400.4c-13.1,0-23.8,10.7-23.8,23.8s10.7,23.8,23.8,23.8c13.1,0,23.8-10.7,23.8-23.8
				S803.4,400.4,790.3,400.4z"/>
		</g>
	</g>
	<g>
		<g>
			<rect x="765.3" y="422.9" class="st1" width="50" height="2.5"/>
		</g>
	</g>
	<g>
		<g>
			<rect x="789" y="399.1" class="st1" width="2.5" height="50"/>
		</g>
	</g>
	<g>
		<g>
			
				<rect x="766.9" y="410.1" transform="matrix(0.7071 -0.7071 0.7071 0.7071 -62.9948 670.7017)" class="st10" width="22.3" height="2.5"/>
		</g>
	</g>
	<g>
		<g>
			
				<rect x="778.3" y="414.2" transform="matrix(0.7071 -0.7071 0.7071 0.7071 -64.452 675.2164)" class="st10" width="9" height="2.5"/>
		</g>
	</g>
	<g>
		<g>
			
				<rect x="791.4" y="434.6" transform="matrix(0.7071 -0.7071 0.7071 0.7071 -73.1076 695.1158)" class="st10" width="22.3" height="2.5"/>
		</g>
	</g>
	<g>
		<g>
			
				<rect x="793.3" y="430.5" transform="matrix(0.7071 -0.7071 0.7071 0.7071 -71.6503 690.601)" class="st10" width="9" height="2.5"/>
		</g>
	</g>
	<g>
		<g>
			<g>
				
					<rect x="285.9" y="577.8" transform="matrix(0.707 -0.7072 0.7072 0.707 -322.8099 378.849)" class="st10" width="19.8" height="2.5"/>
			</g>
		</g>
	</g>
	<g>
		<g>
			<g>
				
					<rect x="287.7" y="574.2" transform="matrix(0.707 -0.7072 0.7072 0.707 -321.52 374.8522)" class="st10" width="7.9" height="2.5"/>
			</g>
		</g>
	</g>
	<g>
		<g>
			
				<rect x="400" y="409.6" transform="matrix(0.707 -0.7072 0.7072 0.707 -167.7449 416.7409)" class="st10" width="38.1" height="2.5"/>
		</g>
	</g>
	<g>
		<g>
			
				<rect x="439.3" y="400.2" transform="matrix(0.707 -0.7072 0.7072 0.707 -153.6294 432.0843)" class="st10" width="10.7" height="2.5"/>
		</g>
	</g>
	<g>
		<g>
			
				<rect x="401.3" y="422.4" transform="matrix(0.707 -0.7072 0.7072 0.707 -177.7691 418.2577)" class="st10" width="29.3" height="2.5"/>
		</g>
	</g>
	<g>
		<g>
			
				<rect x="438.4" y="408.5" transform="matrix(0.707 -0.7072 0.7072 0.707 -158.8664 435.9644)" class="st10" width="16.6" height="2.5"/>
		</g>
	</g>
	<g>
		<g>
			
				<rect x="403.7" y="433.7" transform="matrix(0.707 -0.7072 0.7072 0.707 -186.1567 420.6133)" class="st10" width="21.8" height="2.5"/>
		</g>
	</g>
	<g class="st3">
		<g>
			<polygon class="st1" points="258.3,563.9 218.1,563.9 218.1,631.6 211.9,631.6 211.9,559.7 258.3,559.7 			"/>
		</g>
	</g>
	<g>
		<g>
			<rect x="765.4" y="577.5" class="st7" width="46.4" height="54.1"/>
		</g>
		<g>
			<path class="st1" d="M813,632.9h-48.9v-56.6H813V632.9z M766.6,630.4h43.9v-51.6h-43.9V630.4z"/>
		</g>
	</g>
	<g class="st3">
		<g>
			<circle class="st1" cx="800.1" cy="604.6" r="4.1"/>
		</g>
	</g>
	<g class="st3">
		<g>
			<polygon class="st1" points="811.8,580.7 771.6,580.7 771.6,631.6 765.4,631.6 765.4,577.5 811.8,577.5 			"/>
		</g>
	</g>
	<g>
		<g>
			<rect x="325.1" y="494.7" class="st1" width="126.2" height="2.5"/>
		</g>
	</g>
	<g>
		<g>
			<rect x="463.1" y="494.7" class="st1" width="20.5" height="2.5"/>
		</g>
	</g>
	<g>
		<g>
			<rect x="552.4" y="494.7" class="st1" width="7.5" height="2.5"/>
		</g>
	</g>
	<g>
		<g>
			<rect x="331.5" y="499.5" class="st1" width="78.5" height="2.5"/>
		</g>
	</g>
	<g>
		<g>
			<rect x="423.1" y="499.5" class="st1" width="48.4" height="2.5"/>
		</g>
	</g>
	<g>
		<g>
			<rect x="367.5" y="462" class="st1" width="92.4" height="2.5"/>
		</g>
	</g>
	<g>
		<g>
			<rect x="476.1" y="462" class="st1" width="21.2" height="2.5"/>
		</g>
	</g>
	<g>
		<g>
			<rect x="501" y="499.5" class="st1" width="13.5" height="2.5"/>
		</g>
	</g>
	<g>
		<g>
			<rect x="178.2" y="499.5" class="st1" width="18.4" height="2.5"/>
		</g>
	</g>
	<g>
		<g>
			
				<rect x="166.8" y="487.1" transform="matrix(0.7887 -0.6148 0.6148 0.7887 -253.5889 238.8038)" class="st1" width="107.6" height="2.5"/>
		</g>
	</g>
	<g>
		<g>
			
				<rect x="196.5" y="488.6" transform="matrix(0.7887 -0.6148 0.6148 0.7887 -253.2585 242.7532)" class="st1" width="60" height="2.5"/>
		</g>
	</g>
	<g>
		<g>
			<g>
				
					<rect x="326.4" y="474.1" transform="matrix(0.6148 -0.7887 0.7887 0.6148 -271.3807 452.5898)" class="st1" width="2.5" height="60"/>
			</g>
		</g>
	</g>
	<g>
		<g>
			<polygon class="st4" points="1063.9,631.6 912.2,631.6 912.2,516.6 986.6,458.4 1063.9,516.6 			"/>
		</g>
		<g>
			<path class="st1" d="M1065.2,632.9H911V516l75.6-59.2l78.6,59.2V632.9z M913.5,630.4h149.2V517.2L986.6,460l-73.1,57.2V630.4z"/>
		</g>
	</g>
	<g class="st3">
		<g>
			<polygon class="st1" points="1063.9,527.5 984.9,476.2 912.2,535.1 912.2,516.6 984.9,459.7 1063.9,516.6 			"/>
		</g>
	</g>
	<g>
		<g>
			<g>
				<polygon class="st5" points="1072.4,533.9 984.9,467.8 900.9,533.8 891.6,522 984.7,448.9 1081.4,521.9 				"/>
			</g>
			<g>
				<path class="st1" d="M1072.6,535.6l-87.7-66.2l-84.2,66.1l-10.8-13.7l94.8-74.4l98.5,74.3L1072.6,535.6z M984.9,466.3l87.3,65.9
					l7.5-10l-94.9-71.7l-91.3,71.7l7.7,9.8L984.9,466.3z"/>
			</g>
		</g>
	</g>
	<g>
		<g>
			<rect x="933.7" y="559.7" class="st7" width="46.4" height="72"/>
		</g>
		<g>
			<path class="st1" d="M981.3,632.9h-48.9v-74.5h48.9V632.9z M934.9,630.4h43.9v-69.5h-43.9V630.4z"/>
		</g>
	</g>
	<g>
		<g>
			<circle class="st0" cx="984.9" cy="518.1" r="28.4"/>
		</g>
		<g>
			<path class="st1" d="M984.9,547.7c-16.3,0-29.6-13.3-29.6-29.6c0-16.3,13.3-29.6,29.6-29.6c16.3,0,29.6,13.3,29.6,29.6
				C1014.5,534.4,1001.2,547.7,984.9,547.7z M984.9,491c-14.9,0-27.1,12.2-27.1,27.1c0,14.9,12.2,27.1,27.1,27.1
				c14.9,0,27.1-12.2,27.1-27.1C1012,503.1,999.8,491,984.9,491z"/>
		</g>
	</g>
	<g>
		<g>
			<circle class="st8" cx="984.9" cy="518.1" r="22.1"/>
		</g>
		<g>
			<path class="st1" d="M984.9,541.5c-12.9,0-23.4-10.5-23.4-23.4c0-12.9,10.5-23.4,23.4-23.4c12.9,0,23.4,10.5,23.4,23.4
				C1008.3,531,997.8,541.5,984.9,541.5z M984.9,497.2c-11.5,0-20.9,9.4-20.9,20.9c0,11.5,9.4,20.9,20.9,20.9
				c11.5,0,20.9-9.4,20.9-20.9C1005.8,506.6,996.4,497.2,984.9,497.2z"/>
		</g>
	</g>
	<g>
		<g>
			<rect x="962.7" y="516.8" class="st1" width="44.3" height="2.5"/>
		</g>
	</g>
	<g>
		<g>
			<rect x="983.6" y="495.9" class="st1" width="2.5" height="44.3"/>
		</g>
	</g>
	<g>
		<g>
			<rect x="998" y="559.7" class="st5" width="48.4" height="48.4"/>
		</g>
		<g>
			<path class="st1" d="M1047.7,609.3h-50.9v-50.9h50.9V609.3z M999.3,606.8h45.9v-45.9h-45.9V606.8z"/>
		</g>
	</g>
	<g>
		<g>
			<rect x="1005.5" y="567.2" class="st8" width="33.4" height="33.4"/>
		</g>
		<g>
			<path class="st1" d="M1040.2,601.8h-35.9v-35.9h35.9V601.8z M1006.8,599.3h30.9v-30.9h-30.9V599.3z"/>
		</g>
	</g>
	<g class="st3">
		<g>
			<circle class="st1" cx="968.4" cy="592.8" r="4.1"/>
		</g>
	</g>
	<g>
		<g>
			
				<rect x="964.2" y="505.5" transform="matrix(0.7071 -0.7071 0.7071 0.7071 -73.0373 837.2573)" class="st10" width="19.8" height="2.5"/>
		</g>
	</g>
	<g>
		<g>
			
				<rect x="974.3" y="509.1" transform="matrix(0.7071 -0.7071 0.7071 0.7071 -74.3367 841.2236)" class="st10" width="7.9" height="2.5"/>
		</g>
	</g>
	<g>
		<g>
			
				<rect x="985.8" y="527.2" transform="matrix(0.7071 -0.7071 0.7071 0.7071 -81.9976 858.8369)" class="st10" width="19.8" height="2.5"/>
		</g>
	</g>
	<g>
		<g>
			
				<rect x="987.6" y="523.6" transform="matrix(0.7071 -0.7071 0.7071 0.7071 -80.7077 854.8407)" class="st10" width="7.9" height="2.5"/>
		</g>
	</g>
	<g>
		<g>
			
				<rect x="1007.8" y="577.8" transform="matrix(0.7071 -0.7071 0.7071 0.7071 -111.3745 889.1323)" class="st10" width="19.8" height="2.5"/>
		</g>
	</g>
	<g>
		<g>
			
				<rect x="1009.5" y="574.2" transform="matrix(0.7071 -0.7071 0.7071 0.7071 -110.0846 885.1364)" class="st10" width="7.9" height="2.5"/>
		</g>
	</g>
	<g class="st3">
		<g>
			<polygon class="st1" points="980.1,563.9 939.9,563.9 939.9,631.6 933.7,631.6 933.7,559.7 980.1,559.7 			"/>
		</g>
	</g>
	<g>
		<g>
			
				<rect x="888.6" y="487.1" transform="matrix(0.7886 -0.6149 0.6149 0.7886 -101.0504 682.7111)" class="st1" width="107.6" height="2.5"/>
		</g>
	</g>
	<g>
		<g>
			
				<rect x="918.3" y="488.6" transform="matrix(0.7886 -0.6149 0.6149 0.7886 -100.7195 686.6614)" class="st1" width="60" height="2.5"/>
		</g>
	</g>
	<g>
		<g>
			
				<rect x="1048.2" y="474.1" transform="matrix(0.6148 -0.7887 0.7887 0.6148 6.6494 1021.8627)" class="st1" width="2.5" height="60"/>
		</g>
	</g>
	<g>
		<g>
			<rect x="374.3" y="424.3" class="st1" width="2.5" height="34.1"/>
		</g>
	</g>
	<g>
		<g>
			<rect x="379" y="441.3" class="st1" width="2.5" height="17"/>
		</g>
	</g>
	<g>
		<g>
			<rect x="379" y="430" class="st1" width="2.5" height="4.1"/>
		</g>
	</g>
	<g class="st3">
		<g>
			<polygon class="st1" points="320,394.3 226.5,403.8 190.4,491.4 175.5,491.4 215.4,394.3 			"/>
		</g>
	</g>
	<g class="st3">
		<g>
			<rect x="476.1" y="558.7" class="st1" width="31.6" height="2.5"/>
		</g>
	</g>
	<g class="st3">
		<g>
			<polygon class="st1" points="514.5,537.2 370.5,537.2 370.5,631.6 393.5,631.6 393.5,561.2 442.5,561.2 442.5,558.7 398.9,558.7 
							"/>
		</g>
	</g>
	<g class="st3">
		<g>
			<rect x="412.3" y="572.7" class="st1" width="60.4" height="2.5"/>
		</g>
	</g>
	<g class="st3">
		<g>
			<rect x="447.4" y="585.8" class="st1" width="60.4" height="2.5"/>
		</g>
	</g>
	<g class="st3">
		<g>
			<rect x="402.5" y="585.8" class="st1" width="37.7" height="2.5"/>
		</g>
	</g>
	<g class="st3">
		<g>
			<rect x="402.5" y="599.3" class="st1" width="13.7" height="2.5"/>
		</g>
	</g>
	<g class="st3">
		<g>
			<rect x="423.1" y="613.5" class="st1" width="44.7" height="2.5"/>
		</g>
	</g>
	<g class="st3">
		<g>
			<rect x="592.2" y="352" class="st1" width="58.8" height="279.7"/>
		</g>
	</g>
	<g>
		<g>
			<rect x="608.1" y="365.8" class="st0" width="53.6" height="9.1"/>
		</g>
		<g>
			<path class="st1" d="M663,376.1h-56.1v-11.6H663V376.1z M609.4,373.6h51.2V367h-51.2V373.6z"/>
		</g>
	</g>
	<g class="st3">
		<g>
			<rect x="673.3" y="369.1" class="st1" width="53.6" height="9.1"/>
		</g>
	</g>
	<g class="st3">
		<g>
			<rect x="673.3" y="389.3" class="st1" width="53.6" height="9.1"/>
		</g>
	</g>
	<g class="st3">
		<g>
			<rect x="673.3" y="409.5" class="st1" width="53.6" height="9.1"/>
		</g>
	</g>
	<g class="st3">
		<g>
			<rect x="673.3" y="429.7" class="st1" width="53.6" height="9.1"/>
		</g>
	</g>
	<g class="st3">
		<g>
			<rect x="673.3" y="449.9" class="st1" width="53.6" height="9.1"/>
		</g>
	</g>
	<g class="st3">
		<g>
			<rect x="673.3" y="470.1" class="st1" width="53.6" height="9.1"/>
		</g>
	</g>
	<g class="st3">
		<g>
			<rect x="673.3" y="490.3" class="st1" width="53.6" height="9.1"/>
		</g>
	</g>
	<g class="st3">
		<g>
			<rect x="673.3" y="510.5" class="st1" width="53.6" height="9.1"/>
		</g>
	</g>
	<g class="st3">
		<g>
			<rect x="673.3" y="530.7" class="st1" width="53.6" height="9.1"/>
		</g>
	</g>
	<g class="st3">
		<g>
			<rect x="673.3" y="550.9" class="st1" width="53.6" height="9.1"/>
		</g>
	</g>
	<g>
		<g>
			<rect x="677.4" y="365.8" class="st0" width="53.6" height="9.1"/>
		</g>
		<g>
			<path class="st1" d="M732.3,376.1h-56.1v-11.6h56.1V376.1z M678.6,373.6h51.2V367h-51.2V373.6z"/>
		</g>
	</g>
	<g>
		<g>
			<rect x="608.1" y="386" class="st0" width="53.6" height="9.1"/>
		</g>
		<g>
			<path class="st1" d="M663,396.3h-56.1v-11.6H663V396.3z M609.4,393.8h51.2v-6.6h-51.2V393.8z"/>
		</g>
	</g>
	<g>
		<g>
			<rect x="677.4" y="386" class="st0" width="53.6" height="9.1"/>
		</g>
		<g>
			<path class="st1" d="M732.3,396.3h-56.1v-11.6h56.1V396.3z M678.6,393.8h51.2v-6.6h-51.2V393.8z"/>
		</g>
	</g>
	<g>
		<g>
			<rect x="608.1" y="406.2" class="st0" width="53.6" height="9.1"/>
		</g>
		<g>
			<path class="st1" d="M663,416.5h-56.1v-11.6H663V416.5z M609.4,414h51.2v-6.6h-51.2V414z"/>
		</g>
	</g>
	<g>
		<g>
			<rect x="677.4" y="406.2" class="st0" width="53.6" height="9.1"/>
		</g>
		<g>
			<path class="st1" d="M732.3,416.5h-56.1v-11.6h56.1V416.5z M678.6,414h51.2v-6.6h-51.2V414z"/>
		</g>
	</g>
	<g>
		<g>
			<rect x="608.1" y="426.4" class="st0" width="53.6" height="9.1"/>
		</g>
		<g>
			<path class="st1" d="M663,436.7h-56.1v-11.6H663V436.7z M609.4,434.2h51.2v-6.6h-51.2V434.2z"/>
		</g>
	</g>
	<g>
		<g>
			<rect x="677.4" y="426.4" class="st0" width="53.6" height="9.1"/>
		</g>
		<g>
			<path class="st1" d="M732.3,436.7h-56.1v-11.6h56.1V436.7z M678.6,434.2h51.2v-6.6h-51.2V434.2z"/>
		</g>
	</g>
	<g>
		<g>
			<rect x="608.1" y="446.6" class="st0" width="53.6" height="9.1"/>
		</g>
		<g>
			<path class="st1" d="M663,456.9h-56.1v-11.6H663V456.9z M609.4,454.4h51.2v-6.6h-51.2V454.4z"/>
		</g>
	</g>
	<g>
		<g>
			<rect x="677.4" y="446.6" class="st0" width="53.6" height="9.1"/>
		</g>
		<g>
			<path class="st1" d="M732.3,456.9h-56.1v-11.6h56.1V456.9z M678.6,454.4h51.2v-6.6h-51.2V454.4z"/>
		</g>
	</g>
	<g>
		<g>
			<rect x="608.1" y="466.8" class="st0" width="53.6" height="9.1"/>
		</g>
		<g>
			<path class="st1" d="M663,477.1h-56.1v-11.6H663V477.1z M609.4,474.6h51.2V468h-51.2V474.6z"/>
		</g>
	</g>
	<g>
		<g>
			<rect x="677.4" y="466.8" class="st0" width="53.6" height="9.1"/>
		</g>
		<g>
			<path class="st1" d="M732.3,477.1h-56.1v-11.6h56.1V477.1z M678.6,474.6h51.2V468h-51.2V474.6z"/>
		</g>
	</g>
	<g>
		<g>
			<rect x="608.1" y="487" class="st0" width="53.6" height="9.1"/>
		</g>
		<g>
			<path class="st1" d="M663,497.3h-56.1v-11.6H663V497.3z M609.4,494.8h51.2v-6.6h-51.2V494.8z"/>
		</g>
	</g>
	<g>
		<g>
			<rect x="677.4" y="487" class="st0" width="53.6" height="9.1"/>
		</g>
		<g>
			<path class="st1" d="M732.3,497.3h-56.1v-11.6h56.1V497.3z M678.6,494.8h51.2v-6.6h-51.2V494.8z"/>
		</g>
	</g>
	<g>
		<g>
			<rect x="608.1" y="507.2" class="st0" width="53.6" height="9.1"/>
		</g>
		<g>
			<path class="st1" d="M663,517.5h-56.1V506H663V517.5z M609.4,515h51.2v-6.6h-51.2V515z"/>
		</g>
	</g>
	<g>
		<g>
			<rect x="677.4" y="507.2" class="st0" width="53.6" height="9.1"/>
		</g>
		<g>
			<path class="st1" d="M732.3,517.5h-56.1V506h56.1V517.5z M678.6,515h51.2v-6.6h-51.2V515z"/>
		</g>
	</g>
	<g>
		<g>
			<rect x="608.1" y="527.4" class="st0" width="53.6" height="9.1"/>
		</g>
		<g>
			<path class="st1" d="M663,537.7h-56.1v-11.6H663V537.7z M609.4,535.2h51.2v-6.6h-51.2V535.2z"/>
		</g>
	</g>
	<g>
		<g>
			<rect x="677.4" y="527.4" class="st0" width="53.6" height="9.1"/>
		</g>
		<g>
			<path class="st1" d="M732.3,537.7h-56.1v-11.6h56.1V537.7z M678.6,535.2h51.2v-6.6h-51.2V535.2z"/>
		</g>
	</g>
	<g>
		<g>
			<rect x="608.1" y="547.6" class="st0" width="53.6" height="9.1"/>
		</g>
		<g>
			<path class="st1" d="M663,557.9h-56.1v-11.6H663V557.9z M609.4,555.4h51.2v-6.6h-51.2V555.4z"/>
		</g>
	</g>
	<g>
		<g>
			<rect x="677.4" y="547.6" class="st0" width="53.6" height="9.1"/>
		</g>
		<g>
			<path class="st1" d="M732.3,557.9h-56.1v-11.6h56.1V557.9z M678.6,555.4h51.2v-6.6h-51.2V555.4z"/>
		</g>
	</g>
	<g>
		<g>
			<rect x="635.2" y="571.2" class="st7" width="69.2" height="60.5"/>
		</g>
	</g>
	<g>
		<g>
			<rect x="668.6" y="571.2" class="st1" width="2.5" height="60.5"/>
		</g>
	</g>
	<g class="st3">
		<g>
			<polygon class="st0" points="704.4,571.2 635.2,571.2 635.2,631.6 642.1,631.6 642.1,587.2 678,623.2 680.7,620.4 642.1,581.8 
				642.1,576.9 672.8,607.6 675.6,604.9 647.1,576.5 704.1,576.5 			"/>
		</g>
	</g>
	<g>
		<g>
			<path class="st1" d="M705.7,632.9h-71.7v-63h71.7V632.9z M636.4,630.4h66.7v-58h-66.7V630.4z"/>
		</g>
	</g>
	<g>
		<g>
			<g>
				<path class="st4" d="M741.5,309.1c0-40.7-32.2-74-71.7-74c-39.4,0-71.7,33.3-71.7,74v43.6h143.3V309.1z"/>
			</g>
			<g>
				<path class="st1" d="M742.7,354H596.9v-44.9c0-20,7.6-38.9,21.4-53.1c13.8-14.3,32.1-22.1,51.5-22.1c19.4,0,37.7,7.9,51.5,22.1
					c13.8,14.2,21.4,33.1,21.4,53.1V354z M599.4,351.5h140.8v-42.4c0-19.4-7.4-37.6-20.7-51.4c-13.3-13.8-31-21.4-49.7-21.4
					c-18.7,0-36.4,7.6-49.7,21.4c-13.3,13.8-20.7,32-20.7,51.4V351.5z"/>
			</g>
		</g>
	</g>
	<g class="st3">
		<g>
			<path class="st1" d="M617.9,308.8c0-34.7,20.5-55.7,61.1-63.1c1.7-0.3,4.3-2.6,6-2.4c-7-2.9-15.5-1.9-23.5-1.9
				c-33.6,0-61.1,28.4-61.1,63.1v37.2h17.5V308.8z"/>
		</g>
	</g>
	<g>
		<g>
			<g>
				<g>
					<path class="st5" d="M750.6,352.7h-18.3v-43.6c0-17.3-6.6-33.6-18.5-45.9c-11.8-12.2-27.5-19-44.1-19c-16.6,0-32.2,6.7-44.1,19
						c-11.9,12.3-18.5,28.6-18.5,45.9v43.6H589v-43.6c0-22.1,8.4-42.9,23.6-58.6c7.4-7.7,16.1-13.7,25.7-17.9
						c10-4.4,20.6-6.6,31.5-6.6s21.5,2.2,31.5,6.6c9.6,4.2,18.3,10.2,25.7,17.9c15.2,15.7,23.6,36.5,23.6,58.6V352.7z"/>
				</g>
				<g>
					<path class="st1" d="M751.8,354h-20.8v-44.9c0-17-6.4-33-18.1-45c-11.6-12-26.9-18.6-43.2-18.6c-16.2,0-31.6,6.6-43.2,18.6
						c-11.7,12.1-18.1,28.1-18.1,45V354h-20.7v-44.9c0-22.4,8.5-43.5,24-59.5c7.5-7.8,16.3-13.9,26.1-18.2c10.2-4.5,20.9-6.7,32-6.7
						c11.1,0,21.8,2.3,32,6.7c9.8,4.3,18.5,10.4,26.1,18.2c15.5,16,24,37.1,24,59.5V354z M733.6,351.5h15.8v-42.4
						c0-21.7-8.3-42.2-23.3-57.7c-7.3-7.5-15.8-13.5-25.3-17.6c-9.8-4.3-20.3-6.5-31-6.5c-10.7,0-21.2,2.2-31,6.5
						c-9.5,4.2-18,10.1-25.3,17.6c-15,15.5-23.3,36-23.3,57.7v42.4H606v-42.4c0-17.6,6.7-34.2,18.8-46.8c12.1-12.5,28-19.3,45-19.3
						c16.9,0,32.9,6.9,45,19.3c12.1,12.5,18.8,29.1,18.8,46.8V351.5z"/>
				</g>
			</g>
		</g>
	</g>
	<g>
		<g>
			<rect x="579.6" y="340.6" class="st0" width="180.4" height="15.8"/>
		</g>
		<g>
			<path class="st1" d="M761.2,357.6H578.4v-18.3h182.9V357.6z M580.8,355.1h177.9v-13.3H580.8V355.1z"/>
		</g>
	</g>
	<g>
		<g>
			<g>
				<path class="st8" d="M714.3,302.6c0-23.3-20-42.3-44.5-42.3c-24.5,0-44.5,19-44.5,42.3v24.9h89.1V302.6z"/>
			</g>
			<g>
				<path class="st1" d="M715.6,328.8H624v-26.2c0-24,20.5-43.6,45.8-43.6c25.2,0,45.8,19.5,45.8,43.6V328.8z M626.5,326.3h86.6
					v-23.7c0-22.6-19.4-41.1-43.3-41.1c-23.9,0-43.3,18.4-43.3,41.1V326.3z"/>
			</g>
		</g>
	</g>
	<g>
		<g>
			<rect x="668.6" y="260.3" class="st1" width="2.5" height="67.2"/>
		</g>
	</g>
	<g>
		<g>
			
				<rect x="625" y="281.3" transform="matrix(0.7072 -0.707 0.707 0.7072 -9.9756 541.0416)" class="st10" width="46.5" height="2.5"/>
		</g>
	</g>
	<g>
		<g>
			
				<rect x="672.9" y="269.9" transform="matrix(0.7072 -0.707 0.707 0.7072 7.2383 559.7488)" class="st10" width="13.1" height="2.5"/>
		</g>
	</g>
	<g>
		<g>
			
				<rect x="626.5" y="297" transform="matrix(0.7072 -0.707 0.707 0.7072 -22.1968 542.8688)" class="st10" width="35.7" height="2.5"/>
		</g>
	</g>
	<g>
		<g>
			
				<rect x="671.8" y="280" transform="matrix(0.7072 -0.707 0.707 0.7072 0.8459 564.4802)" class="st10" width="20.3" height="2.5"/>
		</g>
	</g>
	<g>
		<g>
			
				<rect x="629.4" y="310.8" transform="matrix(0.7072 -0.707 0.707 0.7072 -32.43 545.741)" class="st10" width="26.5" height="2.5"/>
		</g>
	</g>
	<g>
		<g>
			<rect x="585.3" y="348.7" class="st1" width="112.7" height="2.5"/>
		</g>
	</g>
	<g>
		<g>
			<rect x="189.7" y="494.7" class="st1" width="13.9" height="2.5"/>
		</g>
	</g>
	<g>
		<g>
			<rect x="717.8" y="348.7" class="st1" width="25.8" height="2.5"/>
		</g>
	</g>
	<g>
		<g>
			<rect x="593.8" y="299" class="st1" width="2.5" height="41.6"/>
		</g>
	</g>
	<g>
		<g>
			<rect x="599.6" y="319.8" class="st1" width="2.5" height="20.8"/>
		</g>
	</g>
	<g>
		<g>
			<rect x="599.6" y="305.9" class="st1" width="2.5" height="5"/>
		</g>
	</g>
	<g>
		<g>
			<rect x="170.5" y="639.4" class="st1" width="231.9" height="2.5"/>
		</g>
	</g>
	<g>
		<g>
			<rect x="436.8" y="639.4" class="st1" width="40.8" height="2.5"/>
		</g>
	</g>
	<g>
		<g>
			<rect x="564" y="639.4" class="st1" width="93" height="2.5"/>
		</g>
	</g>
	<g>
		<g>
			<rect x="681.9" y="639.4" class="st1" width="7.2" height="2.5"/>
		</g>
	</g>
	<g>
		<g>
			<rect x="767.8" y="639.4" class="st1" width="234.9" height="2.5"/>
		</g>
	</g>
	<g>
		<g>
			<rect x="1033.5" y="639.4" class="st1" width="47.9" height="2.5"/>
		</g>
	</g>
	<g>
		<g>
			<rect x="151.4" y="650.6" class="st1" width="24.1" height="2.5"/>
		</g>
	</g>
	<g>
		<g>
			<rect x="207.7" y="650.6" class="st1" width="55.3" height="2.5"/>
		</g>
	</g>
	<g>
		<g>
			<rect x="457.2" y="650.6" class="st1" width="50.6" height="2.5"/>
		</g>
	</g>
	<g>
		<g>
			<rect x="741.5" y="650.6" class="st1" width="11.4" height="2.5"/>
		</g>
	</g>
	<g>
		<g>
			<rect x="776" y="650.6" class="st1" width="141.7" height="2.5"/>
		</g>
	</g>
	<g>
		<g>
			<rect x="1073.1" y="650.6" class="st1" width="31.7" height="2.5"/>
		</g>
	</g>
	<g>
		<g>
			<g>
				<g>
					<g>
						<rect x="170.7" y="591.9" class="st1" width="2.5" height="39.3"/>
					</g>
				</g>
			</g>
			<g>
				<g>
					<g>
						<path class="st2" d="M202,567.2c3.1-2.5,5.1-6.3,5.1-10.6c0-7.1-5.5-12.9-12.4-13.4c0.8-2.1,1.2-4.4,1.2-6.8
							c0-10.9-8.8-19.7-19.7-19.7c-9.5,0-17.4,6.7-19.3,15.7c-2.9-1.5-6.2-2.3-9.7-2.3c-12.1,0-22,9.8-22,22c0,9.9,6.5,18.2,15.5,21
							c-0.1,0.7-0.2,1.4-0.2,2.1c0,5.4,4.4,9.8,9.8,9.8c0.8,0,1.5-0.1,2.2-0.3c3.7,7.7,11.5,13,20.6,13c6.7,0,12.8-2.9,16.9-7.5
							c1.2,0.3,2.4,0.5,3.6,0.5c7.3,0,13.2-5.9,13.2-13.2C206.9,573.3,205,569.6,202,567.2z"/>
					</g>
				</g>
			</g>
			<g class="st3">
				<g>
					<g>
						<g>
							<path class="st1" d="M183.2,594.9c-8,0-14.9-4.7-18.1-11.4c-0.6,0.1-1.3,0.2-1.9,0.2c-4.7,0-8.6-3.8-8.6-8.6
								c0-0.6,0.1-1.2,0.2-1.8c-7.9-2.4-13.6-9.7-13.6-18.4c0-10.6,8.6-19.2,19.2-19.2c3.1,0,6,0.7,8.5,2
								c1.6-7.9,8.6-13.8,16.9-13.8c2.3,0,4.5,0.5,6.5,1.3c-3.6-5.1-9.5-8.5-16.2-8.5c-9.5,0-17.4,6.7-19.3,15.7
								c-2.9-1.5-6.2-2.3-9.7-2.3c-12.1,0-22,9.8-22,22c0,9.9,6.5,18.2,15.5,21c-0.1,0.7-0.2,1.4-0.2,2.1c0,5.4,4.4,9.8,9.8,9.8
								c0.8,0,1.5-0.1,2.2-0.3c3.7,7.7,11.5,13,20.6,13c3.9,0,7.6-1,10.9-2.8C183.7,594.9,183.4,594.9,183.2,594.9z"/>
						</g>
					</g>
				</g>
			</g>
			<g>
				<g>
					<g>
						<path class="st1" d="M173.1,598.9c-8.9,0-17.2-5-21.3-12.9c-0.5,0.1-1,0.1-1.5,0.1c-6.1,0-11-4.9-11-11c0-0.4,0-0.8,0.1-1.2
							c-9.2-3.3-15.4-11.9-15.4-21.8c0-12.8,10.4-23.2,23.2-23.2c3.1,0,6.1,0.6,8.9,1.8c2.5-8.9,10.8-15.2,20.2-15.2
							c11.6,0,21,9.4,21,21c0,2-0.3,3.9-0.8,5.7c6.9,1.3,12,7.4,12,14.5c0,4-1.6,7.8-4.5,10.6c2.7,2.7,4.3,6.4,4.3,10.2
							c0,8-6.5,14.5-14.5,14.5c-1.1,0-2.2-0.1-3.2-0.4C185.9,596.2,179.6,598.9,173.1,598.9z M153.2,583.2l0.4,0.9
							c3.6,7.5,11.2,12.3,19.5,12.3c6.1,0,11.9-2.6,16-7.1l0.5-0.6l0.7,0.2c1.1,0.3,2.2,0.5,3.3,0.5c6.6,0,12-5.4,12-12
							c0-3.6-1.6-7-4.4-9.3l-1.2-1l1.2-1c3-2.3,4.7-5.8,4.7-9.6c0-6.3-5-11.7-11.3-12.2l-1.6-0.1l0.6-1.5c0.7-2,1.1-4.2,1.1-6.3
							c0-10.2-8.3-18.5-18.5-18.5c-8.7,0-16.3,6.2-18.1,14.7l-0.3,1.6l-1.4-0.7c-2.9-1.4-6-2.1-9.2-2.1c-11.4,0-20.7,9.3-20.7,20.7
							c0,9.2,5.9,17.1,14.6,19.8l1.1,0.3l-0.2,1.1c-0.1,0.6-0.2,1.2-0.2,1.8c0,4.7,3.8,8.5,8.5,8.5c0.6,0,1.3-0.1,1.9-0.2
							L153.2,583.2z"/>
					</g>
				</g>
			</g>
		</g>
		<g class="st3">
			<g>
				<g>
					<path class="st1" d="M186.9,579.3c-4.8-2.7-7.2-7.9-6.6-13c-2.7,0.3-5.5-0.2-8.1-1.6c-6.5-3.6-8.8-11.9-5.2-18.4
						c0.4-0.8,0.9-1.4,1.4-2.1c-2.2,1.2-4.1,3-5.4,5.3c-3.6,6.5-1.3,14.7,5.2,18.4c2.5,1.4,5.4,1.9,8.1,1.6
						c-0.6,5.1,1.8,10.3,6.6,13c5.6,3.1,12.5,1.7,16.5-3.1C195.6,581.5,190.9,581.6,186.9,579.3z"/>
				</g>
			</g>
		</g>
	</g>
	<g>
		<g>
			<g>
				<g>
					<rect x="578.7" y="599.9" class="st1" width="2.5" height="31.3"/>
				</g>
			</g>
			<g>
				<g>
					<path class="st2" d="M603.9,580.2c2.5-2,4.1-5,4.1-8.4c0-5.6-4.4-10.3-9.9-10.7c0.6-1.7,1-3.5,1-5.4c0-8.7-7-15.7-15.7-15.7
						c-7.6,0-13.9,5.4-15.4,12.5c-2.3-1.2-5-1.8-7.7-1.8c-9.7,0-17.5,7.8-17.5,17.5c0,7.9,5.2,14.5,12.4,16.7
						c-0.1,0.5-0.2,1.1-0.2,1.6c0,4.3,3.5,7.8,7.8,7.8c0.6,0,1.2-0.1,1.8-0.2c2.9,6.1,9.2,10.4,16.4,10.4c5.4,0,10.2-2.3,13.5-6
						c0.9,0.3,1.9,0.4,2.9,0.4c5.8,0,10.5-4.7,10.5-10.5C607.7,585.1,606.2,582.1,603.9,580.2z"/>
				</g>
			</g>
			<g class="st3">
				<g>
					<g>
						<path class="st1" d="M588.9,602.3c-6.4,0-11.8-3.7-14.4-9.1c-0.5,0.1-1,0.2-1.5,0.2c-3.8,0-6.8-3.1-6.8-6.8
							c0-0.5,0.1-1,0.2-1.4c-6.3-1.9-10.8-7.8-10.8-14.7c0-8.5,6.9-15.3,15.3-15.3c2.4,0,4.7,0.6,6.8,1.6c1.3-6.3,6.8-11,13.5-11
							c1.8,0,3.6,0.4,5.2,1c-2.8-4.1-7.6-6.8-12.9-6.8c-7.6,0-13.9,5.4-15.4,12.5c-2.3-1.2-5-1.8-7.7-1.8c-9.7,0-17.5,7.8-17.5,17.5
							c0,7.9,5.2,14.5,12.4,16.7c-0.1,0.5-0.2,1.1-0.2,1.6c0,4.3,3.5,7.8,7.8,7.8c0.6,0,1.2-0.1,1.8-0.2c2.9,6.1,9.2,10.4,16.4,10.4
							c3.1,0,6.1-0.8,8.7-2.2C589.3,602.3,589.1,602.3,588.9,602.3z"/>
					</g>
				</g>
			</g>
			<g>
				<g>
					<path class="st1" d="M580.8,605.7c-7.1,0-13.8-4-17.1-10.2c-0.4,0-0.7,0.1-1.1,0.1c-5,0-9-4.1-9-9c0-0.3,0-0.5,0-0.8
						c-7.4-2.7-12.2-9.6-12.2-17.6c0-10.3,8.4-18.7,18.7-18.7c2.4,0,4.7,0.4,6.9,1.3c2.1-7,8.7-12,16.2-12c9.3,0,16.9,7.6,16.9,16.9
						c0,1.5-0.2,3-0.6,4.4c5.4,1.1,9.5,6,9.5,11.7c0,3.2-1.3,6.2-3.5,8.4c2.1,2.2,3.3,5.1,3.3,8.2c0,6.5-5.3,11.8-11.8,11.8
						c-0.8,0-1.7-0.1-2.5-0.3C591.1,603.6,586.1,605.7,580.8,605.7z M565.1,592.7l0.4,0.9c2.8,5.9,8.8,9.7,15.3,9.7
						c4.8,0,9.4-2,12.6-5.6l0.5-0.6l0.7,0.2c0.8,0.2,1.7,0.4,2.6,0.4c5.1,0,9.3-4.2,9.3-9.3c0-2.8-1.3-5.4-3.4-7.2l-1.2-1l1.2-1
						c2.3-1.8,3.6-4.5,3.6-7.4c0-4.9-3.8-9.1-8.7-9.5l-1.6-0.1l0.6-1.5c0.6-1.6,0.9-3.3,0.9-5c0-8-6.5-14.5-14.5-14.5
						c-6.8,0-12.8,4.8-14.2,11.5l-0.3,1.6l-1.4-0.7c-2.2-1.1-4.7-1.7-7.2-1.7c-9,0-16.2,7.3-16.2,16.2c0,7.2,4.6,13.4,11.5,15.5
						l1.1,0.3l-0.2,1.1c-0.1,0.5-0.1,0.9-0.1,1.4c0,3.6,2.9,6.5,6.5,6.5c0.5,0,1-0.1,1.5-0.2L565.1,592.7z"/>
				</g>
			</g>
		</g>
		<g class="st3">
			<g>
				<path class="st1" d="M591.8,589.9c-3.8-2.1-5.8-6.3-5.3-10.3c-2.1,0.2-4.4-0.2-6.4-1.3c-5.2-2.9-7-9.4-4.1-14.6
					c0.3-0.6,0.7-1.2,1.1-1.7c-1.7,0.9-3.2,2.4-4.3,4.2c-2.9,5.2-1,11.7,4.1,14.6c2,1.1,4.3,1.5,6.4,1.3c-0.5,4.1,1.5,8.2,5.3,10.3
					c4.5,2.5,10,1.4,13.1-2.5C598.8,591.6,595.1,591.7,591.8,589.9z"/>
			</g>
		</g>
	</g>
	<g>
		<g>
			<g>
				<g>
					<rect x="1104.1" y="603.1" class="st1" width="2.5" height="28.1"/>
				</g>
			</g>
			<g>
				<g>
					<path class="st2" d="M1083.9,585.5c-2.2-1.8-3.7-4.5-3.7-7.6c0-5.1,3.9-9.2,8.9-9.6c-0.6-1.5-0.9-3.1-0.9-4.8
						c0-7.8,6.3-14.1,14.1-14.1c6.8,0,12.5,4.8,13.8,11.2c2.1-1,4.5-1.6,6.9-1.6c8.7,0,15.7,7,15.7,15.7c0,7.1-4.7,13-11.1,15
						c0.1,0.5,0.2,1,0.2,1.5c0,3.9-3.1,7-7,7c-0.5,0-1.1-0.1-1.6-0.2c-2.6,5.5-8.2,9.3-14.7,9.3c-4.8,0-9.1-2.1-12.1-5.4
						c-0.8,0.2-1.7,0.4-2.6,0.4c-5.2,0-9.4-4.2-9.4-9.4C1080.4,589.8,1081.7,587.2,1083.9,585.5z"/>
				</g>
			</g>
			<g class="st3">
				<g>
					<g>
						<path class="st1" d="M1097.3,605.3c5.7,0,10.6-3.3,12.9-8.2c0.4,0.1,0.9,0.2,1.4,0.2c3.4,0,6.1-2.7,6.1-6.1
							c0-0.4,0-0.9-0.1-1.3c5.6-1.7,9.7-7,9.7-13.1c0-7.6-6.2-13.7-13.7-13.7c-2.2,0-4.3,0.5-6.1,1.4c-1.2-5.6-6.1-9.8-12.1-9.8
							c-1.6,0-3.2,0.3-4.6,0.9c2.5-3.7,6.8-6.1,11.6-6.1c6.8,0,12.5,4.8,13.8,11.2c2.1-1,4.5-1.6,6.9-1.6c8.7,0,15.7,7,15.7,15.7
							c0,7.1-4.7,13-11.1,15c0.1,0.5,0.2,1,0.2,1.5c0,3.9-3.1,7-7,7c-0.5,0-1.1-0.1-1.6-0.2c-2.6,5.5-8.2,9.3-14.7,9.3
							c-2.8,0-5.5-0.7-7.8-2C1096.9,605.3,1097.1,605.3,1097.3,605.3z"/>
					</g>
				</g>
			</g>
			<g>
				<g>
					<path class="st1" d="M1104.5,608.5c-4.7,0-9.2-1.9-12.5-5.2c-0.7,0.2-1.5,0.2-2.2,0.2c-5.9,0-10.7-4.8-10.7-10.7
						c0-2.7,1-5.3,2.9-7.3c-2-2-3.1-4.7-3.1-7.6c0-5.1,3.6-9.5,8.5-10.6c-0.3-1.2-0.5-2.5-0.5-3.8c0-8.5,6.9-15.3,15.3-15.3
						c6.7,0,12.6,4.4,14.6,10.7c1.9-0.8,4-1.1,6.1-1.1c9.3,0,16.9,7.6,16.9,16.9c0,7.1-4.4,13.4-11,15.8c0,0.2,0,0.4,0,0.6
						c0,4.5-3.7,8.2-8.2,8.2c-0.3,0-0.6,0-0.9,0C1116.9,604.9,1110.9,608.5,1104.5,608.5z M1092.8,600.5l0.5,0.6
						c2.8,3.2,6.9,5,11.2,5c5.8,0,11.1-3.4,13.6-8.6l0.4-0.9l1,0.2c0.4,0.1,0.9,0.1,1.3,0.1c3.2,0,5.7-2.6,5.7-5.7
						c0-0.4,0-0.8-0.1-1.2l-0.2-1.1l1.1-0.3c6.1-1.9,10.2-7.4,10.2-13.8c0-8-6.5-14.4-14.4-14.4c-2.2,0-4.4,0.5-6.4,1.5l-1.4,0.7
						l-0.3-1.6c-1.2-5.9-6.5-10.2-12.6-10.2c-7.1,0-12.8,5.8-12.8,12.8c0,1.5,0.3,3,0.8,4.4l0.6,1.5l-1.6,0.1
						c-4.3,0.3-7.7,4-7.7,8.3c0,2.6,1.2,5,3.2,6.6l1.2,1l-1.2,1c-1.9,1.6-3,3.9-3,6.4c0,4.5,3.7,8.2,8.2,8.2c0.8,0,1.5-0.1,2.3-0.3
						L1092.8,600.5z"/>
				</g>
			</g>
		</g>
		<g class="st3">
			<g>
				<path class="st1" d="M1094.6,594.1c3.4-1.9,5.2-5.6,4.7-9.3c1.9,0.2,3.9-0.2,5.8-1.2c4.6-2.6,6.3-8.5,3.7-13.1
					c-0.3-0.5-0.6-1-1-1.5c1.6,0.8,2.9,2.1,3.8,3.8c2.6,4.6,0.9,10.5-3.7,13.1c-1.8,1-3.8,1.4-5.8,1.2c0.4,3.6-1.3,7.4-4.7,9.3
					c-4,2.2-8.9,1.2-11.8-2.2C1088.4,595.7,1091.8,595.7,1094.6,594.1z"/>
			</g>
		</g>
	</g>
	<g>
		<g>
			<g>
				<g>
					<g>
						<rect x="139.9" y="606.8" class="st1" width="2.5" height="25.5"/>
					</g>
				</g>
			</g>
			<g>
				<g>
					<g>
						<path class="st2" d="M163.1,583.6c-0.4,0-0.8,0-1.1,0.1c-0.3-2.9-1.7-5.4-3.8-7.2c2.3-1.8,3.9-4.7,3.9-7.9c0-5.5-4.5-10-10-10
							c-5.5,0-10,4.5-10,10c-1.1-0.6-2.3-0.9-3.6-0.9c-1.1,0-2,0.2-3,0.6c-0.4-4.7-4.4-8.4-9.2-8.4c-5.1,0-9.2,4.1-9.2,9.2
							c0,1,0.2,1.9,0.4,2.8c-0.1,0-0.3,0-0.4,0c-3.9,0-7.1,3.2-7.1,7.1c0,3.9,3.2,7.1,7.1,7.1c1.1,0,2.1-0.2,3.1-0.7
							c0.1,0.7,0.3,1.4,0.6,2.1c-2.2,1-3.7,3.1-3.7,5.6c0,3.4,2.8,6.2,6.2,6.2c0.9,0,1.8-0.2,2.6-0.6c0,0.2,0,0.4,0,0.6
							c0,8.9,7.2,16.2,16.2,16.2c8.3,0,15.2-6.3,16.1-14.4c1.5,0.9,3.2,1.5,5.1,1.5c5.2,0,9.5-4.3,9.5-9.5S168.3,583.6,163.1,583.6z
							"/>
					</g>
				</g>
			</g>
			<g class="st3">
				<g>
					<g>
						<g>
							<path class="st1" d="M159.9,574.3c0.1,0,0.1,0.1,0.1,0.1c0.1-0.2,0.3-0.4,0.4-0.6C160.3,574,160.1,574.1,159.9,574.3z"/>
						</g>
					</g>
				</g>
				<g>
					<g>
						<g>
							<path class="st1" d="M164.2,597.2c-1.6,0-3.2-0.5-4.5-1.3c-0.2,1.9-0.8,3.6-1.6,5.2c1.4,0.9,3.1,1.4,4.9,1.4
								c5.2,0,9.5-4.3,9.5-9.5c0-0.7-0.1-1.5-0.2-2.1C171.4,594.5,168.1,597.2,164.2,597.2z"/>
						</g>
					</g>
				</g>
				<g>
					<g>
						<g>
							<path class="st1" d="M145.7,608.6c-7.8,0-14.2-6.4-14.2-14.2c0-0.2,0-0.3,0-0.5c-0.7,0.3-1.5,0.5-2.3,0.5
								c-3,0-5.4-2.4-5.4-5.4c0-2.2,1.3-4.1,3.2-4.9c-0.2-0.6-0.4-1.2-0.5-1.9c-0.8,0.4-1.7,0.6-2.7,0.6c-3.5,0-6.3-2.8-6.3-6.3
								c0-3.5,2.8-6.3,6.3-6.3c0.1,0,0.3,0,0.4,0c-0.3-0.8-0.4-1.6-0.4-2.5c0-3.5,2.2-6.4,5.2-7.6c-0.9-0.3-1.8-0.4-2.8-0.4
								c-5.1,0-9.2,4.1-9.2,9.2c0,1,0.2,1.9,0.4,2.8c-0.1,0-0.3,0-0.4,0c-3.9,0-7.1,3.2-7.1,7.1c0,3.9,3.2,7.1,7.1,7.1
								c1.1,0,2.1-0.2,3.1-0.7c0.1,0.7,0.3,1.4,0.6,2.1c-2.2,1-3.7,3.1-3.7,5.6c0,3.4,2.8,6.2,6.2,6.2c0.9,0,1.8-0.2,2.6-0.6
								c0,0.2,0,0.4,0,0.6c0,8.9,7.2,16.2,16.2,16.2c8.2,0,14.9-6.1,16-14C155.5,605.8,150.9,608.6,145.7,608.6z"/>
						</g>
					</g>
				</g>
			</g>
			<g>
				<g>
					<g>
						<path class="st1" d="M141.9,616.7c-9.2,0-16.8-7.2-17.4-16.3c-0.5,0.1-0.9,0.1-1.4,0.1c-4.1,0-7.4-3.3-7.4-7.4
							c0-2.4,1.2-4.6,3.1-6c-0.6,0.1-1.2,0.2-1.8,0.2c-4.6,0-8.4-3.8-8.4-8.4c0-4.2,3.2-7.8,7.3-8.3c-0.1-0.5-0.1-1.1-0.1-1.6
							c0-5.8,4.7-10.5,10.5-10.5c4.9,0,9.1,3.3,10.2,8c1.4-0.3,3-0.3,4.4,0.1c0.9-5.3,5.6-9.4,11.1-9.4c6.2,0,11.3,5.1,11.3,11.3
							c0,3-1.2,5.8-3.3,8c1.5,1.7,2.6,3.7,3,5.9c0,0,0.1,0,0.1,0c5.9,0,10.7,4.8,10.7,10.7c0,5.9-4.8,10.7-10.7,10.7
							c-1.4,0-2.8-0.3-4.1-0.8C157.3,610.9,150.2,616.7,141.9,616.7z M127,596.7l-0.1,2c0,0.2,0,0.4,0,0.5c0,8.2,6.7,14.9,14.9,14.9
							c7.6,0,14-5.7,14.9-13.3l0.2-2l1.7,1.1c1.3,0.8,2.8,1.3,4.4,1.3c4.5,0,8.2-3.7,8.2-8.2c0-4.5-3.7-8.2-8.2-8.2
							c-0.3,0-0.6,0-1,0.1l-1.3,0.1l-0.1-1.3c-0.3-2.5-1.5-4.8-3.4-6.4l-1.1-1l1.2-0.9c2.1-1.7,3.4-4.2,3.4-6.9
							c0-4.9-3.9-8.8-8.8-8.8c-4.8,0-8.8,3.9-8.8,8.8l0,2.1l-1.8-1c-1.6-0.9-3.7-1-5.4-0.2l-1.6,0.7l-0.2-1.7
							c-0.4-4.1-3.8-7.2-8-7.2c-4.4,0-8,3.6-8,8c0,0.8,0.1,1.7,0.4,2.4l0.6,1.7l-1.8-0.1c-0.1,0-0.2,0-0.4,0c-3.2,0-5.9,2.6-5.9,5.9
							c0,3.2,2.6,5.9,5.9,5.9c0.9,0,1.7-0.2,2.5-0.6l1.5-0.7l0.3,1.6c0.1,0.6,0.3,1.3,0.5,1.9l0.4,1.1l-1.1,0.5
							c-1.8,0.8-2.9,2.6-2.9,4.5c0,2.7,2.2,4.9,4.9,4.9c0.7,0,1.4-0.2,2.1-0.5L127,596.7z"/>
					</g>
				</g>
			</g>
		</g>
		<g class="st3">
			<g>
				<g>
					<path class="st1" d="M144.2,596.4c-1.9-2.5-2.1-5.8-0.6-8.3c-1.5-0.4-2.9-1.3-3.9-2.6c-2.6-3.4-2.1-8.2,1.3-10.9
						c0.4-0.3,0.8-0.6,1.2-0.8c-1.4,0.1-2.8,0.7-4,1.6c-3.4,2.6-3.9,7.5-1.3,10.9c1,1.3,2.4,2.2,3.9,2.6c-1.4,2.6-1.3,5.9,0.6,8.3
						c2.3,2.9,6.3,3.7,9.4,2C148.4,599.5,145.8,598.5,144.2,596.4z"/>
				</g>
			</g>
		</g>
	</g>
	<g>
		<g>
			<g>
				<g>
					<rect x="866.4" y="610.4" class="st1" width="2.5" height="21.9"/>
				</g>
			</g>
			<g>
				<g>
					<path class="st2" d="M886.4,590.4c-0.3,0-0.7,0-1,0.1c-0.3-2.5-1.5-4.7-3.3-6.2c2-1.6,3.3-4,3.3-6.8c0-4.8-3.9-8.6-8.6-8.6
						c-4.8,0-8.6,3.8-8.6,8.6c-0.9-0.5-2-0.8-3.1-0.8c-0.9,0-1.8,0.2-2.5,0.5c-0.4-4-3.8-7.2-7.9-7.2c-4.4,0-7.9,3.6-7.9,7.9
						c0,0.8,0.1,1.7,0.4,2.4c-0.1,0-0.3,0-0.4,0c-3.4,0-6.1,2.7-6.1,6.1s2.7,6.1,6.1,6.1c0.9,0,1.8-0.2,2.6-0.6
						c0.1,0.6,0.3,1.2,0.5,1.8c-1.9,0.8-3.2,2.7-3.2,4.8c0,2.9,2.4,5.3,5.3,5.3c0.8,0,1.6-0.2,2.3-0.5c0,0.2,0,0.3,0,0.5
						c0,7.7,6.2,13.9,13.9,13.9c7.2,0,13.1-5.4,13.8-12.4c1.3,0.8,2.8,1.3,4.4,1.3c4.5,0,8.2-3.7,8.2-8.2S890.9,590.4,886.4,590.4z"
						/>
				</g>
			</g>
			<g class="st3">
				<g>
					<g>
						<path class="st1" d="M883.7,582.4c0,0,0.1,0.1,0.1,0.1c0.1-0.2,0.2-0.4,0.4-0.5C884,582.1,883.9,582.3,883.7,582.4z"/>
					</g>
				</g>
				<g>
					<g>
						<path class="st1" d="M887.4,602.2c-1.4,0-2.7-0.4-3.8-1.1c-0.2,1.6-0.7,3.1-1.4,4.5c1.2,0.8,2.7,1.2,4.2,1.2
							c4.5,0,8.2-3.7,8.2-8.2c0-0.6-0.1-1.3-0.2-1.8C893.6,599.8,890.8,602.2,887.4,602.2z"/>
					</g>
				</g>
				<g>
					<g>
						<path class="st1" d="M871.4,611.9c-6.7,0-12.2-5.5-12.2-12.2c0-0.1,0-0.3,0-0.4c-0.6,0.3-1.3,0.4-2,0.4
							c-2.6,0-4.6-2.1-4.6-4.6c0-1.9,1.1-3.5,2.8-4.3c-0.2-0.5-0.4-1-0.5-1.6c-0.7,0.3-1.5,0.5-2.3,0.5c-3,0-5.4-2.4-5.4-5.4
							c0-3,2.4-5.4,5.4-5.4c0.1,0,0.2,0,0.3,0c-0.2-0.7-0.3-1.4-0.3-2.1c0-3,1.9-5.5,4.5-6.5c-0.8-0.2-1.6-0.4-2.4-0.4
							c-4.4,0-7.9,3.6-7.9,7.9c0,0.8,0.1,1.7,0.4,2.4c-0.1,0-0.3,0-0.4,0c-3.4,0-6.1,2.7-6.1,6.1s2.7,6.1,6.1,6.1
							c0.9,0,1.8-0.2,2.6-0.6c0.1,0.6,0.3,1.2,0.5,1.8c-1.9,0.8-3.2,2.7-3.2,4.8c0,2.9,2.4,5.3,5.3,5.3c0.8,0,1.6-0.2,2.3-0.5
							c0,0.2,0,0.3,0,0.5c0,7.7,6.2,13.9,13.9,13.9c7,0,12.9-5.2,13.8-12C879.9,609.5,875.9,611.9,871.4,611.9z"/>
					</g>
				</g>
			</g>
			<g>
				<g>
					<path class="st1" d="M868.2,619.1c-8,0-14.5-6.2-15.1-14c-0.3,0.1-0.7,0.1-1,0.1c-3.6,0-6.5-2.9-6.5-6.5c0-1.9,0.8-3.7,2.2-4.9
						c-0.3,0-0.6,0.1-0.9,0.1c-4.1,0-7.4-3.3-7.4-7.4c0-3.7,2.7-6.7,6.2-7.3c-0.1-0.4-0.1-0.8-0.1-1.3c0-5.1,4.1-9.2,9.2-9.2
						c4.2,0,7.8,2.8,8.9,6.8c1.2-0.2,2.4-0.2,3.6,0.1c0.9-4.6,4.9-8.1,9.7-8.1c5.5,0,9.9,4.4,9.9,9.9c0,2.6-1,5-2.8,6.8
						c1.2,1.4,2.1,3.1,2.5,4.9c5.2,0,9.3,4.2,9.3,9.4c0,5.2-4.2,9.4-9.4,9.4c-1.2,0-2.3-0.2-3.4-0.6
						C881.4,614.2,875.4,619.1,868.2,619.1z M855.6,601.4l-0.1,2c0,0.2,0,0.3,0,0.5c0,7,5.7,12.7,12.7,12.7
						c6.5,0,11.9-4.9,12.6-11.3l0.2-2l1.7,1.1c1.1,0.7,2.4,1.1,3.7,1.1c3.8,0,6.9-3.1,6.9-6.9c0-3.8-3.1-6.9-6.9-6.9
						c-0.3,0-0.5,0-0.8,0.1l-1.3,0.1l-0.1-1.3c-0.2-2.1-1.2-4-2.8-5.4l-1.1-1l1.2-0.9c1.8-1.4,2.8-3.5,2.8-5.8
						c0-4.1-3.3-7.4-7.4-7.4c-4.1,0-7.4,3.3-7.4,7.4l0,2.1l-1.8-1c-1.4-0.8-3.1-0.8-4.5-0.2l-1.6,0.7l-0.2-1.7
						c-0.3-3.5-3.2-6.1-6.7-6.1c-3.7,0-6.7,3-6.7,6.7c0,0.7,0.1,1.4,0.3,2.1l0.6,1.7l-1.8-0.1c-0.1,0-0.2,0-0.3,0
						c-2.7,0-4.9,2.2-4.9,4.9c0,2.7,2.2,4.9,4.9,4.9c0.7,0,1.4-0.2,2.1-0.5l1.5-0.7l0.3,1.6c0.1,0.5,0.2,1.1,0.4,1.6l0.4,1.1
						l-1.1,0.5c-1.5,0.6-2.4,2.1-2.4,3.7c0,2.2,1.8,4,4,4c0.6,0,1.2-0.1,1.7-0.4L855.6,601.4z"/>
				</g>
			</g>
		</g>
		<g class="st3">
			<g>
				<path class="st1" d="M870.2,601.5c-1.7-2.1-1.8-4.9-0.6-7.2c-1.3-0.4-2.5-1.1-3.4-2.3c-2.3-2.9-1.8-7.1,1.1-9.3
					c0.3-0.3,0.7-0.5,1-0.7c-1.2,0.1-2.4,0.6-3.4,1.4c-2.9,2.3-3.4,6.5-1.1,9.3c0.9,1.1,2.1,1.9,3.4,2.3c-1.2,2.2-1.1,5,0.6,7.2
					c2,2.5,5.4,3.1,8.1,1.7C873.8,604.1,871.6,603.2,870.2,601.5z"/>
			</g>
		</g>
	</g>
</g>
</svg>
