<svg xmlns="http://www.w3.org/2000/svg" xmlns:xlink="http://www.w3.org/1999/xlink" width="105" height="105.001" viewBox="0 0 105 105.001">
  <defs>
    <linearGradient id="linear-gradient" x1="0.5" x2="0.5" y2="1" gradientUnits="objectBoundingBox">
      <stop offset="0" stop-color="#1270e3"/>
      <stop offset="1" stop-color="#59c2ff"/>
    </linearGradient>
  </defs>
  <g id="insurance" transform="translate(0)">
    <path id="Path_48" data-name="Path 48" d="M248.051,120a2.051,2.051,0,1,0,2.051,2.051A2.052,2.052,0,0,0,248.051,120Zm0,0" transform="translate(-195.55 -95.391)" fill="url(#linear-gradient)"/>
    <path id="Path_49" data-name="Path 49" d="M54.551,8.24V2.051a2.051,2.051,0,1,0-4.1,0V8.24C25.39,9.036,3.65,24.306.423,48.815A7.406,7.406,0,0,0,0,51.27a2.051,2.051,0,0,0,2.051,2.051c.026,0,.05,0,.076,0s.063,0,.095,0a2.051,2.051,0,0,0,2.041-1.879c.046-.549.1-1.084.163-1.6,1.218-2.708,5.556-4.724,10.238-4.724,5.626,0,10.562,2.875,10.562,6.152a2.051,2.051,0,0,0,2.051,2.051c.046,0,.093,0,.139-.007.022,0,.045,0,.067,0l.021,0a2.055,2.055,0,0,0,1.847-2c0-.164.007-.33.012-.5.444-3.092,5.237-5.692,10.527-5.692,5.626,0,10.562,2.875,10.562,6.152V72.188H48.4a2.051,2.051,0,0,0-2.051,2.051V90.645a2.051,2.051,0,1,1-4.1,0,6.152,6.152,0,0,0-12.3,0,14.356,14.356,0,0,0,28.711,0V74.239A2.051,2.051,0,0,0,56.6,72.188H54.551V51.27c0-3.277,4.936-6.152,10.562-6.152,5.294,0,10.091,2.6,10.526,5.684,0,.167.01.336.013.5a2.05,2.05,0,0,0,1.857,2,1.925,1.925,0,0,0,.216.012,2.051,2.051,0,0,0,2.051-2.051c0-3.277,4.936-6.152,10.562-6.152,4.681,0,9.015,2.015,10.238,4.724.062.516.117,1.051.163,1.6a2.051,2.051,0,0,0,2.041,1.879c.031,0,.063,0,.095,0s.05,0,.076,0A2.051,2.051,0,0,0,105,51.27a7.4,7.4,0,0,0-.423-2.456C101.354,24.335,79.645,9.037,54.551,8.24ZM25.667,44.5a17.849,17.849,0,0,0-11-3.488,19.126,19.126,0,0,0-8.837,2.07C10.165,28.572,22.464,17.8,38.714,13.9,30.56,21.3,26.8,33.551,25.667,44.5ZM54.551,90.645a10.254,10.254,0,1,1-20.508,0,2.051,2.051,0,0,1,4.1,0,6.152,6.152,0,1,0,12.3,0V76.289h4.1ZM74.685,43.5a18.85,18.85,0,0,0-9.572-2.485,18.119,18.119,0,0,0-10.562,3.151v-9.3a2.051,2.051,0,0,0-4.1,0v9.3a18.119,18.119,0,0,0-10.562-3.151A18.85,18.85,0,0,0,30.316,43.5c-.147.088-.29.179-.431.272C32.016,26.365,40.071,13.91,50.45,12.448v6.009a2.051,2.051,0,1,0,4.1,0V12.448c10.379,1.46,18.435,13.917,20.565,31.324-.141-.092-.284-.183-.431-.272Zm15.653-2.485a17.851,17.851,0,0,0-11,3.487C78.2,33.578,74.452,21.31,66.287,13.9c16.249,3.9,28.549,14.673,32.887,29.186a19.129,19.129,0,0,0-8.837-2.07Zm0,0" fill="url(#linear-gradient)"/>
  </g>
</svg>
