<svg xmlns="http://www.w3.org/2000/svg" xmlns:xlink="http://www.w3.org/1999/xlink" width="43.2" height="43.153" viewBox="0 0 43.2 43.153">
  <defs>
    <clipPath id="clip-path">
      <path id="Path_2803" data-name="Path 2803" d="M0-64H14.179v22.661H0Z" transform="translate(0 64)" fill="#fff"/>
    </clipPath>
  </defs>
  <g id="location" transform="translate(0 0)">
    <g id="Ellipse_4" data-name="Ellipse 4" fill="none" stroke="#fff" stroke-width="1">
      <ellipse cx="21.6" cy="21.576" rx="21.6" ry="21.576" stroke="none"/>
      <ellipse cx="21.6" cy="21.576" rx="21.1" ry="21.076" fill="none"/>
    </g>
    <g id="Group_2895" data-name="Group 2895" transform="translate(14.4 10.788)">
      <g id="Group_2894" data-name="Group 2894" clip-path="url(#clip-path)">
        <g id="Group_2893" data-name="Group 2893" transform="translate(0 0)">
          <path id="Path_2802" data-name="Path 2802" d="M-12.911-20.049a3.827,3.827,0,0,1-3.829-3.824A3.825,3.825,0,0,1-12.911-27.7a3.825,3.825,0,0,1,3.829,3.823,3.827,3.827,0,0,1-3.829,3.824m0-10.99A7.086,7.086,0,0,0-20-23.958c0,6.762,7.089,15.579,7.089,15.579S-5.821-17.2-5.821-23.958a7.086,7.086,0,0,0-7.089-7.081" transform="translate(20 31.039)" fill="#fff"/>
        </g>
      </g>
    </g>
  </g>
</svg>
