<svg xmlns="http://www.w3.org/2000/svg" xmlns:xlink="http://www.w3.org/1999/xlink" width="496" height="336" viewBox="0 0 496 336">
  <defs>
    <linearGradient id="linear-gradient" x1="0.987" y1="0.028" x2="0.027" y2="1" gradientUnits="objectBoundingBox">
      <stop offset="0" stop-color="#46eeaa"/>
      <stop offset="0.498" stop-color="#46eeaa"/>
      <stop offset="1" stop-color="#46eeaa"/>
    </linearGradient>
  </defs>
  <g id="menuicon" transform="translate(0 -80)">
    <g id="Group_8484" data-name="Group 8484">
      <path id="Exclusion_1" data-name="Exclusion 1" d="M3133.8,153H2684.2a21.839,21.839,0,0,1-9.025-1.95,23.527,23.527,0,0,1-7.375-5.25,24.633,24.633,0,0,1-4.975-7.65,23.851,23.851,0,0,1,0-18.3,24.627,24.627,0,0,1,4.975-7.65,23.53,23.53,0,0,1,7.375-5.25A21.839,21.839,0,0,1,2684.2,105h449.6a21.841,21.841,0,0,1,9.025,1.95,23.535,23.535,0,0,1,7.375,5.25,24.635,24.635,0,0,1,4.975,7.65,23.851,23.851,0,0,1,0,18.3,24.635,24.635,0,0,1-4.975,7.65,23.532,23.532,0,0,1-7.375,5.25A21.84,21.84,0,0,1,3133.8,153Zm0-144H2684.2a21.838,21.838,0,0,1-9.025-1.95A23.527,23.527,0,0,1,2667.8,1.8a24.633,24.633,0,0,1-4.975-7.65A23.9,23.9,0,0,1,2661-15a23.9,23.9,0,0,1,1.825-9.15,24.63,24.63,0,0,1,4.975-7.65,23.53,23.53,0,0,1,7.375-5.25A21.839,21.839,0,0,1,2684.2-39h449.6a21.841,21.841,0,0,1,9.025,1.95,23.535,23.535,0,0,1,7.375,5.25,24.634,24.634,0,0,1,4.975,7.65A23.9,23.9,0,0,1,3157-15a23.9,23.9,0,0,1-1.825,9.15A24.635,24.635,0,0,1,3150.2,1.8a23.532,23.532,0,0,1-7.375,5.25A21.84,21.84,0,0,1,3133.8,9Zm0-144H2684.2a21.839,21.839,0,0,1-9.025-1.95,23.527,23.527,0,0,1-7.375-5.25,24.633,24.633,0,0,1-4.975-7.65A23.9,23.9,0,0,1,2661-159a23.9,23.9,0,0,1,1.825-9.15,24.63,24.63,0,0,1,4.975-7.65,23.53,23.53,0,0,1,7.375-5.25A21.839,21.839,0,0,1,2684.2-183h449.6a21.841,21.841,0,0,1,9.025,1.95,23.535,23.535,0,0,1,7.375,5.25,24.634,24.634,0,0,1,4.975,7.65A23.9,23.9,0,0,1,3157-159a23.9,23.9,0,0,1-1.825,9.15,24.635,24.635,0,0,1-4.975,7.65,23.532,23.532,0,0,1-7.375,5.25A21.84,21.84,0,0,1,3133.8-135Z" transform="translate(-2661 263)" fill="url(#linear-gradient)"/>
    </g>
  </g>
</svg>
