<svg xmlns="http://www.w3.org/2000/svg" xmlns:xlink="http://www.w3.org/1999/xlink" width="43.2" height="43.153" viewBox="0 0 43.2 43.153">
  <defs>
    <clipPath id="clip-path">
      <path id="Path_2805" data-name="Path 2805" d="M0-445.288H17.73V-463H0Z" transform="translate(-0.001 463)" fill="#fff"/>
    </clipPath>
  </defs>
  <g id="phone" transform="translate(0 0)">
    <g id="Ellipse_4" data-name="Ellipse 4" transform="translate(0)" fill="none" stroke="#fff" stroke-width="1" opacity="0.95">
      <ellipse cx="21.6" cy="21.576" rx="21.6" ry="21.576" stroke="none"/>
      <ellipse cx="21.6" cy="21.576" rx="21.1" ry="21.076" fill="none"/>
    </g>
    <g id="Group_5569" data-name="Group 5569" transform="translate(13.2 13.185)" opacity="0.95">
      <g id="Group_2897" data-name="Group 2897" clip-path="url(#clip-path)">
        <g id="Group_2896" data-name="Group 2896" transform="translate(0 0)">
          <path id="Path_2804" data-name="Path 2804" d="M-444.564-350.8a.855.855,0,0,1-.263.749l-2.494,2.472a1.4,1.4,0,0,1-.441.318,1.823,1.823,0,0,1-.534.169q-.019,0-.113.009t-.244.009a8.665,8.665,0,0,1-1.153-.122,8.757,8.757,0,0,1-1.95-.6,16.377,16.377,0,0,1-2.616-1.433,19.5,19.5,0,0,1-3.112-2.622,20.533,20.533,0,0,1-2.175-2.472,17.606,17.606,0,0,1-1.388-2.182,11.726,11.726,0,0,1-.787-1.817,9.621,9.621,0,0,1-.356-1.4,4.629,4.629,0,0,1-.075-.927q.019-.337.019-.375a1.819,1.819,0,0,1,.169-.534,1.4,1.4,0,0,1,.319-.44l2.494-2.491a.826.826,0,0,1,.6-.262.7.7,0,0,1,.431.14,1.3,1.3,0,0,1,.319.347l2.006,3.8a.911.911,0,0,1,.094.656,1.166,1.166,0,0,1-.319.6l-.919.918a.313.313,0,0,0-.066.122.463.463,0,0,0-.028.14,3.373,3.373,0,0,0,.338.9,8.266,8.266,0,0,0,.694,1.1,12.187,12.187,0,0,0,1.331,1.489,12.413,12.413,0,0,0,1.5,1.339,8.67,8.67,0,0,0,1.1.7,2.928,2.928,0,0,0,.675.272l.234.047a.449.449,0,0,0,.122-.028.31.31,0,0,0,.122-.066l1.069-1.086a1.15,1.15,0,0,1,.788-.3.981.981,0,0,1,.506.112h.019l3.619,2.135a.942.942,0,0,1,.469.618" transform="translate(462.266 364.754)" fill="#fff"/>
        </g>
      </g>
    </g>
  </g>
</svg>
