<svg xmlns="http://www.w3.org/2000/svg" xmlns:xlink="http://www.w3.org/1999/xlink" width="176.023" height="197.597" viewBox="0 0 176.023 197.597">
  <defs>
    <linearGradient id="linear-gradient" x1="0.5" x2="0.5" y2="1" gradientUnits="objectBoundingBox">
      <stop offset="0" stop-color="#b122e5"/>
      <stop offset="1" stop-color="#ff63de"/>
    </linearGradient>
  </defs>
  <g id="question" transform="translate(2.511)">
    <path id="Path_73" data-name="Path 73" d="M147.734,25.778A88.011,88.011,0,0,0,16.028,142.042L4.006,192.8a3.9,3.9,0,0,0,5.38,4.466l54.089-24.024A88.02,88.02,0,0,0,147.734,25.778ZM85.5,168.216a80.457,80.457,0,0,1-21.317-2.867,3.9,3.9,0,0,0-2.618.2L13.414,186.931,24.06,142a3.9,3.9,0,0,0-.772-3.365A80.205,80.205,0,1,1,85.5,168.216Zm0,0" transform="translate(0)" fill="url(#linear-gradient)"/>
    <path id="Path_74" data-name="Path 74" d="M240.767,185.546a55.5,55.5,0,1,0-55.5,55.505A55.568,55.568,0,0,0,240.767,185.546Zm-55.5,47.7a47.7,47.7,0,1,1,47.7-47.7A47.754,47.754,0,0,1,185.263,233.247Zm0,0" transform="translate(-99.762 -98.082)" fill="url(#linear-gradient)"/>
    <path id="Path_75" data-name="Path 75" d="M521.87,474.94a3.9,3.9,0,0,0-4.909,2.524c-3.292,10.259-12.468,17.325-19.586,21.445a3.9,3.9,0,1,0,3.909,6.755c8.307-4.807,19.057-13.19,23.108-25.815A3.9,3.9,0,0,0,521.87,474.94Zm0,0" transform="translate(-375.561 -358.074)" fill="url(#linear-gradient)"/>
    <path id="Path_76" data-name="Path 76" d="M446.533,601.983a3.9,3.9,0,0,0-5.083,2.15l-.017.041a3.9,3.9,0,0,0,7.234,2.933l.016-.041A3.9,3.9,0,0,0,446.533,601.983Zm0,0" transform="translate(-334.62 -453.819)" fill="url(#linear-gradient)"/>
    <path id="Path_77" data-name="Path 77" d="M335.892,457.8a5.681,5.681,0,0,0-4.55,2.021,7.641,7.641,0,0,0,0,9.653,5.617,5.617,0,0,0,4.55,2.073,6.541,6.541,0,0,0,4.851-2.073,6.848,6.848,0,0,0-4.851-11.674Zm0,0" transform="translate(-250.507 -345.284)" fill="url(#linear-gradient)"/>
    <path id="Path_78" data-name="Path 78" d="M318.147,213.836q-5.662-4.85-15.161-4.852-8.492,0-13.544,3.84t-5.053,8.086a4.346,4.346,0,0,0,1.559,3.588,5.388,5.388,0,0,0,3.476,1.264,3.888,3.888,0,0,0,2.667-1.031,12.247,12.247,0,0,0,1.966-2.2,7.387,7.387,0,0,1,3.022-2.2,13.109,13.109,0,0,1,5.537-1.031,11.767,11.767,0,0,1,7.555,2.249,7.646,7.646,0,0,1,2.821,6.344,9.988,9.988,0,0,1-1.163,4.646,13.587,13.587,0,0,1-2.324,3.4q-1.163,1.149-3.488,3.148l-2.931,2.4q-6.064,5.4-6.064,15.787,0,3.2,1.059,4.4a4.6,4.6,0,0,0,3.59,1.2q5.051,0,5.053-3.639a29.259,29.259,0,0,1,.809-7.885q.805-2.726,4.244-5.457l1.932-1.617,2.647-2.527q.816-.807,2.5-2.881a22.814,22.814,0,0,0,2.551-3.739,25.6,25.6,0,0,0,1.631-4.095,16.323,16.323,0,0,0,.767-4.952,15.421,15.421,0,0,0-5.659-12.229Zm0,0" transform="translate(-216.389 -157.622)" fill="url(#linear-gradient)"/>
  </g>
</svg>
