<svg xmlns="http://www.w3.org/2000/svg" xmlns:xlink="http://www.w3.org/1999/xlink" width="116.403" height="98.217" viewBox="0 0 116.403 98.217">
  <defs>
    <linearGradient id="linear-gradient" x1="0.5" x2="0.5" y2="1" gradientUnits="objectBoundingBox">
      <stop offset="0" stop-color="#ff63de"/>
      <stop offset="1" stop-color="#b122e5"/>
    </linearGradient>
  </defs>
  <g id="smile" transform="translate(0 -39.995)">
    <g id="Group_29" data-name="Group 29" transform="translate(20.665 96.453)">
      <g id="Group_28" data-name="Group 28">
        <path id="Path_28" data-name="Path 28" d="M94.777,288.993a2.276,2.276,0,1,0,.666,1.608A2.288,2.288,0,0,0,94.777,288.993Z" transform="translate(-90.895 -288.326)" fill="url(#linear-gradient)"/>
      </g>
    </g>
    <g id="Group_31" data-name="Group 31" transform="translate(42.114 96.453)">
      <g id="Group_30" data-name="Group 30">
        <path id="Path_29" data-name="Path 29" d="M189.122,288.993a2.276,2.276,0,1,0,.666,1.608A2.291,2.291,0,0,0,189.122,288.993Z" transform="translate(-185.24 -288.326)" fill="url(#linear-gradient)"/>
      </g>
    </g>
    <g id="Group_33" data-name="Group 33" transform="translate(23.816 109.531)">
      <g id="Group_32" data-name="Group 32">
        <path id="Path_30" data-name="Path 30" d="M122.762,345.93a2.274,2.274,0,0,0-2.785,1.61,5.563,5.563,0,0,1-10.752,0,2.275,2.275,0,1,0-4.395,1.174,10.112,10.112,0,0,0,19.542,0A2.275,2.275,0,0,0,122.762,345.93Z" transform="translate(-104.754 -345.851)" fill="url(#linear-gradient)"/>
      </g>
    </g>
    <g id="Group_35" data-name="Group 35" transform="translate(55.954 39.995)">
      <g id="Group_34" data-name="Group 34" transform="translate(0 0)">
        <path id="Path_31" data-name="Path 31" d="M248.391,39.995a2.275,2.275,0,0,0-2.275,2.275V56.71a2.275,2.275,0,1,0,4.549,0V42.27A2.275,2.275,0,0,0,248.391,39.995Z" transform="translate(-246.116 -39.995)" fill="url(#linear-gradient)"/>
      </g>
    </g>
    <g id="Group_37" data-name="Group 37" transform="translate(55.955 62.473)">
      <g id="Group_36" data-name="Group 36" transform="translate(0 0)">
        <path id="Path_32" data-name="Path 32" d="M250,139.53a2.273,2.273,0,1,0,.666,1.608A2.283,2.283,0,0,0,250,139.53Z" transform="translate(-246.121 -138.864)" fill="url(#linear-gradient)"/>
      </g>
    </g>
    <g id="Group_39" data-name="Group 39" transform="translate(34.678 54.206)">
      <g id="Group_38" data-name="Group 38">
        <path id="Path_33" data-name="Path 33" d="M162.223,108.97l-5.807-5.8a2.275,2.275,0,1,0-3.215,3.218l5.807,5.8a2.275,2.275,0,1,0,3.215-3.218Z" transform="translate(-152.534 -102.503)" fill="url(#linear-gradient)"/>
      </g>
    </g>
    <g id="Group_41" data-name="Group 41" transform="translate(71.062 54.212)">
      <g id="Group_40" data-name="Group 40">
        <path id="Path_34" data-name="Path 34" d="M322.625,103.194a2.275,2.275,0,0,0-3.217,0l-6.174,6.179a2.275,2.275,0,1,0,3.218,3.216l6.174-6.179A2.274,2.274,0,0,0,322.625,103.194Z" transform="translate(-312.569 -102.528)" fill="url(#linear-gradient)"/>
      </g>
    </g>
    <g id="Group_43" data-name="Group 43" transform="translate(0 70.864)">
      <g id="Group_42" data-name="Group 42" transform="translate(0 0)">
        <path id="Path_35" data-name="Path 35" d="M115.252,200.73a33.68,33.68,0,0,0-57.067-14.336,33.665,33.665,0,1,0,.025,46.1,33.66,33.66,0,0,0,57.042-31.765ZM33.664,238.573a29.115,29.115,0,1,1,21.618-48.617q-.905,1.28-1.7,2.655A33.673,33.673,0,0,0,55.3,228.948,28.98,28.98,0,0,1,33.664,238.573Zm56.606-1.007a29.115,29.115,0,0,1-32.75-42.68,29.545,29.545,0,0,1,2.389-3.526c.038-.043.073-.088.107-.134a29.117,29.117,0,1,1,30.254,46.34Z" transform="translate(0 -175.775)" fill="url(#linear-gradient)"/>
      </g>
    </g>
    <g id="Group_45" data-name="Group 45" transform="translate(66.373 96.416)">
      <g id="Group_44" data-name="Group 44">
        <path id="Path_36" data-name="Path 36" d="M301.641,291.819a4.933,4.933,0,1,0-9.531,2.554A2.274,2.274,0,1,0,296.5,293.2a.385.385,0,0,1,.272-.471.385.385,0,0,1,.471.272,2.275,2.275,0,0,0,4.394-1.177Z" transform="translate(-291.942 -288.161)" fill="url(#linear-gradient)"/>
      </g>
    </g>
    <g id="Group_47" data-name="Group 47" transform="translate(86.961 90.897)">
      <g id="Group_46" data-name="Group 46">
        <path id="Path_37" data-name="Path 37" d="M392.2,267.548a4.933,4.933,0,0,0-9.531,2.554,2.275,2.275,0,0,0,4.394-1.178.384.384,0,0,1,.742-.2,2.275,2.275,0,0,0,4.394-1.177Z" transform="translate(-382.499 -263.889)" fill="url(#linear-gradient)"/>
      </g>
    </g>
    <g id="Group_49" data-name="Group 49" transform="translate(75.326 107.142)">
      <g id="Group_48" data-name="Group 48" transform="translate(0 0)">
        <path id="Path_38" data-name="Path 38" d="M350.665,337.028a2.275,2.275,0,1,0-4.394,1.177,5.423,5.423,0,1,1-10.477,2.807,2.275,2.275,0,0,0-4.394,1.177,9.986,9.986,0,0,0,9.617,7.4,9.987,9.987,0,0,0,9.649-12.558Z" transform="translate(-331.322 -335.341)" fill="url(#linear-gradient)"/>
      </g>
    </g>
  </g>
</svg>
