<svg xmlns="http://www.w3.org/2000/svg" xmlns:xlink="http://www.w3.org/1999/xlink" width="178.169" height="178.17" viewBox="0 0 178.169 178.17">
  <defs>
    <linearGradient id="linear-gradient" x1="0.5" x2="0.5" y2="1" gradientUnits="objectBoundingBox">
      <stop offset="0" stop-color="#b122e5"/>
      <stop offset="1" stop-color="#ff63de"/>
    </linearGradient>
  </defs>
  <g id="social-care" transform="translate(-0.001)">
    <g id="Group_3" data-name="Group 3" transform="translate(26.665 163.829)">
      <g id="Group_2" data-name="Group 2">
        <path id="Path_12" data-name="Path 12" d="M88.181,479.637l-5.239-7.379a3.48,3.48,0,1,0-5.675,4.029l5.239,7.38a3.48,3.48,0,1,0,5.675-4.029Z" transform="translate(-76.624 -470.791)" fill="url(#linear-gradient)"/>
      </g>
    </g>
    <g id="Group_5" data-name="Group 5" transform="translate(0.001 54.443)">
      <g id="Group_4" data-name="Group 4" transform="translate(0)">
        <path id="Path_13" data-name="Path 13" d="M78.369,275.983l-5.7-27.174a51.248,51.248,0,0,0-21.674-32.173l-12.173-8.185A12.245,12.245,0,0,0,23.3,210.035V168.1a11.649,11.649,0,0,0-18.94-9.086A11.594,11.594,0,0,0,0,168.1V222.06a33.708,33.708,0,0,0,6.255,19.616l6.206,8.742a3.48,3.48,0,1,0,5.675-4.029l-6.206-8.742a26.784,26.784,0,0,1-4.97-15.588V168.1a4.689,4.689,0,1,1,9.379,0v42.808a24.314,24.314,0,0,0,6.271,16.325c.173.208.351.413.54.613,2.311,2.449,5.028,5.334,7.587,8.054l3.583,3.813c.011.012.024.023.036.034,3.065,3.26,5.325,5.667,5.372,5.717A3.48,3.48,0,1,0,44.8,240.7c-.063-.068-4.137-4.405-8.789-9.35l-7.979-8.492-.059-.066a5.872,5.872,0,0,1,.113-7.7,5.261,5.261,0,0,1,6.85-.874l12.172,8.185a44.322,44.322,0,0,1,18.746,27.827l5.7,27.174a3.48,3.48,0,1,0,6.811-1.43Z" transform="translate(-0.001 -156.451)" fill="url(#linear-gradient)"/>
      </g>
    </g>
    <g id="Group_7" data-name="Group 7" transform="translate(19.448 153.662)">
      <g id="Group_6" data-name="Group 6">
        <path id="Path_14" data-name="Path 14" d="M62.219,443.066l-.022-.031a3.48,3.48,0,0,0-5.666,4.042l.022.031a3.48,3.48,0,0,0,5.666-4.042Z" transform="translate(-55.884 -441.575)" fill="url(#linear-gradient)"/>
      </g>
    </g>
    <g id="Group_9" data-name="Group 9" transform="translate(99.726 54.444)">
      <g id="Group_8" data-name="Group 8">
        <path id="Path_15" data-name="Path 15" d="M360.664,159.02a11.649,11.649,0,0,0-18.94,9.086v41.931a12.245,12.245,0,0,0-15.522-1.584l-12.173,8.185a51.245,51.245,0,0,0-21.674,32.173l-5.7,27.174a3.48,3.48,0,1,0,6.811,1.429l5.7-27.174a44.323,44.323,0,0,1,18.746-27.826l12.173-8.185a5.261,5.261,0,0,1,6.85.874,5.872,5.872,0,0,1,.121,7.688l-.066.074-16.768,17.842a3.48,3.48,0,1,0,5.073,4.764c.047-.05,14.267-15.169,16.578-17.618.188-.2.366-.405.54-.613a24.316,24.316,0,0,0,6.271-16.325V168.106a4.69,4.69,0,1,1,9.379,0v53.956a26.784,26.784,0,0,1-4.97,15.588L326.8,274.685a3.48,3.48,0,1,0,5.675,4.029l26.291-37.035a33.708,33.708,0,0,0,6.255-19.616V168.106A11.6,11.6,0,0,0,360.664,159.02Z" transform="translate(-286.58 -156.454)" fill="url(#linear-gradient)"/>
      </g>
    </g>
    <g id="Group_11" data-name="Group 11" transform="translate(32.499 18.791)">
      <g id="Group_10" data-name="Group 10">
        <path id="Path_16" data-name="Path 16" d="M194.051,101.9l-6.191-1.479v-1.11a15.564,15.564,0,0,0,6.662-12.761V78.505a15.562,15.562,0,0,0-25.679-11.837,20.318,20.318,0,0,0-37.658.028A15.562,15.562,0,0,0,105.473,78.5v8.049a15.564,15.564,0,0,0,6.662,12.761v1.11l-6.191,1.479A16.3,16.3,0,0,0,93.39,117.81v6.5a3.48,3.48,0,0,0,3.48,3.48h15.991c-.025.422-.042.846-.042,1.274v12.513a3.48,3.48,0,0,0,3.48,3.48h20.917a3.48,3.48,0,0,0,0-6.96h-3.6V130.9a3.48,3.48,0,0,0-6.96,0V138.1h-6.882v-9.033a14.408,14.408,0,0,1,11.085-14.055l9.549-2.288,6.391,14.54a3.48,3.48,0,0,0,3.185,2.08h0a3.48,3.48,0,0,0,3.185-2.079l6.384-14.518,9.519,2.274a14.406,14.406,0,0,1,11.095,14.058V138.1h-6.882V130.9a3.48,3.48,0,0,0-6.96,0V138.1h-3.944a3.48,3.48,0,1,0,0,6.96h21.266a3.48,3.48,0,0,0,3.48-3.48v-12.5c0-.431-.017-.858-.042-1.284h16.036a3.48,3.48,0,0,0,3.48-3.48v-6.5A16.3,16.3,0,0,0,194.051,101.9Zm-15.1-32.014a8.626,8.626,0,0,1,8.6,8.046h-4.838a25.364,25.364,0,0,1-11.668-2.844A8.626,8.626,0,0,1,178.948,69.89Zm-8.615,16.155c0-.169.013-.338.013-.509v-3.1a32.325,32.325,0,0,0,12.36,2.459h4.857v1.657a8.615,8.615,0,1,1-17.229,0Zm-33.68-11.719h0A13.367,13.367,0,0,1,163.218,72.2l-5.858-3.442a3.479,3.479,0,0,0-4.43.766A14.993,14.993,0,0,1,141.41,74.9h-4.757ZM121.048,69.89a8.627,8.627,0,0,1,7.91,5.2,25.365,25.365,0,0,1-11.668,2.844h-4.838A8.626,8.626,0,0,1,121.048,69.89ZM112.434,84.9h4.857a32.326,32.326,0,0,0,12.373-2.464v4.121a8.615,8.615,0,0,1-17.229,0V84.9Zm16.808,23.345a21.341,21.341,0,0,0-14.788,12.589h-14.1v-3.019a9.365,9.365,0,0,1,7.212-9.138l8.863-2.117a3.48,3.48,0,0,0,2.671-3.385V102a15.106,15.106,0,0,0,3.891,0V103c0,.052,0,.1,0,.156a3.485,3.485,0,0,0,2.828,3.424L131,107.819Zm9.707-5.4a16.328,16.328,0,0,0-2.786-.94l-6.216-1.49V99.325a15.7,15.7,0,0,0,3.016-2.755,20.487,20.487,0,0,0,5.987,6v.268Zm15.114,5.113-4.072,9.262-4.082-9.285v-2.483a20.394,20.394,0,0,0,8.154.013ZM150.02,98.9a13.381,13.381,0,0,1-13.366-13.366V81.861h4.757A21.926,21.926,0,0,0,156.2,76.149l7.176,4.216v5.681A13.38,13.38,0,0,1,150.02,98.9Zm11,3.947v-.236a20.479,20.479,0,0,0,6.037-6.015,15.7,15.7,0,0,0,2.991,2.726v1.084l-6.217,1.49A16.386,16.386,0,0,0,161.022,102.849Zm38.624,17.98H185.494a21.337,21.337,0,0,0-14.8-12.583l-1.747-.417,5.219-1.251a3.483,3.483,0,0,0,2.843-3.427c0-.027,0-.055,0-.082V102a15.106,15.106,0,0,0,3.891,0v1.17a3.48,3.48,0,0,0,2.671,3.385l8.863,2.117a9.365,9.365,0,0,1,7.212,9.138v3.019Z" transform="translate(-93.39 -54)" fill="url(#linear-gradient)"/>
      </g>
    </g>
    <g id="Group_13" data-name="Group 13" transform="translate(85.605 102.889)">
      <g id="Group_12" data-name="Group 12">
        <path id="Path_17" data-name="Path 17" d="M251.94,296.686a3.481,3.481,0,1,0,1.02,2.464A3.508,3.508,0,0,0,251.94,296.686Z" transform="translate(-246 -295.67)" fill="url(#linear-gradient)"/>
      </g>
    </g>
    <g id="Group_15" data-name="Group 15" transform="translate(85.603)">
      <g id="Group_14" data-name="Group 14">
        <path id="Path_18" data-name="Path 18" d="M249.473,0a3.48,3.48,0,0,0-3.48,3.48V8.687a3.48,3.48,0,1,0,6.96,0V3.48A3.48,3.48,0,0,0,249.473,0Z" transform="translate(-245.993)" fill="url(#linear-gradient)"/>
      </g>
    </g>
    <g id="Group_17" data-name="Group 17" transform="translate(66.675 6.686)">
      <g id="Group_16" data-name="Group 16">
        <path id="Path_19" data-name="Path 19" d="M201.189,23.878l-3.65-3.647a3.48,3.48,0,1,0-4.919,4.923l3.651,3.647a3.48,3.48,0,1,0,4.918-4.923Z" transform="translate(-191.599 -19.213)" fill="url(#linear-gradient)"/>
      </g>
    </g>
    <g id="Group_19" data-name="Group 19" transform="translate(100.828 6.775)">
      <g id="Group_18" data-name="Group 18">
        <path id="Path_20" data-name="Path 20" d="M299.307,20.487a3.48,3.48,0,0,0-4.921,0l-3.622,3.626a3.48,3.48,0,1,0,4.924,4.919l3.622-3.626A3.48,3.48,0,0,0,299.307,20.487Z" transform="translate(-289.746 -19.469)" fill="url(#linear-gradient)"/>
      </g>
    </g>
  </g>
</svg>
