<svg xmlns="http://www.w3.org/2000/svg" width="90" height="108.486" viewBox="0 0 90 108.486">
  <g id="tag" transform="translate(0.002 0)">
    <path id="Path_125" data-name="Path 125" d="M45,108.486a45.2,45.2,0,0,0,1.808-90.36V1.808a1.808,1.808,0,0,0-3.616,0V18.126A45.2,45.2,0,0,0,45,108.486Zm0-68.708a1.808,1.808,0,0,0,1.808-1.808V36.664a3.616,3.616,0,1,1-3.616,0V37.97A1.808,1.808,0,0,0,45,39.778ZM43.19,21.742V32.8a7.233,7.233,0,1,0,3.616,0V21.742a41.586,41.586,0,1,1-3.616,0Zm0,0" transform="translate(0)" fill="#59c2ff"/>
    <path id="Path_126" data-name="Path 126" d="M143.765,285.459a1.655,1.655,0,0,0,2.317-.331l19.86-26.481a1.655,1.655,0,0,0-2.648-1.986l-19.86,26.481A1.654,1.654,0,0,0,143.765,285.459Zm0,0" transform="translate(-109.69 -196.041)" fill="#59c2ff"/>
    <path id="Path_127" data-name="Path 127" d="M133.722,269.24a6.62,6.62,0,1,0-6.62-6.62A6.62,6.62,0,0,0,133.722,269.24Zm0-9.93a3.31,3.31,0,1,1-3.31,3.31A3.31,3.31,0,0,1,133.722,259.31Zm0,0" transform="translate(-97.911 -197.387)" fill="#59c2ff"/>
    <path id="Path_128" data-name="Path 128" d="M207.1,342.62a6.62,6.62,0,1,0,6.62-6.62A6.62,6.62,0,0,0,207.1,342.62Zm9.93,0a3.31,3.31,0,1,1-3.31-3.31A3.31,3.31,0,0,1,217.032,342.62Zm0,0" transform="translate(-159.537 -259.071)" fill="#59c2ff"/>
  </g>
</svg>
