<svg xmlns="http://www.w3.org/2000/svg" xmlns:xlink="http://www.w3.org/1999/xlink" width="63.044" height="59.72" viewBox="0 0 63.044 59.72">
  <defs>
    <linearGradient id="linear-gradient" x1="1" y1="0.5" x2="0" y2="0.5" gradientUnits="objectBoundingBox">
      <stop offset="0" stop-color="#1270e3"/>
      <stop offset="1" stop-color="#59c2ff"/>
    </linearGradient>
  </defs>
  <path id="Union_4" data-name="Union 4" d="M31.521,59.669c-.577.01-8.409.112-9.239,0-.862-.117,0-.807,1.091-1.61a3.082,3.082,0,0,0,1.208-2.012l.41-2.618h13.06l.41,2.62a3.085,3.085,0,0,0,1.208,2.01c1.089.806,1.952,1.493,1.091,1.61-.289.039-1.426.052-2.811.052C35.357,59.721,31.9,59.675,31.521,59.669Zm-29-8.761A2.522,2.522,0,0,1,0,48.386V11.821A2.522,2.522,0,0,1,2.522,9.3h36.2l-2.665,3.784H3.784v30.26H59.262V13.082H49.175L52.651,9.3h7.871a2.523,2.523,0,0,1,2.522,2.522V48.386a2.523,2.523,0,0,1-2.522,2.522ZM16.811,37.133c3.489-.026,3.923-.867,5.061-4.371,2.1-5.528,11.542,1.448,5.689,3.868a19.243,19.243,0,0,1-7.135,1.232C16.98,37.863,14.679,37.15,16.811,37.133Zm11.544-6.361c-1.692-1.363-1.7-.943.066-3.137l17.9-25.429C48.086.014,50.89-.658,52.584.707s1.632,4.246-.135,6.441l-21.042,22.9c-.963,1.195-1.279,1.709-1.642,1.709C29.462,31.751,29.127,31.393,28.355,30.772ZM46.847,2.748a9.727,9.727,0,0,1,1.135,1S48.288,2.443,50.725,1a3.608,3.608,0,0,0-.481-.028A3.871,3.871,0,0,0,46.847,2.748Z" transform="translate(0 0)" fill="url(#linear-gradient)"/>
</svg>
