<?xml version="1.0" encoding="utf-8"?>
<!-- Generator: Adobe Illustrator 23.0.1, SVG Export Plug-In . SVG Version: 6.00 Build 0)  -->
<svg version="1.1" id="Capa_1" xmlns="http://www.w3.org/2000/svg" xmlns:xlink="http://www.w3.org/1999/xlink" x="0px" y="0px"
	 viewBox="0 0 508 508" style="enable-background:new 0 0 508 508;" xml:space="preserve">
<style type="text/css">
	.st0{fill:url(#SVGID_1_);}
	.st1{fill:url(#SVGID_2_);}
</style>
<g>
	<g>
		<g>
			<linearGradient id="SVGID_1_" gradientUnits="userSpaceOnUse" x1="98.3854" y1="335.9903" x2="163.9" y2="335.9903">
				<stop  offset="0" style="stop-color:#1270E3"/>
				<stop  offset="1" style="stop-color:#59C2FF"/>
			</linearGradient>
			<path class="st0" d="M106.9,373.8l-1.9,11.3h52.1l-1.8-11.3c-2.1-12.6,0-26.7,6.2-41.9c1.6-3.9,2.4-8,2.4-12.3
				c0-9.7-4.3-18.9-11.7-25.1c-7.4-6.3-17.2-8.8-27-7.1c-13.4,2.4-24.3,13.5-26.4,26.9c-1,6.5-0.2,13,2.5,18.8
				C107.2,346.1,109.2,360.2,106.9,373.8z M114.9,316.8c1-6.6,6.6-12.2,13.1-13.4c5-0.8,9.8,0.4,13.6,3.6c3.7,3.1,5.9,7.7,5.9,12.6
				c0,2.1-0.4,4.2-1.2,6.1c-6.2,15.1-8.9,29.6-8.1,43.1H124c1-14.3-1.7-28.8-7.9-42.5C114.8,323.3,114.4,320.1,114.9,316.8z"/>
			<linearGradient id="SVGID_2_" gradientUnits="userSpaceOnUse" x1="0" y1="254" x2="508" y2="254">
				<stop  offset="0" style="stop-color:#1270E3"/>
				<stop  offset="1" style="stop-color:#59C2FF"/>
			</linearGradient>
			<path class="st1" d="M475.2,73.7H339.3l-24.6-24.6h-55.9l-21.2,21.2V84c-9.5,2-19.6,5.2-29.6,9.6c-12.5,5.5-23.7,12.4-32.5,19.7
				c-12.4-9.4-27.7-15-44.4-15c-40.7,0-73.7,33.1-73.7,73.7v41H41c-22.6,0-41,18.4-41,41v163.9c0,22.6,18.4,41,41,41h180.3
				c22.6,0,41-18.4,41-41V254c0-22.6-18.4-41-41-41h-16.4v-41c0-3-0.2-5.9-0.6-8.8c9.7-1.9,20-5.1,30.2-9.6c3.3-1.4,6.4-3,9.5-4.6
				l14.9,14.9h55.9l24.6-24.6h29.4v16.4h16.4v-16.4h24.6v24.6h16.4v-24.6h24.6v16.4H467v-16.4h8.2c18.1,0,32.8-14.7,32.8-32.8
				C508,88.4,493.3,73.7,475.2,73.7z M175.8,136.3c3.1,3.8,5.6,8,7.6,12.5c-6.9-0.4-10.3-2.3-11-3.7
				C172,143.9,172.6,140.7,175.8,136.3z M73.7,172c0-31.6,25.7-57.4,57.4-57.4c12.2,0,23.4,3.8,32.7,10.3c-9.9,12.7-8.4,22-6.3,26.7
				c2.3,5.2,9,13.6,28.7,13.6c0.6,0,1.2,0,1.8,0c0.3,2.2,0.4,4.5,0.4,6.8v41H73.7V172z M204.9,229.4h16.3c13.6,0,24.6,11,24.6,24.6
				v163.9c0,13.6-11,24.6-24.6,24.6H41c-13.6,0-24.6-11-24.6-24.6V254c0-13.6,11-24.6,24.6-24.6h16.4H204.9z M237.5,133.9
				c-3,1.6-6.3,3.2-9.7,4.7c-9.3,4.1-18.7,7-27.4,8.7c-3-8.3-7.4-16-13-22.6c7.4-5.9,16.9-11.5,27.1-16c7.8-3.4,15.6-6,23-7.8
				L237.5,133.9L237.5,133.9z M336,119.5l-19.8,19.8l-8.2,8.2h-42.4l-7.1-7.1c4.4-3,8.3-6.1,11.8-9.3h8.3V81.9h-16.4v34.2
				c-2.4,2.4-5.1,4.8-8.2,7.2V77.1l11.6-11.6H308l8.2,8.2L336,93.5V119.5z M475.2,122.9H352.3V90.1h122.9c9,0,16.4,7.4,16.4,16.4
				C491.6,115.5,484.3,122.9,475.2,122.9z"/>
		</g>
	</g>
</g>
</svg>
