<svg xmlns="http://www.w3.org/2000/svg" xmlns:xlink="http://www.w3.org/1999/xlink" width="63.044" height="59.103" viewBox="0 0 63.044 59.103">
  <defs>
    <linearGradient id="linear-gradient" x1="1" y1="0.5" x2="0" y2="0.5" gradientUnits="objectBoundingBox">
      <stop offset="0" stop-color="#29b3ba"/>
      <stop offset="1" stop-color="#46eeaa"/>
    </linearGradient>
  </defs>
  <path id="Union_2" data-name="Union 2" d="M16.746,59.1a1.231,1.231,0,0,1-1.232-1.23V51.716H11.821a1.231,1.231,0,0,1-1.232-1.23V46.791H3.695A3.7,3.7,0,0,1,0,43.1V20.932a3.7,3.7,0,0,1,3.695-3.693H9.009A9.847,9.847,0,1,1,24.134,5.089a9.847,9.847,0,1,1,15.125,12.15h4.576a3.7,3.7,0,0,1,3.695,3.693v1.232h3.305L61.108,15a1.232,1.232,0,0,1,1.936,1.01V45.558a1.23,1.23,0,0,1-1.936,1.01L50.835,39.4H47.53V43.1a3.7,3.7,0,0,1-3.695,3.695H37.678v3.695a1.231,1.231,0,0,1-1.23,1.23H32.753v6.157a1.231,1.231,0,0,1-1.232,1.23Zm1.23-2.462H30.291V51.716H17.977Zm-4.925-7.387H35.216V46.791H13.052ZM2.462,20.932V43.1a1.234,1.234,0,0,0,1.232,1.232H43.835A1.234,1.234,0,0,0,45.067,43.1V20.932a1.233,1.233,0,0,0-1.232-1.23H3.695A1.233,1.233,0,0,0,2.462,20.932Zm49.992,3.106V37.529L60.581,43.2V18.367Zm-4.925,12.9h2.462V24.627H47.53ZM25.366,9.85a7.387,7.387,0,1,0,7.387-7.387A7.4,7.4,0,0,0,25.366,9.85ZM22.02,17.239h4.228a9.962,9.962,0,0,1-2.114-2.626A9.929,9.929,0,0,1,22.02,17.239ZM8.127,9.85a7.388,7.388,0,1,0,7.387-7.387A7.4,7.4,0,0,0,8.127,9.85ZM14.284,39.4a1.232,1.232,0,1,1,0-2.464H38.91a1.232,1.232,0,0,1,0,2.464ZM8.127,38.171A1.231,1.231,0,1,1,9.359,39.4,1.233,1.233,0,0,1,8.127,38.171Zm29.551-4.925a1.231,1.231,0,1,1,1.232,1.23A1.234,1.234,0,0,1,37.678,33.246ZM9.359,34.476a1.231,1.231,0,0,1-1.232-1.23V25.859a1.232,1.232,0,0,1,1.232-1.232H26.6a1.232,1.232,0,0,1,1.232,1.232v7.387a1.231,1.231,0,0,1-1.232,1.23Zm1.23-2.462H25.366V27.089H10.589Zm27.089-6.155a1.231,1.231,0,1,1,1.232,1.23A1.233,1.233,0,0,1,37.678,25.859ZM29.059,9.85a3.695,3.695,0,1,1,3.695,3.695A3.7,3.7,0,0,1,29.059,9.85Zm2.464,0a1.231,1.231,0,1,0,1.23-1.23A1.232,1.232,0,0,0,31.523,9.85Zm-19.7,0a3.694,3.694,0,1,1,3.693,3.695A3.7,3.7,0,0,1,11.821,9.85Zm2.462,0a1.231,1.231,0,1,0,1.23-1.23A1.232,1.232,0,0,0,14.284,9.85Z" transform="translate(0 0)" fill="url(#linear-gradient)"/>
</svg>
