<svg xmlns="http://www.w3.org/2000/svg" xmlns:xlink="http://www.w3.org/1999/xlink" width="63.044" height="49.253" viewBox="0 0 63.044 49.253">
  <defs>
    <linearGradient id="linear-gradient" x1="1" y1="0.571" x2="0" y2="0.571" gradientUnits="objectBoundingBox">
      <stop offset="0" stop-color="#ff8359"/>
      <stop offset="1" stop-color="#ffdf40"/>
    </linearGradient>
  </defs>
  <path id="Union_1" data-name="Union 1" d="M3.695,49.253A3.7,3.7,0,0,1,0,45.558V13.545A3.7,3.7,0,0,1,3.695,9.85h1.23V8.62A3.7,3.7,0,0,1,8.62,4.925h4.925A3.7,3.7,0,0,1,17.239,8.62V9.85h4.7L23.7,2.8A3.692,3.692,0,0,1,27.288,0h20.78a3.689,3.689,0,0,1,3.584,2.8L53.416,9.85h5.933a3.7,3.7,0,0,1,3.695,3.695V45.558a3.7,3.7,0,0,1-3.695,3.695ZM2.462,45.558a1.234,1.234,0,0,0,1.232,1.232H59.349a1.234,1.234,0,0,0,1.232-1.232V13.545a1.232,1.232,0,0,0-1.232-1.23H3.695a1.232,1.232,0,0,0-1.232,1.23v3.695h8.62a3.7,3.7,0,0,1,3.695,3.693V38.171a3.7,3.7,0,0,1-3.695,3.695H2.462Zm0-6.155h8.62a1.234,1.234,0,0,0,1.232-1.232V20.932a1.232,1.232,0,0,0-1.232-1.23H2.462v4.925H6.157a1.231,1.231,0,0,1,0,2.462H2.462v4.925H6.157a1.231,1.231,0,0,1,0,2.462H2.462ZM26.094,3.4,24.481,9.85h26.4L49.264,3.395a1.232,1.232,0,0,0-1.2-.932H27.288A1.231,1.231,0,0,0,26.094,3.4ZM7.387,8.62V9.85h7.389V8.62a1.234,1.234,0,0,0-1.232-1.232H8.62A1.234,1.234,0,0,0,7.387,8.62ZM22.9,29.551A14.776,14.776,0,1,1,37.678,44.328,14.791,14.791,0,0,1,22.9,29.551Zm2.462,0A12.313,12.313,0,1,0,37.678,17.239,12.328,12.328,0,0,0,25.366,29.551Zm2.462,0a9.851,9.851,0,1,1,9.85,9.852A9.862,9.862,0,0,1,27.828,29.551Zm2.462,0a7.388,7.388,0,1,0,7.387-7.387A7.4,7.4,0,0,0,30.291,29.551Zm2.462,0a4.931,4.931,0,0,1,4.925-4.925,1.231,1.231,0,1,1,0,2.462,2.466,2.466,0,0,0-2.462,2.462,1.231,1.231,0,1,1-2.462,0ZM51.223,17.239a1.231,1.231,0,0,1,0-2.462h5.664a1.231,1.231,0,1,1,0,2.462ZM35.216,7.387a1.231,1.231,0,0,1,0-2.462h9.85a1.231,1.231,0,1,1,0,2.462Zm-6.157-1.23a1.232,1.232,0,1,1,1.232,1.23A1.234,1.234,0,0,1,29.059,6.157Z" transform="translate(0 0)" fill="url(#linear-gradient)"/>
</svg>
