<svg xmlns="http://www.w3.org/2000/svg" xmlns:xlink="http://www.w3.org/1999/xlink" width="63.044" height="59.103" viewBox="0 0 63.044 59.103">
  <defs>
    <linearGradient id="linear-gradient" x1="1" y1="0.564" x2="0" y2="0.594" gradientUnits="objectBoundingBox">
      <stop offset="0" stop-color="#b122e5"/>
      <stop offset="1" stop-color="#ff63de"/>
    </linearGradient>
  </defs>
  <path id="Union_3" data-name="Union 3" d="M3.695,59.1A3.7,3.7,0,0,1,0,55.41V3.695A3.7,3.7,0,0,1,3.695,0H59.349a3.7,3.7,0,0,1,3.695,3.695V55.41A3.7,3.7,0,0,1,59.349,59.1ZM2.462,55.41a1.232,1.232,0,0,0,1.232,1.23H59.349a1.232,1.232,0,0,0,1.232-1.23v-43.1H2.462Zm0-51.716V9.85H60.581V3.695a1.234,1.234,0,0,0-1.232-1.232H3.695A1.234,1.234,0,0,0,2.462,3.695ZM27.846,50.282l4.925-29.551a1.231,1.231,0,1,1,2.428.405L30.275,50.688a1.231,1.231,0,1,1-2.428-.405ZM40.5,46.429a1.233,1.233,0,0,1,0-1.741l8.981-8.979L40.5,26.729a1.232,1.232,0,1,1,1.743-1.743l9.85,9.852a1.23,1.23,0,0,1,0,1.741l-9.85,9.85a1.231,1.231,0,0,1-1.743,0Zm-19.7,0-9.852-9.85a1.233,1.233,0,0,1,0-1.741L20.8,24.986a1.232,1.232,0,1,1,1.741,1.743l-8.979,8.979,8.979,8.979A1.231,1.231,0,1,1,20.8,46.429ZM43.835,7.387a1.231,1.231,0,1,1,0-2.462H54.424a1.231,1.231,0,0,1,0,2.462Zm-6.157-1.23a1.231,1.231,0,1,1,1.232,1.23A1.232,1.232,0,0,1,37.678,6.157Zm-19.7,0a1.231,1.231,0,1,1,1.232,1.23A1.232,1.232,0,0,1,17.977,6.157Zm-4.925,0a1.231,1.231,0,1,1,1.232,1.23A1.232,1.232,0,0,1,13.052,6.157Zm-4.925,0a1.231,1.231,0,1,1,1.232,1.23A1.232,1.232,0,0,1,8.127,6.157Z" transform="translate(0 0)" fill="url(#linear-gradient)"/>
</svg>
