<svg xmlns="http://www.w3.org/2000/svg" width="127.193" height="116.594" viewBox="0 0 127.193 116.594">
  <path id="users" d="M117.689,95.881,96.972,86.907a4.2,4.2,0,0,1-1.492-1.634l13.832-.011c.242.023,5.944.545,10.517-1.42a6.3,6.3,0,0,0,2.635-9.391c-3.954-5.626-13.181-20.328-13.47-35.239-.006-.257-.842-25.615-25.884-25.82a29.786,29.786,0,0,0-10.2,1.808,17.629,17.629,0,0,0-3.154-5.213C65.407,5.018,58.341,2.5,48.757,2.5s-16.65,2.518-21,7.483a19.006,19.006,0,0,0-4.435,13.832V35.091a8.454,8.454,0,0,0-2.12,5.565v8.48a8.43,8.43,0,0,0,3.173,6.591A44.491,44.491,0,0,0,31.8,71.068v7.015A5.6,5.6,0,0,1,28.879,83L9.968,93.316A19.122,19.122,0,0,0,0,110.109v8.984H127.193v-7.837A17.1,17.1,0,0,0,117.689,95.881ZM93.275,114.854H4.24v-4.744A14.874,14.874,0,0,1,12,97.042L30.908,86.727a9.844,9.844,0,0,0,5.13-8.643v-8.52l-.494-.589A40.021,40.021,0,0,1,28.315,54l-.193-.839-.723-.466a4.229,4.229,0,0,1-1.961-3.555v-8.48a4.184,4.184,0,0,1,1.42-3.127l.7-.63V23.7l-.019-.278a14.72,14.72,0,0,1,3.4-10.644C34.454,8.771,40.449,6.74,48.757,6.74c8.278,0,14.26,2.016,17.777,6A13.775,13.775,0,0,1,69.6,18.812c.034.148.066.295.1.441s.061.3.085.445c.028.165.051.322.074.479.017.112.034.227.047.335.032.263.057.517.074.753a.481.481,0,0,1,0,.055c.015.229.025.445.032.642,0,.038,0,.07,0,.108,0,.176,0,.343,0,.49v.064c-.008.5-.042.795-.042.8L69.956,36.9l.7.632a4.176,4.176,0,0,1,1.42,3.125v8.48a4.216,4.216,0,0,1-3.014,4.026l-1.056.324-.339,1.049a44.378,44.378,0,0,1-6.008,12.111,27.893,27.893,0,0,1-1.774,2.287l-.528.6v8.745a9.985,9.985,0,0,0,.136,1.579c.017.11.047.216.068.326a9.946,9.946,0,0,0,.329,1.251c.032.1.066.187.1.282A9.86,9.86,0,0,0,60.573,83c.025.047.049.1.074.142a9.676,9.676,0,0,0,1.068,1.533l.483.6h.083a9.872,9.872,0,0,0,2.512,1.815L85.045,97.212a14.794,14.794,0,0,1,8.229,13.311Zm29.678,0H97.515v-4.331a19.019,19.019,0,0,0-10.57-17.1L72.407,86.148a3.671,3.671,0,0,0-3.364-5.117h-4.7a5.4,5.4,0,0,1-.24-.543,4.627,4.627,0,0,1-.507-2.207V71.114c.485-.594,1-1.27,1.524-2.016a48.515,48.515,0,0,0,6.262-12.293,8.411,8.411,0,0,0,4.933-7.668v-8.48a8.454,8.454,0,0,0-2.12-5.565V23.818a18.651,18.651,0,0,0-.178-4.534,25.37,25.37,0,0,1,9.094-1.654c20.862.172,21.623,20.8,21.644,21.667.312,16.075,10.061,31.643,14.239,37.59a2.057,2.057,0,0,1,.295,1.753,1.981,1.981,0,0,1-1.134,1.3c-3.561,1.533-8.393,1.1-8.641,1.087H94.924a3.907,3.907,0,0,0-3.506,5.633,8.849,8.849,0,0,0,3.763,4.085l20.662,8.95a12.877,12.877,0,0,1,7.11,11.558Z" transform="translate(0 -2.5)" fill="#59c2ff"/>
</svg>
